<svg width="16" height="16" viewBox="0 0 16 16" fill="none" xmlns="http://www.w3.org/2000/svg">
<path d="M15.3705 12.0116L10.5353 7.2319L11.1102 6.66365C11.1229 6.64717 11.1337 6.62936 11.1424 6.61054C11.4835 6.81462 11.889 6.88648 12.2806 6.81224C12.6721 6.738 13.022 6.52293 13.2625 6.20858C13.503 5.89424 13.6171 5.50293 13.5827 5.11027C13.5484 4.71762 13.368 4.35148 13.0765 4.08261L9.42325 0.471276C9.27341 0.321945 9.09516 0.203417 8.89875 0.122531C8.70235 0.0416444 8.49169 0 8.27892 0C8.06615 0 7.85549 0.0416444 7.65908 0.122531C7.46268 0.203417 7.28442 0.321945 7.13459 0.471276C6.89384 0.711206 6.73651 1.02059 6.68532 1.35472C6.63414 1.68885 6.69176 2.03042 6.84985 2.33005C6.82287 2.34283 6.7976 2.35889 6.77464 2.37785L3.11601 5.99449C3.09808 6.0162 3.08191 6.03929 3.06766 6.06353C2.72572 5.88719 2.33116 5.83791 1.95559 5.92463C1.58003 6.01134 1.24838 6.22831 1.02084 6.53613C0.793309 6.84396 0.684979 7.22223 0.715523 7.60228C0.746067 7.98232 0.913458 8.33894 1.18731 8.60739L4.84593 12.2293C5.12173 12.5096 5.49213 12.6798 5.88663 12.7075C6.28114 12.7353 6.6722 12.6187 6.98538 12.38C7.29857 12.1412 7.51202 11.797 7.5851 11.4127C7.65818 11.0285 7.5858 10.6311 7.38172 10.2962L7.43545 10.2644L7.82763 9.87667L12.6628 14.6564C13.038 15.0325 13.5377 15.2625 14.0704 15.3043H14.2155C14.4537 15.3047 14.6895 15.2578 14.9091 15.1666C15.1287 15.0754 15.3276 14.9416 15.4941 14.7732C15.8404 14.3872 16.0211 13.8831 15.998 13.3677C15.975 12.8522 15.7499 12.3659 15.3705 12.0116ZM7.8921 1.2201C7.94294 1.17024 8.00335 1.13093 8.06978 1.10448C8.1362 1.07803 8.20731 1.06497 8.27892 1.06608C8.34962 1.06568 8.41971 1.07908 8.48517 1.1055C8.55063 1.13193 8.61016 1.17088 8.66036 1.2201L12.319 4.83674C12.3704 4.88655 12.4112 4.94607 12.4388 5.01175C12.4665 5.07744 12.4806 5.14796 12.4802 5.21912C12.4799 5.28938 12.4655 5.35889 12.4378 5.42361C12.4101 5.48834 12.3698 5.54699 12.319 5.59618C12.269 5.64596 12.2096 5.68547 12.1442 5.71243C12.0787 5.73939 12.0085 5.75327 11.9375 5.75327C11.8666 5.75327 11.7964 5.73939 11.7309 5.71243C11.6655 5.68547 11.606 5.64596 11.5561 5.59618L7.8921 1.95829C7.79527 1.85927 7.74114 1.72692 7.74114 1.5892C7.74114 1.45147 7.79527 1.31912 7.8921 1.2201ZM6.37708 11.4752C6.32624 11.5251 6.26583 11.5644 6.1994 11.5908C6.13297 11.6173 6.06187 11.6303 5.99026 11.6292C5.91956 11.6296 5.84947 11.6162 5.78401 11.5898C5.71855 11.5634 5.65902 11.5244 5.60882 11.4752L1.94482 7.85857C1.86679 7.7843 1.81329 7.68843 1.79135 7.58357C1.76941 7.4787 1.78005 7.36972 1.82188 7.27094C1.86371 7.17216 1.93478 7.08819 2.02575 7.03004C2.11672 6.9719 2.22334 6.94229 2.33164 6.94512C2.40234 6.94471 2.47243 6.95811 2.53789 6.98454C2.60334 7.01097 2.66288 7.04991 2.71308 7.09913L6.37708 10.7158C6.42825 10.7652 6.46891 10.8243 6.49666 10.8895C6.52442 10.9547 6.53872 11.0247 6.53872 11.0955C6.53872 11.1662 6.52442 11.2363 6.49666 11.3015C6.46891 11.3667 6.42825 11.4258 6.37708 11.4752ZM6.67256 9.51023L3.8789 6.738L7.53752 3.12136L10.3366 5.88827L6.67256 9.51023ZM14.7312 14.0616C14.6525 14.1343 14.5592 14.1898 14.4574 14.2246C14.3556 14.2594 14.2476 14.2726 14.1402 14.2634C13.8654 14.2385 13.6084 14.1181 13.415 13.9235L8.57977 9.14378L9.75097 7.98072L14.5862 12.7604C14.7788 12.9139 14.9038 13.1352 14.9348 13.3778C14.9659 13.6204 14.9006 13.8655 14.7527 14.0616H14.7312ZM5.5551 16H0.537243C0.394758 16 0.258108 15.944 0.157355 15.8445C0.0566025 15.7449 0 15.6098 0 15.4689C0 15.3281 0.0566025 15.193 0.157355 15.0934C0.258108 14.9938 0.394758 14.9378 0.537243 14.9378H5.5551C5.69758 14.9378 5.83423 14.9938 5.93498 15.0934C6.03574 15.193 6.09234 15.3281 6.09234 15.4689C6.09234 15.6098 6.03574 15.7449 5.93498 15.8445C5.83423 15.944 5.69758 16 5.5551 16Z" fill="#333333"/>
</svg>
