<svg width="500" height="401" viewBox="0 0 500 401" fill="none" xmlns="http://www.w3.org/2000/svg">
<path d="M166.596 274.073L183.92 263.637L304.644 335.636L287.398 345.991L166.596 274.073Z" fill="#DAB193"/>
<path d="M301.82 360.877L319.145 350.441V350.522L301.82 360.877Z" fill="#B6947A"/>
<path d="M301.82 360.877L319.145 350.522C319.145 350.684 319.145 350.845 319.145 351.007L301.82 361.362C301.82 361.2 301.82 361.039 301.82 360.877Z" fill="#B19077"/>
<path d="M301.82 361.443L319.145 351.088C319.145 351.25 319.145 351.412 319.145 351.573L301.82 361.928C301.82 361.767 301.82 361.605 301.82 361.443Z" fill="#AC8B74"/>
<path d="M301.817 361.928L319.141 351.573C319.141 351.735 319.141 351.897 319.063 352.059L301.738 362.414C301.738 362.252 301.817 362.09 301.817 361.928Z" fill="#A78770"/>
<path d="M301.744 362.414L319.069 352.059C319.069 352.221 318.991 352.382 318.991 352.544L301.666 362.899C301.744 362.818 301.744 362.576 301.744 362.414Z" fill="#A2836D"/>
<path d="M301.66 362.98L318.985 352.625C318.985 352.787 318.907 352.949 318.907 353.191L301.582 363.546C301.582 363.304 301.66 363.142 301.66 362.98Z" fill="#9D7F69"/>
<path d="M301.585 363.465L318.909 353.11C318.831 353.272 318.831 353.515 318.752 353.677L301.428 364.032C301.506 363.87 301.506 363.627 301.585 363.465Z" fill="#987B66"/>
<path d="M301.424 364.032L318.749 353.677C318.671 353.839 318.671 354.081 318.592 354.243L301.268 364.598C301.346 364.436 301.346 364.194 301.424 364.032Z" fill="#937763"/>
<path d="M301.27 364.598L318.595 354.243C318.517 354.486 318.438 354.648 318.36 354.89L301.035 365.245C301.114 365.003 301.192 364.841 301.27 364.598Z" fill="#8E735F"/>
<path d="M301.035 365.245L318.359 354.89C318.202 355.133 318.124 355.376 317.967 355.618L300.643 365.973C300.721 365.731 300.878 365.488 301.035 365.245Z" fill="#896F5C"/>
<path d="M300.643 365.973L317.967 355.618C317.497 356.427 316.87 356.994 316.164 357.479L298.84 367.834C299.545 367.349 300.094 366.701 300.643 365.973Z" fill="#846B58"/>
<path d="M167.144 82.0201L184.391 71.6651L183.92 263.637L166.596 274.073L167.144 82.0201Z" fill="#C39E83"/>
<path d="M155.773 33.4002L173.098 23.0452C173.333 22.8834 173.647 22.7216 173.96 22.6407L156.636 32.9957C156.322 33.1575 156.009 33.2384 155.773 33.4002Z" fill="#846B58"/>
<path d="M156.639 32.9958L173.963 22.6408C174.198 22.5599 174.434 22.479 174.669 22.3981L157.344 32.834C157.109 32.834 156.874 32.9149 156.639 32.9958Z" fill="#896F5C"/>
<path d="M157.342 32.8339L174.666 22.4789C174.823 22.398 175.058 22.398 175.215 22.3171L157.969 32.753C157.734 32.753 157.577 32.753 157.342 32.8339Z" fill="#8E735F"/>
<path d="M157.969 32.753L175.215 22.3171C175.45 22.3171 175.607 22.3171 175.764 22.3171L158.517 32.6721C158.282 32.6721 158.126 32.6721 157.969 32.753Z" fill="#937763"/>
<path d="M158.516 32.6721L175.762 22.3171C175.919 22.3171 176.075 22.3171 176.232 22.3171L158.986 32.6721C158.829 32.6721 158.672 32.6721 158.516 32.6721Z" fill="#987B66"/>
<path d="M158.988 32.6721L176.313 22.3171C176.47 22.3171 176.626 22.3171 176.783 22.398L159.459 32.753C159.302 32.753 159.145 32.753 158.988 32.6721Z" fill="#9D7F69"/>
<path d="M159.457 32.7531L176.782 22.3981C176.938 22.3981 177.095 22.479 177.252 22.479L159.927 32.834C159.771 32.834 159.614 32.7531 159.457 32.7531Z" fill="#A2836D"/>
<path d="M159.928 32.8339L177.174 22.4789C177.331 22.4789 177.488 22.5598 177.566 22.5598L160.32 32.9148C160.163 32.9148 160.006 32.8339 159.928 32.8339Z" fill="#A78770"/>
<path d="M160.322 32.9148L177.647 22.5598C177.804 22.5598 177.96 22.6407 178.117 22.7216L160.793 33.0766C160.636 32.9957 160.479 32.9957 160.322 32.9148Z" fill="#AC8B74"/>
<path d="M160.791 33.0766L178.116 22.7216C178.272 22.8025 178.429 22.8025 178.508 22.8834L161.183 33.2384C161.026 33.1575 160.869 33.0766 160.791 33.0766Z" fill="#B19077"/>
<path d="M161.182 33.2384L178.506 22.8835C178.585 22.8835 178.741 22.9644 178.898 22.9644L161.574 33.4002C161.417 33.3193 161.338 33.2384 161.182 33.2384Z" fill="#B6947A"/>
<path d="M161.574 33.4002L178.899 23.0452C179.056 23.0452 179.212 23.1261 179.291 23.207L162.045 33.562C161.888 33.4811 161.731 33.4002 161.574 33.4002Z" fill="#BB987E"/>
<path d="M162.045 33.562L179.37 23.207C179.526 23.2879 179.683 23.3688 179.761 23.4497L162.437 33.7238C162.28 33.6429 162.123 33.6429 162.045 33.562Z" fill="#C09C81"/>
<path d="M162.438 33.7238L179.762 23.3688C179.919 23.4497 180.076 23.5306 180.154 23.6115L162.829 33.9665C162.751 33.8856 162.594 33.8047 162.438 33.7238Z" fill="#C5A085"/>
<path d="M162.828 33.9665L180.153 23.6115C180.31 23.6924 180.388 23.6924 180.466 23.7733L163.22 34.2092C163.063 34.1283 162.985 34.0474 162.828 33.9665Z" fill="#CAA488"/>
<path d="M163.223 34.2092L180.469 23.7733L217.94 46.1013L200.616 56.4562L163.223 34.2092Z" fill="#DAB193"/>
<path d="M200.613 56.4562L217.938 46.1013C217.938 46.2631 217.938 46.4249 217.938 46.5866L200.613 56.9416C200.613 56.7798 200.613 56.618 200.613 56.4562Z" fill="#B6947A"/>
<path d="M200.613 56.9416L217.938 46.5866C217.938 46.7484 217.938 46.9102 217.938 47.072L200.692 57.5079C200.692 57.2652 200.613 57.1034 200.613 56.9416Z" fill="#BB987E"/>
<path d="M200.691 57.508L217.938 47.0721C217.938 47.2339 217.938 47.3957 218.016 47.5575L200.691 57.9934C200.691 57.8316 200.691 57.6698 200.691 57.508Z" fill="#C09C81"/>
<path d="M200.691 57.9933L218.016 47.6383C218.016 47.8001 218.016 47.9619 218.094 48.1237L200.77 58.4787C200.77 58.3169 200.691 58.1551 200.691 57.9933Z" fill="#C5A085"/>
<path d="M200.77 58.4787L218.094 48.1237C218.094 48.2855 218.173 48.4473 218.173 48.69L200.848 59.045C200.848 58.8832 200.77 58.7214 200.77 58.4787Z" fill="#CAA488"/>
<path d="M200.85 59.045L218.174 48.69C218.174 48.8518 218.253 49.0136 218.253 49.2563L200.928 59.6113C200.928 59.4495 200.85 59.2068 200.85 59.045Z" fill="#CFA88B"/>
<path d="M200.924 59.6113L218.248 49.2563C218.248 49.4181 218.327 49.6608 218.327 49.8226L201.002 60.1776C201.002 59.9349 200.924 59.7731 200.924 59.6113Z" fill="#D5AC8F"/>
<path d="M201.006 60.1776L218.33 49.8226C218.409 49.9844 218.409 50.2271 218.487 50.3889L201.163 60.7439C201.084 60.5012 201.084 60.3394 201.006 60.1776Z" fill="#DAB092"/>
<path d="M201.16 60.7439L218.485 50.3889C218.563 50.5507 218.563 50.7934 218.642 50.9552L201.317 61.3102C201.239 61.0675 201.239 60.9057 201.16 60.7439Z" fill="#DFB496"/>
<path d="M201.32 61.3101L218.645 50.9551C218.645 51.1169 218.723 51.2787 218.802 51.4405L201.477 61.8764C201.399 61.6337 201.399 61.4719 201.32 61.3101Z" fill="#E4B999"/>
<path d="M201.479 61.8764L218.803 51.4406C218.882 51.6023 218.882 51.845 218.96 52.0068L201.635 62.4427C201.557 62.2 201.557 62.0382 201.479 61.8764Z" fill="#E9BD9C"/>
<path d="M201.635 62.4427L218.959 52.0877C219.038 52.2495 219.038 52.4113 219.116 52.5731L201.87 62.9281C201.792 62.7663 201.713 62.6045 201.635 62.4427Z" fill="#EEC1A0"/>
<path d="M201.869 62.9281L219.194 52.5731C219.272 52.7349 219.351 52.8967 219.351 53.1394L202.026 63.4944C201.948 63.3326 201.869 63.1708 201.869 62.9281Z" fill="#F3C5A3"/>
<path d="M202.025 63.4944L219.35 53.1394C219.428 53.3012 219.428 53.463 219.507 53.6248L202.261 63.9798C202.182 63.818 202.104 63.6562 202.025 63.4944Z" fill="#F8C9A7"/>
<path d="M202.26 63.9798L219.506 53.6248C219.584 53.7866 219.663 53.9484 219.741 54.1102L202.417 64.5461C202.338 64.3843 202.338 64.2225 202.26 63.9798Z" fill="#FDCDAA"/>
<path d="M202.416 64.5461L219.741 54.1911C219.819 54.3529 219.897 54.5147 219.976 54.6765L202.651 65.0315C202.573 64.8697 202.494 64.7079 202.416 64.5461Z" fill="#FDD3B4"/>
<path d="M202.652 65.0315L219.977 54.6765C220.055 54.8383 220.134 55.081 220.212 55.2428L202.966 65.5978C202.888 65.436 202.731 65.2742 202.652 65.0315Z" fill="#FDD5B8"/>
<path d="M202.963 65.5978L220.287 55.2428C220.366 55.4855 220.444 55.6473 220.601 55.89L203.276 66.2449C203.12 66.0831 203.041 65.8404 202.963 65.5978Z" fill="#FDD7BC"/>
<path d="M203.277 66.245L220.602 55.89C220.759 56.2136 220.916 56.5372 221.072 56.8608L203.826 67.2158C203.591 66.8922 203.434 66.5686 203.277 66.245Z" fill="#FDD9BE"/>
<path d="M203.826 67.2157L221.072 56.8607C221.308 57.2652 221.621 57.7506 221.856 58.1551L204.61 68.5101C204.297 68.1056 204.061 67.7011 203.826 67.2157Z" fill="#FEDAC1"/>
<path d="M204.611 68.5101L221.858 58.1551C222.093 58.4787 222.328 58.8023 222.485 59.1259L205.238 69.4809C205.003 69.1573 204.768 68.8337 204.611 68.5101Z" fill="#FDD9BE"/>
<path d="M205.238 69.4809L222.563 59.1259C222.72 59.3686 222.876 59.5304 223.033 59.7731L205.709 70.1281C205.552 69.8854 205.395 69.7236 205.238 69.4809Z" fill="#FDD7BC"/>
<path d="M205.711 70.1281L223.036 59.7731C223.114 59.9349 223.271 60.0967 223.428 60.2585L206.103 70.6135C205.946 70.4517 205.868 70.2899 205.711 70.1281Z" fill="#FDD5B8"/>
<path d="M206.1 70.6135L223.424 60.2585C223.581 60.4203 223.659 60.5821 223.816 60.7439L206.492 71.0989C206.413 70.9371 206.256 70.7753 206.1 70.6135Z" fill="#FDD3B4"/>
<path d="M206.492 71.0989L223.817 60.7439C223.974 60.9057 224.052 61.0675 224.209 61.2293L206.884 71.5842C206.806 71.4224 206.649 71.2606 206.492 71.0989Z" fill="#FDCDAA"/>
<path d="M206.885 71.5842L224.209 61.2292C224.366 61.391 224.523 61.5528 224.601 61.7146L207.355 72.0696C207.198 71.9078 207.042 71.746 206.885 71.5842Z" fill="#F8C9A7"/>
<path d="M207.355 72.0697L224.68 61.7147C224.758 61.8765 224.915 61.9574 225.072 62.1192L207.826 72.4741C207.669 72.3932 207.512 72.2314 207.355 72.0697Z" fill="#F3C5A3"/>
<path d="M207.824 72.4741L225.149 62.1191C225.306 62.2809 225.462 62.4427 225.619 62.5236L208.216 72.9595C208.059 72.7977 207.903 72.6359 207.824 72.4741Z" fill="#EEC1A0"/>
<path d="M208.219 72.9595L225.543 62.6045C225.7 62.7663 225.857 62.8472 226.014 63.009L208.689 73.364C208.532 73.2022 208.376 73.1213 208.219 72.9595Z" fill="#E9BD9C"/>
<path d="M208.689 73.364L226.014 63.009C226.171 63.1708 226.328 63.2517 226.484 63.4135L209.16 73.7685C209.003 73.6067 208.846 73.5258 208.689 73.364Z" fill="#E4B999"/>
<path d="M209.156 73.7685L226.481 63.4135C226.638 63.5753 226.794 63.6562 226.951 63.7371L209.627 74.0921C209.47 74.0112 209.313 73.8494 209.156 73.7685Z" fill="#DFB496"/>
<path d="M209.629 74.0921L226.954 63.7371C227.11 63.818 227.267 63.9798 227.345 64.0607L210.099 74.4157C209.942 74.3348 209.786 74.2539 209.629 74.0921Z" fill="#DAB092"/>
<path d="M210.098 74.4157L227.344 64.0607C227.501 64.1416 227.657 64.3034 227.814 64.3843L210.49 74.7393C210.333 74.6584 210.254 74.5775 210.098 74.4157Z" fill="#D5AC8F"/>
<path d="M210.492 74.7393L227.817 64.3843C227.974 64.4652 228.13 64.5461 228.287 64.627L210.963 75.0629C210.806 74.9011 210.649 74.8202 210.492 74.7393Z" fill="#CFA88B"/>
<path d="M210.961 75.0629L228.286 64.7079L228.364 64.7888L211.039 75.0629H210.961Z" fill="#CAA488"/>
<path d="M203.672 49.5799L220.996 39.225C221.232 39.0632 221.545 38.9014 221.859 38.8205L204.534 49.1755C204.221 49.2564 203.985 49.4181 203.672 49.5799Z" fill="#8B2D2C"/>
<path d="M204.537 49.1754L221.862 38.8205C222.097 38.7396 222.332 38.6587 222.567 38.5778L205.321 48.9327C205.007 49.0136 204.772 49.0945 204.537 49.1754Z" fill="#8F2E2E"/>
<path d="M205.318 48.9327L222.643 38.5777C222.8 38.5777 222.957 38.4968 223.192 38.4968L205.867 48.8518C205.71 48.8518 205.475 48.9327 205.318 48.9327Z" fill="#94302E"/>
<path d="M205.867 48.8518L223.192 38.4968C223.349 38.4968 223.584 38.4968 223.741 38.4968L206.416 48.8518C206.259 48.8518 206.102 48.8518 205.867 48.8518Z" fill="#983231"/>
<path d="M206.414 48.8518L223.739 38.4968C223.895 38.4968 224.052 38.4968 224.209 38.4968L206.963 48.8518C206.728 48.8518 206.571 48.8518 206.414 48.8518Z" fill="#9D3232"/>
<path d="M206.965 48.8518L224.211 38.4968C224.368 38.4968 224.525 38.4968 224.681 38.4968L207.357 48.9327C207.2 48.8518 207.043 48.8518 206.965 48.8518Z" fill="#A13433"/>
<path d="M207.355 48.9327L224.68 38.4968C224.837 38.4968 224.994 38.5777 225.15 38.5777L207.826 49.0136C207.669 48.9327 207.512 48.9327 207.355 48.9327Z" fill="#A63535"/>
<path d="M207.826 49.0136L225.151 38.6586C225.308 38.6586 225.464 38.7395 225.543 38.7395L208.297 49.0945C208.14 49.0136 207.983 49.0136 207.826 49.0136Z" fill="#AA3736"/>
<path d="M208.297 49.0945L225.621 38.7395C225.778 38.7395 225.935 38.8204 226.013 38.9013L208.689 49.1754C208.532 49.1754 208.454 49.0945 208.297 49.0945Z" fill="#AF3937"/>
<path d="M208.689 49.1755L226.014 38.8205C226.171 38.9014 226.328 38.9014 226.406 38.9823L209.16 49.3372C209.003 49.3372 208.846 49.2563 208.689 49.1755Z" fill="#B33A3A"/>
<path d="M209.158 49.3372L226.483 38.9822C226.561 39.0631 226.718 39.0631 226.875 39.144L209.55 49.499C209.393 49.4181 209.237 49.4181 209.158 49.3372Z" fill="#B83B3A"/>
<path d="M209.551 49.499L226.875 39.144C226.954 39.2249 227.111 39.2249 227.267 39.3058L209.943 49.6608C209.786 49.6608 209.708 49.5799 209.551 49.499Z" fill="#BC3D3C"/>
<path d="M209.943 49.6608L227.268 39.3058C227.425 39.3867 227.582 39.4676 227.66 39.5485L210.414 49.9035C210.257 49.8226 210.1 49.7417 209.943 49.6608Z" fill="#C03E3D"/>
<path d="M210.414 49.9035L227.739 39.5485C227.817 39.6294 227.974 39.6294 228.131 39.7103L210.806 50.1462C210.649 50.0653 210.492 49.9844 210.414 49.9035Z" fill="#C5403F"/>
<path d="M210.807 50.1462L228.131 39.7103C228.21 39.7912 228.366 39.8721 228.445 39.8721L211.12 50.308C211.042 50.2271 210.885 50.1462 210.807 50.1462Z" fill="#C94240"/>
<path d="M211.119 50.308L228.444 39.953L235.891 44.4024L218.645 54.7574L211.119 50.308Z" fill="#D74644"/>
<path d="M211.039 75.0628L228.364 64.7079L261.445 84.4471L244.12 94.802L211.039 75.0628Z" fill="#DAB193"/>
<path d="M218.643 54.7574L235.889 44.4024H235.967L218.643 54.8383V54.7574Z" fill="#7F6ED6"/>
<path d="M218.643 54.8383L235.967 44.4833C236.046 44.6451 236.124 44.8069 236.202 44.9687L218.799 55.3237C218.799 55.1619 218.721 55.0001 218.643 54.8383Z" fill="#8171DB"/>
<path d="M218.799 55.3237L236.123 44.9687C236.202 45.1305 236.28 45.2923 236.359 45.4541L219.034 55.8091C218.956 55.6473 218.877 55.4855 218.799 55.3237Z" fill="#8473DF"/>
<path d="M219.035 55.8091L236.36 45.4541C236.438 45.6159 236.517 45.7777 236.595 45.9395L219.27 56.3754C219.192 56.2136 219.114 56.0518 219.035 55.8091Z" fill="#9384E3"/>
<path d="M219.27 56.3754L236.594 46.0204C236.673 46.1822 236.751 46.344 236.829 46.5867L219.505 56.9417C219.426 56.699 219.348 56.5372 219.27 56.3754Z" fill="#998BE4"/>
<path d="M219.508 56.9416L236.832 46.5866C236.911 46.8293 237.068 46.9911 237.146 47.2338L219.821 57.5079C219.743 57.3461 219.665 57.1034 219.508 56.9416Z" fill="#9E90E6"/>
<path d="M219.818 57.5079L237.143 47.153C237.3 47.4765 237.457 47.8001 237.613 48.0428L220.367 58.4787C220.21 58.1551 219.975 57.8315 219.818 57.5079Z" fill="#A295E7"/>
<path d="M220.367 58.4787L237.692 48.1237C238.005 48.6091 238.241 49.0945 238.554 49.5799L221.229 59.854C220.916 59.4495 220.602 58.9641 220.367 58.4787Z" fill="#A599E8"/>
<path d="M221.23 59.854L238.555 49.499C238.79 49.8226 238.947 50.1462 239.182 50.3889L221.858 60.8248C221.622 60.5012 221.387 60.1776 221.23 59.854Z" fill="#A295E7"/>
<path d="M221.857 60.8248L239.182 50.4698C239.339 50.6316 239.496 50.8742 239.652 51.036L222.249 61.391C222.171 61.2292 222.014 60.9865 221.857 60.8248Z" fill="#9E90E6"/>
<path d="M222.25 61.3911L239.575 51.0361C239.731 51.1979 239.81 51.3597 239.967 51.5215L222.72 61.8764C222.564 61.7146 222.407 61.5529 222.25 61.3911Z" fill="#998BE4"/>
<path d="M222.717 61.8764L240.041 51.5215C240.198 51.6833 240.277 51.845 240.433 52.0068L223.109 62.3618C222.952 62.2 222.795 62.0382 222.717 61.8764Z" fill="#9384E3"/>
<path d="M223.111 62.3619L240.436 52.0069C240.593 52.1687 240.671 52.3305 240.828 52.4923L223.503 62.8472C223.346 62.6854 223.19 62.5236 223.111 62.3619Z" fill="#8473DF"/>
<path d="M223.502 62.8472L240.827 52.4922C240.983 52.654 241.14 52.8158 241.219 52.9776L223.894 63.3326C223.737 63.1708 223.659 63.009 223.502 62.8472Z" fill="#8171DB"/>
<path d="M223.895 63.3326L241.219 52.9776C241.376 53.1394 241.533 53.3012 241.689 53.463L224.365 63.7371C224.208 63.6562 224.051 63.4944 223.895 63.3326Z" fill="#7F6ED6"/>
<path d="M224.365 63.7371L241.69 53.3821C241.847 53.5439 242.003 53.7057 242.16 53.7866L224.836 64.2225C224.679 64.0607 224.522 63.8989 224.365 63.7371Z" fill="#7C6CD2"/>
<path d="M224.836 64.2225L242.161 53.8675C242.317 54.0293 242.474 54.1102 242.631 54.272L225.306 64.627C225.15 64.4652 224.993 64.3843 224.836 64.2225Z" fill="#796ACD"/>
<path d="M225.307 64.627L242.631 54.272C242.71 54.3529 242.866 54.5147 243.023 54.6765L225.777 65.0315C225.62 64.8697 225.463 64.7888 225.307 64.627Z" fill="#7768C9"/>
<path d="M225.777 65.0315L243.024 54.6765C243.18 54.8383 243.337 54.9192 243.494 55.0001L226.169 65.3551C226.013 65.2742 225.934 65.1124 225.777 65.0315Z" fill="#7465C4"/>
<path d="M226.168 65.3551L243.493 55.0001C243.649 55.081 243.806 55.2428 243.963 55.3237L226.638 65.6787C226.482 65.5978 226.325 65.5169 226.168 65.3551Z" fill="#7263C0"/>
<path d="M226.639 65.6787L243.963 55.3237C244.12 55.4046 244.277 55.5664 244.434 55.6473L227.109 66.0023C226.952 65.9214 226.795 65.8405 226.639 65.6787Z" fill="#6F61BB"/>
<path d="M227.109 66.0023L244.434 55.6473C244.591 55.7282 244.748 55.8091 244.904 55.89L227.58 66.3259C227.423 66.1641 227.266 66.0832 227.109 66.0023Z" fill="#6C5EB7"/>
<path d="M227.58 66.3258L244.905 55.9708L244.983 56.0517C245.061 56.1326 245.218 56.2135 245.297 56.2135L227.972 66.5685C227.894 66.4876 227.737 66.4067 227.658 66.3258C227.58 66.3258 227.58 66.3258 227.58 66.3258Z" fill="#6A5CB2"/>
<path d="M225.231 49.5799L242.555 39.2249C242.32 39.3867 242.085 39.5485 241.928 39.8721L224.604 50.2271C224.76 49.9035 224.995 49.7417 225.231 49.5799Z" fill="#8B2D2C"/>
<path d="M224.604 50.2271L241.929 39.8721C241.85 39.953 241.85 40.0339 241.772 40.1148L224.447 50.4698C224.526 50.3889 224.604 50.308 224.604 50.2271Z" fill="#8F2E2E"/>
<path d="M224.446 50.4698L241.77 40.1148C241.77 40.1957 241.692 40.2766 241.692 40.3575L224.367 50.6316C224.446 50.5507 224.446 50.5507 224.446 50.4698Z" fill="#94302E"/>
<path d="M224.367 50.6316L241.692 40.2766C241.692 40.3575 241.613 40.4384 241.613 40.4384L224.367 50.8743C224.367 50.7934 224.367 50.7125 224.367 50.6316Z" fill="#983231"/>
<path d="M224.367 50.8743L241.692 40.5193C241.692 40.6002 241.692 40.6002 241.614 40.6811L224.289 51.0361C224.289 50.9552 224.289 50.8743 224.367 50.8743Z" fill="#9D3232"/>
<path d="M224.289 51.0361L241.614 40.6811C241.614 40.762 241.614 40.762 241.614 40.8429L224.289 51.1979C224.289 51.117 224.289 51.117 224.289 51.0361Z" fill="#A13433"/>
<path d="M224.289 51.1979L241.614 40.8429C241.614 40.9238 241.614 40.9238 241.614 41.0047L224.211 51.3597C224.211 51.2788 224.211 51.2788 224.289 51.1979Z" fill="#A63535"/>
<path d="M224.211 51.3597L241.536 41.0047C241.536 41.0856 241.536 41.0856 241.536 41.1665L224.211 51.5215C224.211 51.5215 224.211 51.4406 224.211 51.3597Z" fill="#AA3736"/>
<path d="M224.211 51.5215L241.536 41.1665C241.536 41.2474 241.536 41.2474 241.536 41.3283L224.211 51.6833C224.211 51.6833 224.211 51.6024 224.211 51.5215Z" fill="#AF3937"/>
<path d="M224.211 51.6832L241.536 41.3282C241.536 41.4091 241.536 41.4091 241.536 41.49L224.211 51.9259C224.211 51.845 224.211 51.7641 224.211 51.6832Z" fill="#B33A3A"/>
<path d="M224.211 51.9259L241.536 41.571C241.536 41.6519 241.536 41.6519 241.536 41.7327L224.211 52.0877C224.211 52.0068 224.211 51.9259 224.211 51.9259Z" fill="#B83B3A"/>
<path d="M224.211 52.0878L241.536 41.7328C241.536 41.8137 241.536 41.8137 241.536 41.8946L224.211 52.2496C224.211 52.1687 224.211 52.0878 224.211 52.0878Z" fill="#BC3D3C"/>
<path d="M224.211 52.2496L241.536 41.8946C241.536 41.9755 241.536 41.9755 241.536 42.0564L224.211 52.4114C224.211 52.3305 224.211 52.3305 224.211 52.2496Z" fill="#C03E3D"/>
<path d="M224.211 52.4113L241.536 42.0563C241.536 42.1372 241.536 42.1372 241.536 42.2181L224.211 52.5731C224.211 52.4922 224.211 52.4922 224.211 52.4113Z" fill="#C5403F"/>
<path d="M224.211 52.5731L241.536 42.2181C241.536 42.299 241.536 42.299 241.536 42.3799L224.289 52.7349C224.289 52.7349 224.289 52.654 224.211 52.5731Z" fill="#C94240"/>
<path d="M224.289 52.7349L241.614 42.3799C241.614 42.4608 241.614 42.4608 241.614 42.5417L224.289 52.9776C224.289 52.8967 224.289 52.8158 224.289 52.7349Z" fill="#CE4241"/>
<path d="M224.289 52.9777L241.614 42.6227C241.614 42.7036 241.614 42.7845 241.614 42.7845L224.367 53.1395C224.289 53.0586 224.289 52.9777 224.289 52.9777Z" fill="#D24443"/>
<path d="M224.367 53.1394L241.692 42.7844C241.692 42.8653 241.692 42.9462 241.77 42.9462L224.367 53.3012C224.367 53.2203 224.367 53.2203 224.367 53.1394Z" fill="#D74644"/>
<path d="M224.367 53.3012L241.692 42.9463C241.692 43.0272 241.692 43.1081 241.77 43.1081L224.446 53.5439C224.446 53.463 224.367 53.3821 224.367 53.3012Z" fill="#DB4746"/>
<path d="M224.447 53.544L241.772 43.189C241.772 43.2699 241.772 43.3508 241.85 43.3508L224.447 53.7058C224.447 53.6249 224.447 53.544 224.447 53.544Z" fill="#E04948"/>
<path d="M224.447 53.7058L241.772 43.3508C241.772 43.4317 241.772 43.5126 241.85 43.5126L224.526 53.8676C224.526 53.7867 224.526 53.7867 224.447 53.7058Z" fill="#E44A49"/>
<path d="M224.521 53.8675L241.846 43.5125C241.846 43.5934 241.924 43.6743 241.924 43.6743L224.6 54.0293C224.6 54.0293 224.521 53.9484 224.521 53.8675Z" fill="#E94B4A"/>
<path d="M224.604 54.0293L241.928 43.6743C241.928 43.7552 242.007 43.7552 242.007 43.8361L224.682 54.272C224.604 54.1911 224.604 54.1102 224.604 54.0293Z" fill="#ED4D4B"/>
<path d="M224.682 54.272L242.006 43.917C242.006 43.9979 242.085 43.9979 242.085 44.0788L224.76 54.4338C224.682 54.3529 224.682 54.272 224.682 54.272Z" fill="#F24E4D"/>
<path d="M224.758 54.4338L242.082 44.0788C242.082 44.1597 242.161 44.1597 242.161 44.2406L224.836 54.5956C224.758 54.5147 224.758 54.4338 224.758 54.4338Z" fill="#F6504E"/>
<path d="M224.838 54.5956L242.162 44.2406C242.162 44.3215 242.241 44.3215 242.241 44.4024L224.916 54.7574C224.838 54.6765 224.838 54.6765 224.838 54.5956Z" fill="#FA6160"/>
<path d="M224.918 54.7574L242.243 44.4024C242.243 44.4833 242.321 44.5642 242.321 44.5642L224.996 54.9192C224.918 54.9192 224.918 54.8383 224.918 54.7574Z" fill="#FB6967"/>
<path d="M224.992 54.9192L242.317 44.5642C242.317 44.6451 242.395 44.726 242.395 44.8069L225.071 55.1619C225.071 55.081 224.992 55.0001 224.992 54.9192Z" fill="#FD6E6C"/>
<path d="M225.076 55.1619L242.401 44.8069C242.479 44.8878 242.479 45.0496 242.558 45.1305L225.233 55.4855C225.233 55.4046 225.155 55.2428 225.076 55.1619Z" fill="#FE7372"/>
<path d="M225.232 55.4855L242.557 45.1305C242.635 45.2923 242.714 45.4541 242.792 45.535L225.546 55.89C225.389 55.8091 225.311 55.6473 225.232 55.4855Z" fill="#FF7676"/>
<path d="M225.545 55.89L242.87 45.535C242.948 45.6159 243.026 45.7777 243.105 45.8586L225.702 56.2136C225.623 56.1327 225.623 56.0518 225.545 55.89Z" fill="#FE7372"/>
<path d="M225.701 56.2135L243.026 45.8586C243.104 45.9394 243.104 46.0203 243.183 46.1012L225.858 56.4562C225.858 56.3753 225.78 56.2944 225.701 56.2135Z" fill="#FD6E6C"/>
<path d="M225.857 56.4562L243.182 46.1013C243.26 46.1822 243.26 46.1822 243.339 46.2631L226.014 56.618C226.014 56.5371 225.936 56.5371 225.857 56.4562Z" fill="#FB6967"/>
<path d="M226.014 56.618L243.338 46.2631C243.417 46.344 243.417 46.344 243.495 46.4249L226.17 56.7798C226.092 56.699 226.092 56.6989 226.014 56.618Z" fill="#FA6160"/>
<path d="M226.172 56.7799L243.496 46.4249C243.575 46.5058 243.575 46.5058 243.653 46.5867L226.329 56.9417C226.25 56.8608 226.172 56.8608 226.172 56.7799Z" fill="#F6504E"/>
<path d="M226.326 56.9416L243.572 46.5866C243.651 46.6675 243.651 46.6675 243.729 46.7484L226.405 57.1034C226.405 57.0225 226.326 57.0225 226.326 56.9416Z" fill="#F24E4D"/>
<path d="M226.406 57.1034L243.731 46.7484C243.809 46.8293 243.809 46.8293 243.888 46.9102L226.563 57.2652C226.563 57.1843 226.485 57.1843 226.406 57.1034Z" fill="#ED4D4B"/>
<path d="M226.561 57.2652L243.885 46.9102C243.964 46.9911 243.964 46.9911 244.042 47.072L226.717 57.427C226.717 57.3461 226.639 57.2652 226.561 57.2652Z" fill="#E94B4A"/>
<path d="M226.719 57.427L244.043 47.072C244.122 47.1529 244.122 47.1529 244.2 47.2338L226.876 57.5079C226.876 57.5079 226.797 57.427 226.719 57.427Z" fill="#E44A49"/>
<path d="M226.875 57.5079L244.2 47.153C244.278 47.2339 244.278 47.2339 244.356 47.3148L227.032 57.6697C226.953 57.5888 226.953 57.5888 226.875 57.5079Z" fill="#E04948"/>
<path d="M227.037 57.6697L244.362 47.3148C244.44 47.3957 244.44 47.3957 244.518 47.3957L227.194 57.7506C227.115 57.7506 227.116 57.6697 227.037 57.6697Z" fill="#DB4746"/>
<path d="M227.191 57.7506L244.516 47.3957C244.594 47.3957 244.594 47.4766 244.673 47.4766L227.348 57.9124C227.27 57.8315 227.27 57.8315 227.191 57.7506Z" fill="#D74644"/>
<path d="M227.348 57.9125L244.672 47.5575C244.751 47.5575 244.751 47.6384 244.829 47.6384L227.504 57.9934C227.426 57.9934 227.426 57.9125 227.348 57.9125Z" fill="#D24443"/>
<path d="M227.504 57.9934L244.829 47.6384C244.907 47.6384 244.907 47.7193 244.985 47.7193L227.661 58.0743C227.582 58.0743 227.504 57.9934 227.504 57.9934Z" fill="#CE4241"/>
<path d="M227.658 58.0742L244.904 47.7192H244.983L227.658 58.0742Z" fill="#C94240"/>
<path d="M227.66 58.0742L244.985 47.7192L245.063 47.8001L227.817 58.1551C227.739 58.1551 227.739 58.1551 227.66 58.0742Z" fill="#C94240"/>
<path d="M227.816 58.1551L245.141 47.8001C245.219 47.8001 245.219 47.881 245.298 47.881L227.895 58.236L227.816 58.1551Z" fill="#C5403F"/>
<path d="M227.896 58.236L245.221 47.881C245.299 47.881 245.299 47.9619 245.378 47.9619L228.053 58.3169C228.053 58.3169 227.975 58.236 227.896 58.236Z" fill="#C03E3D"/>
<path d="M228.053 58.3169L245.377 47.9619C245.456 47.9619 245.456 48.0428 245.534 48.0428L228.21 58.3978C228.131 58.3169 228.131 58.3169 228.053 58.3169Z" fill="#BC3D3C"/>
<path d="M228.207 58.3978L245.532 48.0428C245.61 48.0428 245.61 48.0428 245.688 48.1237L228.364 58.3978C228.285 58.3978 228.285 58.3978 228.207 58.3978Z" fill="#B83B3A"/>
<path d="M228.367 58.3978L245.692 48.0428C245.77 48.0428 245.77 48.0428 245.849 48.1237L228.524 58.4787C228.446 58.4787 228.367 58.4787 228.367 58.3978Z" fill="#B33A3A"/>
<path d="M228.525 58.4787L245.85 48.1237C245.928 48.1237 245.928 48.1237 246.007 48.2046L228.604 58.4787H228.525Z" fill="#AF3937"/>
<path d="M228.602 58.4787L245.926 48.1237C246.005 48.1237 246.005 48.1237 246.083 48.1237L228.758 58.5596C228.758 58.5596 228.68 58.5596 228.602 58.4787Z" fill="#AA3736"/>
<path d="M228.758 58.5596L246.082 48.2046C246.161 48.2046 246.161 48.2046 246.239 48.2046L228.915 58.5596C228.915 58.5596 228.836 58.5596 228.758 58.5596Z" fill="#A63535"/>
<path d="M228.916 58.5596L246.241 48.2046C246.319 48.2046 246.319 48.2046 246.397 48.2046L229.073 58.5596C228.994 58.5596 228.994 58.5596 228.916 58.5596Z" fill="#A13433"/>
<path d="M229.072 58.5596L246.397 48.2046C246.475 48.2046 246.475 48.2046 246.554 48.2046L229.229 58.5596C229.229 58.5596 229.151 58.5596 229.072 58.5596Z" fill="#9D3232"/>
<path d="M229.229 58.5596L246.553 48.2046C246.632 48.2046 246.71 48.2046 246.71 48.2046L229.464 58.5596C229.385 58.5596 229.307 58.5596 229.229 58.5596Z" fill="#983231"/>
<path d="M229.463 58.5596L246.787 48.2046C246.866 48.2046 246.944 48.2046 247.023 48.2046L229.62 58.5596C229.541 58.5596 229.463 58.5596 229.463 58.5596Z" fill="#94302E"/>
<path d="M229.621 58.5596L246.946 48.2046C247.024 48.2046 247.102 48.1237 247.181 48.1237L229.856 58.4787C229.778 58.4787 229.699 58.5596 229.621 58.5596Z" fill="#8F2E2E"/>
<path d="M229.855 58.4787L247.18 48.1237C247.258 48.1237 247.337 48.0428 247.494 47.9619L230.169 58.3169C230.091 58.3978 230.012 58.4787 229.855 58.4787Z" fill="#8B2D2C"/>
<path d="M244.121 94.802L261.446 84.447C261.524 84.5279 261.681 84.6088 261.759 84.6088L244.435 94.9638C244.356 94.9638 244.278 94.8829 244.121 94.802Z" fill="#CAA488"/>
<path d="M244.514 94.9638L261.838 84.6088C261.995 84.6897 262.152 84.7706 262.23 84.8515L244.906 95.2065C244.749 95.1256 244.592 95.0447 244.514 94.9638Z" fill="#C5A085"/>
<path d="M244.902 95.2065L262.227 84.8516C262.384 84.9325 262.541 85.0134 262.619 85.0943L245.294 95.4492C245.138 95.3683 245.059 95.2874 244.902 95.2065Z" fill="#C09C81"/>
<path d="M245.297 95.4492L262.621 85.0942C262.778 85.1751 262.935 85.256 263.013 85.256L245.689 95.611C245.61 95.5301 245.454 95.4492 245.297 95.4492Z" fill="#BB987E"/>
<path d="M245.768 95.611L263.092 85.256C263.249 85.3369 263.406 85.3369 263.484 85.4178L246.16 95.7728C246.003 95.6919 245.846 95.6919 245.768 95.611Z" fill="#B6947A"/>
<path d="M246.16 95.7728L263.485 85.4178C263.642 85.4987 263.798 85.4987 263.877 85.5796L246.552 95.9346C246.395 95.8537 246.317 95.8537 246.16 95.7728Z" fill="#B19077"/>
<path d="M246.549 95.9346L263.873 85.5796C264.03 85.6605 264.187 85.6605 264.265 85.7414L246.941 96.0964C246.862 96.0155 246.706 95.9346 246.549 95.9346Z" fill="#AC8B74"/>
<path d="M247.02 96.0155L264.344 85.6605C264.501 85.6605 264.658 85.7414 264.736 85.7414L247.411 96.0964C247.255 96.0964 247.176 96.0964 247.02 96.0155Z" fill="#A78770"/>
<path d="M247.414 96.0964L264.739 85.7414C264.895 85.7414 265.052 85.8223 265.209 85.8223L247.884 96.1773C247.728 96.1773 247.571 96.1773 247.414 96.0964Z" fill="#A2836D"/>
<path d="M247.885 96.1773L265.209 85.8223C265.366 85.8223 265.523 85.8223 265.68 85.9032L248.355 96.2582C248.198 96.2582 248.042 96.2582 247.885 96.1773Z" fill="#9D7F69"/>
<path d="M248.355 96.2582L265.68 85.9032C265.837 85.9032 265.994 85.9032 266.15 85.9032L248.826 96.2582C248.669 96.2582 248.512 96.2582 248.355 96.2582Z" fill="#987B66"/>
<path d="M248.824 96.2582L266.149 85.9032C266.306 85.9032 266.541 85.9032 266.698 85.9032L249.373 96.2582C249.216 96.2582 249.059 96.2582 248.824 96.2582Z" fill="#937763"/>
<path d="M249.373 96.2582L266.698 85.9032C266.933 85.9032 267.09 85.8223 267.325 85.8223L250 96.1773C249.765 96.1773 249.608 96.2582 249.373 96.2582Z" fill="#8E735F"/>
<path d="M250 96.1773L267.325 85.8223C267.56 85.7414 267.795 85.6605 268.03 85.5796L250.706 95.9346C250.47 96.0155 250.235 96.0964 250 96.1773Z" fill="#896F5C"/>
<path d="M250.703 95.9346L268.028 85.5796C268.341 85.4987 268.576 85.3369 268.89 85.1751L251.565 95.5301C251.33 95.6919 251.017 95.8537 250.703 95.9346Z" fill="#846B58"/>
<path d="M167.143 82.0201L184.389 71.6651L305.191 143.584L287.866 153.939L167.143 82.0201Z" fill="#DCDCDC"/>
<path d="M287.865 153.939L305.19 143.584L304.641 335.636L287.395 345.991L287.865 153.939Z" fill="#C5C5C5"/>
<path d="M254.627 88.6538L271.952 78.2988L254.627 88.6538Z" fill="#5F53A1"/>
<path d="M254.627 88.6538L271.952 78.2988C271.952 78.4606 271.952 78.6224 271.952 78.7842L254.627 89.1392C254.627 89.0583 254.627 88.8156 254.627 88.6538Z" fill="#5C519C"/>
<path d="M254.627 89.2201L271.952 78.8651C271.952 79.0269 271.952 79.1887 271.952 79.3505L254.627 89.7055C254.627 89.5437 254.627 89.3819 254.627 89.2201Z" fill="#5A4E98"/>
<path d="M254.627 89.7054L271.952 79.3505C271.952 79.5123 271.952 79.6741 271.873 79.8359L254.549 90.1908C254.549 90.029 254.549 89.8672 254.627 89.7054Z" fill="#574C93"/>
<path d="M254.545 90.1908L271.87 79.8358C271.87 79.9976 271.791 80.1594 271.791 80.3212L254.467 90.6762C254.467 90.5144 254.545 90.3526 254.545 90.1908Z" fill="#544A8F"/>
<path d="M254.473 90.7571L271.798 80.4021C271.798 80.5639 271.719 80.7257 271.719 80.8875L254.395 91.2425C254.395 91.0807 254.473 90.9189 254.473 90.7571Z" fill="#52478A"/>
<path d="M254.389 91.2425L271.714 80.8875C271.635 81.0493 271.635 81.292 271.557 81.4538L254.232 91.8088C254.311 91.647 254.311 91.4043 254.389 91.2425Z" fill="#4F4586"/>
<path d="M254.233 91.8088L271.558 81.4538C271.479 81.6156 271.479 81.8583 271.401 82.0201L254.076 92.3751C254.076 92.1324 254.155 91.9706 254.233 91.8088Z" fill="#4D4381"/>
<path d="M254.075 92.3751L271.4 82.0201C271.321 82.2628 271.243 82.4246 271.164 82.6673L253.84 93.0223C253.918 92.7796 253.997 92.5369 254.075 92.3751Z" fill="#4A407D"/>
<path d="M253.763 92.9414L271.088 82.5864C270.931 82.8291 270.852 83.0718 270.696 83.3145L253.371 93.6695C253.528 93.5077 253.685 93.1841 253.763 92.9414Z" fill="#473E78"/>
<path d="M253.371 93.6695L270.696 83.3145C270.226 84.1235 269.598 84.6898 268.893 85.1751L251.568 95.5301C252.274 95.1256 252.901 94.4785 253.371 93.6695Z" fill="#453C74"/>
<path d="M227.738 41.5709L245.063 31.2159L245.141 31.2968L227.817 41.6518L227.738 41.5709Z" fill="#C94240"/>
<path d="M227.816 41.6519L245.141 31.2969C245.298 31.3778 245.455 31.4587 245.611 31.5396L228.287 41.8946C228.13 41.8137 227.973 41.7328 227.816 41.6519Z" fill="#CE4241"/>
<path d="M228.285 41.8945L245.61 31.5396C245.767 31.6204 245.923 31.7013 246.08 31.8631L228.677 42.2181C228.52 42.1372 228.442 42.0563 228.285 41.8945Z" fill="#D24443"/>
<path d="M228.68 42.2181L246.004 31.8631C246.161 31.944 246.318 32.1058 246.475 32.1867L229.15 42.5417C228.993 42.4608 228.836 42.299 228.68 42.2181Z" fill="#D74644"/>
<path d="M229.15 42.5417L246.475 32.1867C246.632 32.2676 246.789 32.4294 246.945 32.5103L229.621 42.9462C229.464 42.7844 229.307 42.7035 229.15 42.5417Z" fill="#DB4746"/>
<path d="M229.619 42.9462L246.944 32.5912C247.101 32.753 247.257 32.8339 247.414 32.9957L230.089 43.3507C229.933 43.1889 229.776 43.0271 229.619 42.9462Z" fill="#E04948"/>
<path d="M230.088 43.3507L247.413 32.9957C247.569 33.1575 247.726 33.2384 247.883 33.4002L230.558 43.7552C230.401 43.5934 230.245 43.4316 230.088 43.3507Z" fill="#E44A49"/>
<path d="M230.564 43.7552L247.889 33.4002C248.046 33.562 248.203 33.7238 248.359 33.8047L231.035 44.1597C230.878 43.9979 230.721 43.8361 230.564 43.7552Z" fill="#E94B4A"/>
<path d="M231.031 44.1596L248.356 33.8047C248.513 33.9665 248.669 34.1283 248.826 34.29L231.502 44.645C231.345 44.4832 231.188 44.3214 231.031 44.1596Z" fill="#ED4D4B"/>
<path d="M231.422 44.6451L248.746 34.2901C248.903 34.4519 249.06 34.6137 249.138 34.7755L231.814 45.1304C231.735 44.8878 231.579 44.8069 231.422 44.6451Z" fill="#F24E4D"/>
<path d="M231.893 45.0496L249.217 34.6946C249.374 34.8564 249.452 35.0182 249.609 35.18L232.285 45.535C232.128 45.3732 232.049 45.2114 231.893 45.0496Z" fill="#F6504E"/>
<path d="M232.287 45.535L249.612 35.18C249.768 35.3418 249.847 35.5036 250.004 35.6654L232.679 46.0204C232.522 45.8586 232.444 45.6968 232.287 45.535Z" fill="#FA6160"/>
<path d="M232.678 46.0204L250.002 35.6654C250.159 35.8272 250.238 35.989 250.394 36.1508L233.07 46.5867C232.991 46.344 232.835 46.1822 232.678 46.0204Z" fill="#FB6967"/>
<path d="M233.07 46.5866L250.395 36.2317C250.552 36.4744 250.708 36.6361 250.865 36.8788L233.541 47.2338C233.384 46.9911 233.227 46.7484 233.07 46.5866Z" fill="#FD6E6C"/>
<path d="M233.539 47.1529L250.864 36.7979C251.099 37.1215 251.334 37.4451 251.491 37.7687L234.166 48.1237C234.009 47.8001 233.774 47.4765 233.539 47.1529Z" fill="#FE7372"/>
<path d="M234.244 48.1237L251.569 37.7687C251.804 38.1732 252.117 38.5777 252.353 39.0631L235.028 49.4181C234.714 49.0136 234.479 48.5282 234.244 48.1237Z" fill="#FF7676"/>
<path d="M235.029 49.4181L252.354 39.0631C252.511 39.3867 252.667 39.7103 252.903 40.0339L235.578 50.3889C235.343 50.0653 235.186 49.7417 235.029 49.4181Z" fill="#FE7372"/>
<path d="M235.5 50.3889L252.825 40.0339C252.903 40.2766 253.06 40.4384 253.138 40.6811L235.814 51.036C235.735 50.7934 235.657 50.5507 235.5 50.3889Z" fill="#FD6E6C"/>
<path d="M235.814 51.036L253.139 40.681C253.217 40.8428 253.296 41.0855 253.374 41.2473L236.05 51.6023C236.05 51.3596 235.893 51.1978 235.814 51.036Z" fill="#FB6967"/>
<path d="M236.125 51.6023L253.45 41.2473C253.528 41.4091 253.606 41.5709 253.685 41.7327L236.36 52.0877C236.282 51.9259 236.203 51.7641 236.125 51.6023Z" fill="#FA6160"/>
<path d="M236.359 52.0877L253.684 41.7327C253.762 41.8945 253.841 42.0563 253.919 42.2181L236.595 52.5731C236.438 52.4113 236.359 52.2495 236.359 52.0877Z" fill="#F6504E"/>
<path d="M236.52 52.654L253.844 42.299C253.923 42.4608 254.001 42.6226 254.079 42.7844L236.755 53.1394C236.676 52.9776 236.598 52.8158 236.52 52.654Z" fill="#F24E4D"/>
<path d="M236.754 53.1394L254.079 42.7844C254.157 42.9462 254.235 43.108 254.235 43.3507L236.911 53.7057C236.911 53.463 236.832 53.3012 236.754 53.1394Z" fill="#ED4D4B"/>
<path d="M236.91 53.7057L254.235 43.3507C254.313 43.5125 254.392 43.7552 254.392 43.917L237.067 54.272C237.067 54.0293 236.989 53.8675 236.91 53.7057Z" fill="#E94B4A"/>
<path d="M237.146 54.191L254.471 43.8361C254.549 43.9979 254.628 44.2406 254.628 44.4023L237.303 54.7573C237.225 54.5955 237.146 54.4337 237.146 54.191Z" fill="#E44A49"/>
<path d="M237.303 54.7574L254.627 44.4024C254.706 44.5642 254.706 44.8069 254.784 44.9687L237.46 55.3236C237.381 55.1619 237.381 55.0001 237.303 54.7574Z" fill="#E04948"/>
<path d="M237.457 55.3237L254.782 44.9687C254.86 45.1305 254.86 45.3732 254.938 45.535L237.614 55.89C237.535 55.7282 237.535 55.5664 237.457 55.3237Z" fill="#DB4746"/>
<path d="M237.615 55.8899L254.94 45.5349C255.018 45.6967 255.018 45.9394 255.097 46.1012L237.772 56.4562C237.694 56.2944 237.615 56.1326 237.615 55.8899Z" fill="#D74644"/>
<path d="M237.693 56.4562L255.018 46.1012C255.096 46.263 255.096 46.5057 255.096 46.6675L237.772 57.0225C237.772 56.8607 237.772 56.6989 237.693 56.4562Z" fill="#D24443"/>
<path d="M237.852 57.0225L255.176 46.6675C255.176 46.8293 255.255 47.072 255.255 47.2338L237.93 57.5888C237.93 57.427 237.852 57.2652 237.852 57.0225Z" fill="#CE4241"/>
<path d="M237.93 57.5888L255.254 47.2338C255.254 47.3956 255.333 47.5574 255.333 47.8001L238.008 58.1551C238.008 57.9933 237.93 57.7506 237.93 57.5888Z" fill="#C94240"/>
<path d="M238.008 58.1551L255.332 47.8001C255.332 47.9619 255.411 48.1237 255.411 48.3664L238.086 58.7214C238.086 58.4787 238.008 58.3169 238.008 58.1551Z" fill="#C5403F"/>
<path d="M238.086 58.6405L255.411 48.2855C255.411 48.4473 255.411 48.6091 255.489 48.7709L238.164 59.1259C238.086 59.045 238.086 58.8832 238.086 58.6405Z" fill="#C03E3D"/>
<path d="M238.086 59.2068L255.411 48.8518C255.411 49.0136 255.411 49.1754 255.411 49.3372L238.086 59.6922C238.086 59.5304 238.086 59.3686 238.086 59.2068Z" fill="#BC3D3C"/>
<path d="M238.164 59.6922L255.489 49.3372C255.489 49.499 255.489 49.6608 255.489 49.8226L238.164 60.1776C238.164 60.0158 238.164 59.854 238.164 59.6922Z" fill="#B83B3A"/>
<path d="M238.164 60.2585L255.489 49.9035C255.489 50.0653 255.489 50.2271 255.489 50.3889L238.164 60.7439C238.164 60.5821 238.164 60.4203 238.164 60.2585Z" fill="#B33A3A"/>
<path d="M238.086 60.7438L255.411 50.3889C255.411 50.5507 255.411 50.7124 255.411 50.8742L238.086 61.2292C238.086 61.0674 238.086 60.9056 238.086 60.7438Z" fill="#AF3937"/>
<path d="M238.086 61.2292L255.411 50.8742C255.411 51.036 255.411 51.1978 255.332 51.3596L238.008 61.7146C238.086 61.6337 238.086 61.4719 238.086 61.2292Z" fill="#AA3736"/>
<path d="M238.008 61.7955L255.333 51.4405C255.333 51.6023 255.254 51.7641 255.254 51.9259L237.93 62.2809C238.008 62.1191 238.008 61.9573 238.008 61.7955Z" fill="#A63535"/>
<path d="M237.93 62.2809L255.255 51.9259C255.255 52.0877 255.176 52.2495 255.176 52.4922L237.852 62.8472C237.93 62.6854 237.93 62.4427 237.93 62.2809Z" fill="#A13433"/>
<path d="M237.85 62.8472L255.175 52.4922C255.096 52.654 255.096 52.8967 255.018 53.0585L237.693 63.4135C237.772 63.1708 237.85 63.009 237.85 62.8472Z" fill="#9D3232"/>
<path d="M237.694 63.3326L255.019 52.9776C254.94 53.1394 254.94 53.3821 254.862 53.5439L237.537 63.8989C237.616 63.7371 237.694 63.5753 237.694 63.3326Z" fill="#983231"/>
<path d="M237.538 63.8989L254.863 53.5439C254.784 53.7865 254.706 53.9483 254.627 54.191L237.303 64.546C237.381 64.3842 237.46 64.1415 237.538 63.8989Z" fill="#94302E"/>
<path d="M237.302 64.546L254.627 54.1911C254.47 54.4338 254.313 54.6765 254.235 54.9192L236.91 65.2741C237.067 65.0314 237.145 64.7887 237.302 64.546Z" fill="#8F2E2E"/>
<path d="M236.911 65.2741L254.235 54.9192C254.157 55.0001 254.079 55.081 254 55.1619C253.53 55.809 252.981 56.3753 252.354 56.6989L235.029 67.0539C235.656 66.6494 236.205 66.164 236.676 65.5168C236.754 65.4359 236.832 65.355 236.911 65.2741Z" fill="#8B2D2C"/>
<path d="M227.739 41.571C233.54 45.0496 238.165 53.3821 238.165 60.1776C238.165 62.4427 237.616 64.2225 236.754 65.5169C234.951 68.1056 231.58 68.591 227.66 66.3258C223.819 64.0607 220.448 59.5304 218.645 54.7574C217.705 52.4113 217.234 49.9844 217.234 47.7192C217.234 40.9238 221.938 38.1732 227.739 41.571ZM227.66 58.0742C229.62 59.2068 231.188 58.3169 231.188 56.0518C231.188 53.7866 229.62 50.9552 227.739 49.8226C225.779 48.69 224.211 49.5799 224.211 51.9259C224.211 54.1911 225.779 56.9416 227.66 58.0742Z" fill="#F74D46"/>
<path d="M244.199 70.0471C249.922 73.4449 254.625 81.8583 254.625 88.6537C254.625 95.4492 249.922 98.1998 244.121 94.802L211.039 75.0628C205.317 71.6651 200.613 63.2517 200.613 56.4562C200.613 49.6608 205.317 46.8293 211.118 50.3079L218.643 54.7574C220.446 59.5304 223.817 64.0607 227.658 66.3258C231.5 68.6719 234.949 68.1865 236.752 65.5168L244.199 70.0471Z" fill="#F74D46"/>
<path d="M292.098 110.982C297.899 114.379 302.524 122.712 302.524 129.588L301.818 360.877C301.818 367.753 297.115 370.504 291.314 367.025L162.516 290.252C156.715 286.774 152.09 278.441 152.09 271.646L152.717 40.3575C152.717 33.4812 157.42 30.7306 163.221 34.2092L200.693 56.5372C200.693 63.3326 205.396 71.7461 211.119 75.1438L244.2 94.883C249.923 98.2807 254.705 95.5302 254.705 88.7347L292.098 110.982ZM287.394 345.991L287.943 153.939L167.141 82.0202L166.592 274.073L287.394 345.991Z" fill="#FDCDAA"/>
<path d="M287.868 153.939L287.398 345.991L166.596 274.073L167.144 82.0201L287.868 153.939Z" fill="white"/>
<path d="M220.291 40.8428L237.616 30.4878C237.851 30.326 238.164 30.1642 238.478 30.0833L221.153 40.4383C220.84 40.5192 220.526 40.681 220.291 40.8428Z" fill="#8B2D2C"/>
<path d="M221.156 40.4383L238.481 30.0833C238.716 30.0024 238.951 29.9215 239.186 29.8406L221.862 40.1956C221.627 40.2765 221.391 40.3574 221.156 40.4383Z" fill="#8F2E2E"/>
<path d="M221.859 40.1956L239.184 29.8406C239.341 29.7597 239.576 29.7597 239.811 29.7597L222.487 40.1147C222.251 40.1147 222.095 40.1956 221.859 40.1956Z" fill="#94302E"/>
<path d="M222.486 40.1147L239.811 29.7597C239.968 29.7597 240.203 29.7597 240.36 29.7597L223.035 40.1147C222.8 40.1147 222.643 40.1147 222.486 40.1147Z" fill="#983231"/>
<path d="M223.033 40.1147L240.358 29.7597C240.515 29.7597 240.671 29.7597 240.828 29.7597L223.504 40.1147C223.347 40.1147 223.19 40.1147 223.033 40.1147Z" fill="#9D3232"/>
<path d="M223.504 40.1147L240.829 29.7597C240.985 29.7597 241.142 29.7597 241.299 29.8406L223.974 40.1956C223.817 40.1147 223.661 40.1147 223.504 40.1147Z" fill="#A13433"/>
<path d="M223.975 40.1956L241.299 29.8406C241.456 29.8406 241.613 29.9215 241.77 29.9215L224.445 40.2765C224.288 40.1956 224.131 40.1956 223.975 40.1956Z" fill="#A63535"/>
<path d="M224.445 40.2765L241.77 29.9215C241.927 29.9215 242.083 30.0024 242.162 30.0024L224.837 40.3574C224.68 40.2765 224.524 40.2765 224.445 40.2765Z" fill="#AA3736"/>
<path d="M224.84 40.3574L242.164 30.0024C242.321 30.0024 242.478 30.0833 242.556 30.1642L225.31 40.4383C225.153 40.4383 224.997 40.3574 224.84 40.3574Z" fill="#AF3937"/>
<path d="M225.309 40.4383L242.633 30.0833C242.79 30.1642 242.947 30.1642 243.025 30.2451L225.701 40.6001C225.544 40.5192 225.387 40.5192 225.309 40.4383Z" fill="#B33A3A"/>
<path d="M225.699 40.6001L243.024 30.2451C243.181 30.326 243.337 30.326 243.416 30.4069L226.091 40.7619C226.013 40.681 225.856 40.681 225.699 40.6001Z" fill="#B83B3A"/>
<path d="M226.092 40.7619L243.416 30.4069C243.573 30.4878 243.73 30.4878 243.808 30.5687L226.562 40.9237C226.405 40.9237 226.249 40.8428 226.092 40.7619Z" fill="#BC3D3C"/>
<path d="M226.562 40.9237L243.887 30.5687C244.044 30.6496 244.201 30.7305 244.279 30.8114L226.954 41.1664C226.798 41.0855 226.641 41.0046 226.562 40.9237Z" fill="#C03E3D"/>
<path d="M226.955 41.1664L244.28 30.8114C244.436 30.8923 244.593 30.9732 244.672 31.0541L227.347 41.4091C227.269 41.3282 227.112 41.2473 226.955 41.1664Z" fill="#C5403F"/>
<path d="M227.346 41.4091L244.67 31.0541C244.749 31.135 244.905 31.2159 244.984 31.2159L227.738 41.5709C227.581 41.49 227.502 41.49 227.346 41.4091Z" fill="#C94240"/>
<path d="M236.754 65.5977L254 55.1618L261.526 59.6112L244.201 70.0471L236.754 65.5977Z" fill="#D74644"/>
<path d="M244.199 70.0472L261.524 59.6922L261.602 59.7731L244.278 70.0472C244.278 70.0472 244.278 70.0472 244.199 70.0472Z" fill="#C94240"/>
<path d="M244.277 70.0472L261.602 59.6922C261.759 59.7731 261.916 59.854 262.072 59.9349L244.748 70.2898C244.591 70.2898 244.434 70.2089 244.277 70.0472Z" fill="#CE4241"/>
<path d="M244.746 70.3708L262.071 60.0158C262.227 60.0967 262.384 60.1776 262.541 60.3394L245.216 70.6944C245.06 70.5326 244.903 70.4517 244.746 70.3708Z" fill="#D24443"/>
<path d="M245.221 70.6943L262.545 60.3393C262.702 60.4202 262.859 60.582 263.016 60.6629L245.691 71.0179C245.534 70.8561 245.377 70.7752 245.221 70.6943Z" fill="#D74644"/>
<path d="M245.611 71.0179L262.936 60.6629C263.093 60.7438 263.249 60.9056 263.406 60.9865L246.082 71.3415C245.925 71.2606 245.768 71.0988 245.611 71.0179Z" fill="#DB4746"/>
<path d="M246.08 71.3415L263.405 60.9865C263.561 61.1483 263.718 61.2292 263.875 61.391L246.55 71.746C246.394 71.5842 246.237 71.5033 246.08 71.3415Z" fill="#E04948"/>
<path d="M246.549 71.746L263.873 61.391C264.03 61.5528 264.187 61.6337 264.344 61.7955L247.019 72.1505C246.862 71.9887 246.706 71.9078 246.549 71.746Z" fill="#E44A49"/>
<path d="M247.025 72.1505L264.35 61.7955C264.507 61.9573 264.664 62.1191 264.82 62.2L247.496 72.555C247.339 72.4741 247.182 72.3123 247.025 72.1505Z" fill="#E94B4A"/>
<path d="M247.492 72.6359L264.817 62.2809C264.974 62.4427 265.13 62.6045 265.287 62.7663L247.963 73.1213C247.806 72.8786 247.649 72.7168 247.492 72.6359Z" fill="#ED4D4B"/>
<path d="M247.963 73.0404L265.287 62.6854C265.444 62.8472 265.601 63.009 265.679 63.1708L248.355 73.5258C248.198 73.364 248.041 73.2022 247.963 73.0404Z" fill="#F24E4D"/>
<path d="M248.354 73.5258L265.678 63.1708C265.835 63.3326 265.913 63.4944 266.07 63.6562L248.745 74.0112C248.589 73.8494 248.51 73.6876 248.354 73.5258Z" fill="#F6504E"/>
<path d="M248.748 74.0112L266.073 63.6562C266.229 63.818 266.308 63.9798 266.465 64.1416L249.14 74.4966C249.062 74.3348 248.905 74.173 248.748 74.0112Z" fill="#FA6160"/>
<path d="M249.139 74.4966L266.463 64.1416C266.62 64.3034 266.698 64.4652 266.855 64.627L249.531 74.982C249.452 74.8202 249.295 74.6584 249.139 74.4966Z" fill="#FB6967"/>
<path d="M249.531 74.9819L266.856 64.627C267.013 64.8696 267.169 65.0314 267.326 65.2741L250.002 75.6291C249.845 75.3864 249.688 75.2246 249.531 74.9819Z" fill="#FD6E6C"/>
<path d="M250 75.6291L267.325 65.2741C267.56 65.5977 267.795 65.9213 267.952 66.2449L250.627 76.5999C250.47 76.2763 250.235 75.9527 250 75.6291Z" fill="#FE7372"/>
<path d="M250.707 76.5999L268.032 66.2449C268.267 66.6494 268.58 67.1348 268.816 67.5393L251.491 77.8943C251.256 77.4089 250.942 77.0044 250.707 76.5999Z" fill="#FF7676"/>
<path d="M251.49 77.8943L268.815 67.5393C268.972 67.8629 269.128 68.1865 269.364 68.5101L252.039 78.865C251.804 78.5414 251.647 78.2179 251.49 77.8943Z" fill="#FE7372"/>
<path d="M251.961 78.8651L269.286 68.5101C269.364 68.7528 269.521 68.9146 269.599 69.1573L252.275 79.5122C252.196 79.2695 252.118 79.0269 251.961 78.8651Z" fill="#FD6E6C"/>
<path d="M252.352 79.5122L269.676 69.1573C269.755 69.3191 269.833 69.5618 269.911 69.7235L252.587 80.0785C252.508 79.8358 252.43 79.674 252.352 79.5122Z" fill="#FB6967"/>
<path d="M252.586 80.0786L269.911 69.7236C269.989 69.8854 270.067 70.0472 270.146 70.209L252.821 80.564C252.743 80.4022 252.664 80.2404 252.586 80.0786Z" fill="#FA6160"/>
<path d="M252.82 80.5639L270.145 70.2089C270.223 70.3707 270.302 70.5325 270.38 70.6943L253.055 81.0493C252.977 80.8875 252.899 80.7257 252.82 80.5639Z" fill="#F6504E"/>
<path d="M253.057 81.1302L270.381 70.7752C270.381 70.8561 270.46 71.0988 270.538 71.2606L253.213 81.6156C253.213 81.4538 253.135 81.292 253.057 81.1302Z" fill="#F24E4D"/>
<path d="M253.215 81.6157L270.539 71.2607C270.618 71.4225 270.696 71.5843 270.696 71.827L253.45 82.182C253.372 81.9393 253.293 81.7775 253.215 81.6157Z" fill="#ED4D4B"/>
<path d="M253.447 82.1819L270.772 71.8269C270.85 71.9887 270.929 72.2314 270.929 72.3932L253.604 82.7482C253.526 82.5055 253.526 82.3437 253.447 82.1819Z" fill="#E94B4A"/>
<path d="M253.607 82.6673L270.932 72.3123C271.01 72.4741 271.089 72.7168 271.089 72.8786L253.764 83.2336C253.764 83.0718 253.686 82.91 253.607 82.6673Z" fill="#E44A49"/>
<path d="M253.764 83.2336L271.088 72.8786C271.167 73.0404 271.167 73.2831 271.245 73.4449L253.92 83.7998C253.92 83.6381 253.842 83.4763 253.764 83.2336Z" fill="#E04948"/>
<path d="M253.918 83.7999L271.243 73.4449C271.321 73.6067 271.321 73.8494 271.399 74.0112L254.075 84.3662C254.075 84.2044 253.996 84.0426 253.918 83.7999Z" fill="#DB4746"/>
<path d="M254.078 84.3661L271.403 74.0111C271.481 74.1729 271.481 74.4156 271.56 74.5774L254.235 84.9324C254.157 84.7706 254.157 84.6088 254.078 84.3661Z" fill="#D74644"/>
<path d="M254.236 84.9324L271.561 74.5775C271.639 74.7393 271.639 74.9819 271.639 75.1437L254.315 85.4987C254.315 85.3369 254.236 85.1751 254.236 84.9324Z" fill="#D24443"/>
<path d="M254.312 85.4987L271.637 75.1437C271.637 75.3055 271.716 75.4673 271.716 75.71L254.391 86.065C254.391 85.9032 254.391 85.7414 254.312 85.4987Z" fill="#CE4241"/>
<path d="M254.469 86.065L271.793 75.7101C271.793 75.8718 271.872 76.0336 271.872 76.2763L254.547 86.6313C254.469 86.4695 254.469 86.2268 254.469 86.065Z" fill="#C94240"/>
<path d="M254.469 86.6313L271.793 76.2763C271.793 76.4381 271.872 76.5999 271.872 76.7617L254.547 87.1167C254.547 86.9549 254.547 86.7931 254.469 86.6313Z" fill="#C5403F"/>
<path d="M254.547 87.1167L271.871 76.7617C271.871 76.9235 271.871 77.0853 271.95 77.2471L254.625 87.6021C254.625 87.4403 254.547 87.2785 254.547 87.1167Z" fill="#C03E3D"/>
<path d="M254.625 87.683L271.95 77.328C271.95 77.4898 271.95 77.6516 271.95 77.8134L254.625 88.1684C254.625 88.0066 254.625 87.8448 254.625 87.683Z" fill="#BC3D3C"/>
<path d="M254.625 88.1684L271.95 77.8134C271.95 77.9752 271.95 78.137 271.95 78.2988L254.625 88.6538C254.625 88.492 254.625 88.3302 254.625 88.1684Z" fill="#B83B3A"/>
<path d="M302.447 129.588L319.772 119.152L319.145 350.441L301.82 360.877L302.447 129.588Z" fill="#C39E83"/>
<path d="M254.625 88.6538L271.95 78.2988L309.343 100.546L292.096 110.982L254.625 88.6538Z" fill="#DAB193"/>
<path d="M292.096 110.982L309.42 100.627L309.499 100.708L292.174 111.063C292.174 110.982 292.096 110.982 292.096 110.982Z" fill="#CAA488"/>
<path d="M292.174 110.982L309.498 100.627C309.655 100.708 309.812 100.789 309.969 100.869L292.644 111.305C292.487 111.224 292.331 111.144 292.174 110.982Z" fill="#CFA88B"/>
<path d="M292.643 111.305L309.967 100.95C310.124 101.031 310.281 101.112 310.438 101.274L293.113 111.629C292.878 111.467 292.799 111.386 292.643 111.305Z" fill="#D5AC8F"/>
<path d="M293.037 111.629L310.362 101.274C310.518 101.355 310.675 101.517 310.832 101.598L293.507 111.952C293.351 111.791 293.194 111.71 293.037 111.629Z" fill="#DAB092"/>
<path d="M293.508 111.952L310.832 101.598C310.989 101.678 311.146 101.84 311.303 101.921L293.978 112.276C293.821 112.195 293.665 112.033 293.508 111.952Z" fill="#DFB496"/>
<path d="M293.977 112.276L311.301 101.921C311.458 102.083 311.615 102.164 311.772 102.326L294.447 112.681C294.29 112.519 294.133 112.438 293.977 112.276Z" fill="#E4B999"/>
<path d="M294.445 112.681L311.77 102.326C311.927 102.487 312.083 102.568 312.24 102.73L294.916 113.085C294.759 113.004 294.602 112.842 294.445 112.681Z" fill="#E9BD9C"/>
<path d="M294.922 113.085L312.246 102.73C312.403 102.892 312.56 103.054 312.717 103.135L295.392 113.49C295.235 113.409 295.079 113.247 294.922 113.085Z" fill="#EEC1A0"/>
<path d="M295.389 113.57L312.713 103.215C312.87 103.377 313.027 103.539 313.184 103.701L295.859 114.056C295.624 113.813 295.545 113.732 295.389 113.57Z" fill="#F3C5A3"/>
<path d="M295.779 113.975L313.104 103.62C313.261 103.782 313.417 103.944 313.496 104.105L296.171 114.46C296.093 114.299 295.936 114.137 295.779 113.975Z" fill="#F8C9A7"/>
<path d="M296.25 114.46L313.575 104.105C313.731 104.267 313.81 104.429 313.967 104.591L296.642 114.946C296.485 114.784 296.407 114.622 296.25 114.46Z" fill="#FDCDAA"/>
<path d="M296.645 114.946L313.969 104.591C314.126 104.753 314.204 104.914 314.361 105.076L297.036 115.431C296.88 115.269 296.801 115.108 296.645 114.946Z" fill="#FDD3B4"/>
<path d="M297.035 115.431L314.36 105.076C314.517 105.238 314.595 105.4 314.752 105.562L297.427 115.917C297.349 115.755 297.192 115.593 297.035 115.431Z" fill="#FDD5B8"/>
<path d="M297.428 115.917L314.752 105.562C314.909 105.804 315.066 105.966 315.223 106.209L297.898 116.564C297.741 116.321 297.585 116.159 297.428 115.917Z" fill="#FDD7BC"/>
<path d="M297.896 116.564L315.221 106.209C315.456 106.532 315.691 106.856 315.848 107.179L298.524 117.534C298.367 117.211 298.132 116.887 297.896 116.564Z" fill="#FDD9BE"/>
<path d="M298.604 117.535L315.928 107.18C316.163 107.584 316.477 107.989 316.712 108.474L299.387 118.829C299.074 118.343 298.839 117.939 298.604 117.535Z" fill="#FEDAC1"/>
<path d="M299.307 118.829L316.631 108.474C316.788 108.797 316.945 109.121 317.18 109.445L299.855 119.8C299.699 119.395 299.542 119.072 299.307 118.829Z" fill="#FDD9BE"/>
<path d="M299.857 119.719L317.182 109.364C317.26 109.606 317.417 109.768 317.496 110.011L300.171 120.366C300.093 120.204 299.936 119.961 299.857 119.719Z" fill="#FDD7BC"/>
<path d="M300.172 120.366L317.496 110.011C317.575 110.173 317.653 110.415 317.732 110.577L300.407 120.932C300.329 120.77 300.25 120.609 300.172 120.366Z" fill="#FDD5B8"/>
<path d="M300.404 120.932L317.729 110.577C317.807 110.739 317.886 110.901 317.964 111.063L300.639 121.418C300.561 121.337 300.483 121.094 300.404 120.932Z" fill="#FDD3B4"/>
<path d="M300.639 121.498L317.963 111.143C318.042 111.305 318.12 111.467 318.198 111.629L300.874 121.984C300.795 121.822 300.717 121.66 300.639 121.498Z" fill="#FDCDAA"/>
<path d="M300.877 121.984L318.202 111.629C318.28 111.791 318.358 111.953 318.437 112.114L301.112 122.469C301.034 122.307 300.955 122.146 300.877 121.984Z" fill="#F8C9A7"/>
<path d="M301.111 122.55L318.436 112.195C318.514 112.357 318.593 112.519 318.593 112.761L301.268 123.116C301.19 122.874 301.19 122.712 301.111 122.55Z" fill="#F3C5A3"/>
<path d="M301.268 123.036L318.592 112.681C318.671 112.842 318.749 113.085 318.749 113.247L301.424 123.602C301.424 123.44 301.346 123.197 301.268 123.036Z" fill="#EEC1A0"/>
<path d="M301.504 123.602L318.829 113.247C318.907 113.409 318.985 113.651 318.985 113.813L301.661 124.168C301.582 123.925 301.504 123.764 301.504 123.602Z" fill="#E9BD9C"/>
<path d="M301.66 124.168L318.985 113.813C319.063 113.975 319.063 114.218 319.142 114.379L301.817 124.734C301.739 124.492 301.66 124.33 301.66 124.168Z" fill="#E4B999"/>
<path d="M301.814 124.734L319.139 114.379C319.217 114.541 319.217 114.784 319.296 114.946L301.971 125.301C301.893 125.058 301.814 124.896 301.814 124.734Z" fill="#DFB496"/>
<path d="M301.975 125.301L319.299 114.946C319.378 115.108 319.378 115.35 319.456 115.512L302.131 125.867C302.053 125.624 301.975 125.463 301.975 125.301Z" fill="#DAB092"/>
<path d="M302.051 125.867L319.375 115.512C319.454 115.674 319.454 115.917 319.454 116.078L302.129 126.433C302.129 126.191 302.129 126.029 302.051 125.867Z" fill="#D5AC8F"/>
<path d="M302.209 126.433L319.534 116.078C319.534 116.24 319.612 116.402 319.612 116.645L302.287 127C302.287 126.757 302.209 126.595 302.209 126.433Z" fill="#CFA88B"/>
<path d="M302.287 126.919L319.612 116.564C319.612 116.726 319.69 116.887 319.69 117.13L302.366 127.485C302.366 127.323 302.287 127.161 302.287 126.919Z" fill="#CAA488"/>
<path d="M302.365 127.485L319.69 117.13C319.69 117.292 319.768 117.454 319.768 117.696L302.444 128.051C302.365 127.809 302.365 127.647 302.365 127.485Z" fill="#C5A085"/>
<path d="M302.443 128.051L319.768 117.696C319.768 117.858 319.768 118.02 319.846 118.182L302.522 128.537C302.443 128.375 302.443 128.213 302.443 128.051Z" fill="#C09C81"/>
<path d="M302.443 128.537L319.768 118.182C319.768 118.343 319.768 118.505 319.768 118.667L302.443 129.022C302.443 128.86 302.443 128.698 302.443 128.537Z" fill="#BB987E"/>
<path d="M302.443 129.103L319.768 118.748C319.768 118.91 319.768 119.072 319.768 119.233L302.443 129.588C302.443 129.427 302.443 129.265 302.443 129.103Z" fill="#B6947A"/>
<path d="M269.757 166.721C271.639 167.853 273.207 170.685 273.207 172.95C273.207 175.215 271.639 176.105 269.679 174.972L184.389 124.087C182.507 122.955 180.939 120.123 180.939 117.858C180.939 115.593 182.507 114.703 184.467 115.836L269.757 166.721Z" fill="#F74D46"/>
<path d="M272.029 273.587C273.91 274.72 275.478 277.551 275.478 279.817C275.478 282.082 273.91 282.972 271.95 281.839L186.738 230.954C184.857 229.821 183.289 226.99 183.289 224.725C183.289 222.46 184.857 221.489 186.817 222.621L272.029 273.587Z" fill="#F74D46"/>
<path d="M271.324 237.992C273.205 239.125 274.773 241.956 274.773 244.221C274.773 246.486 273.205 247.376 271.245 246.244L185.955 195.359C184.074 194.226 182.506 191.395 182.506 189.13C182.506 186.864 184.074 185.975 186.033 187.107L271.324 237.992Z" fill="#F74D46"/>
<path d="M270.54 202.316C272.421 203.449 273.989 206.28 273.989 208.545C273.989 210.81 272.421 211.7 270.461 210.568L185.171 159.763C183.211 158.631 181.643 155.799 181.722 153.534C181.722 151.269 183.289 150.379 185.249 151.512L270.54 202.316Z" fill="#F74D46"/>
<path d="M272.816 309.183C274.697 310.315 276.265 313.147 276.265 315.412C276.265 317.677 274.697 318.567 272.738 317.434L187.447 266.63C185.566 265.498 183.998 262.666 183.998 260.401C183.998 258.136 185.566 257.165 187.526 258.298L272.816 309.183Z" fill="#F74D46"/>
<g opacity="0.3">
<path d="M359.672 381.434C326.277 384.427 290.06 379.573 278.772 370.512C267.483 361.452 285.435 351.663 318.83 348.67C352.225 345.677 388.442 350.53 399.73 359.591C410.94 368.571 392.989 378.36 359.672 381.434Z" fill="#A06944"/>
</g>
<path d="M254.711 269.551L264.118 263.888C261.374 265.506 259.023 267.852 257.22 270.846L247.812 276.508C249.616 273.515 251.967 271.169 254.711 269.551Z" fill="#E0AA36"/>
<path d="M247.814 276.508L257.221 270.846C256.672 271.735 256.202 272.706 255.731 273.677L246.324 279.34C246.716 278.369 247.265 277.398 247.814 276.508Z" fill="#E5AF37"/>
<path d="M246.322 279.34L255.729 273.677C255.415 274.405 255.101 275.214 254.788 276.023L245.381 281.686C245.616 280.877 245.93 280.068 246.322 279.34Z" fill="#EAB238"/>
<path d="M245.305 281.686L254.712 276.023C254.477 276.751 254.242 277.479 254.007 278.207L244.6 283.87C244.835 283.061 245.07 282.333 245.305 281.686Z" fill="#EFB73A"/>
<path d="M244.678 283.87L254.085 278.207C253.928 278.855 253.693 279.583 253.536 280.311L244.129 285.974C244.286 285.245 244.442 284.517 244.678 283.87Z" fill="#F4BA3B"/>
<path d="M244.13 285.974L253.537 280.311C253.38 280.958 253.224 281.605 253.145 282.333L243.738 287.996C243.817 287.268 243.973 286.621 244.13 285.974Z" fill="#F9BE3C"/>
<path d="M243.737 287.915L253.144 282.252C253.066 282.899 252.909 283.547 252.831 284.194L243.424 289.857C243.502 289.29 243.581 288.562 243.737 287.915Z" fill="#FFC23D"/>
<path d="M243.423 289.938L252.83 284.275C252.751 284.922 252.673 285.569 252.595 286.297L243.188 291.96C243.266 291.232 243.344 290.585 243.423 289.938Z" fill="#FFC23D"/>
<path d="M243.267 291.879L252.674 286.216C252.596 286.863 252.596 287.511 252.596 288.158L243.189 293.821C243.11 293.173 243.189 292.526 243.267 291.879Z" fill="#FFC23D"/>
<path d="M243.11 293.821L252.517 288.158C252.517 288.805 252.438 289.452 252.438 290.18L243.031 295.843C243.11 295.196 243.11 294.468 243.11 293.821Z" fill="#FFC23D"/>
<path d="M243.109 295.843L252.516 290.18V290.261C252.516 290.908 252.516 291.475 252.516 292.122L243.109 297.785C243.109 297.138 243.109 296.571 243.109 295.924V295.843Z" fill="#FFC23D"/>
<path d="M243.109 297.785L252.516 292.122C252.516 292.769 252.595 293.416 252.595 294.144L243.188 299.807C243.109 299.16 243.109 298.432 243.109 297.785Z" fill="#FFC33D"/>
<path d="M243.188 299.807L252.595 294.144C252.673 294.791 252.673 295.439 252.751 296.167L243.344 301.83C243.266 301.102 243.266 300.454 243.188 299.807Z" fill="#FFC23D"/>
<path d="M243.342 301.83L252.749 296.167C252.827 296.814 252.906 297.542 252.984 298.189L243.577 303.852C243.499 303.124 243.42 302.477 243.342 301.83Z" fill="#FFC33D"/>
<path d="M243.578 303.771L252.985 298.108C253.064 298.755 253.142 299.484 253.299 300.212L243.892 305.875C243.735 305.146 243.657 304.499 243.578 303.771Z" fill="#FFC23D"/>
<path d="M243.812 305.875L253.22 300.212C253.298 300.94 253.455 301.587 253.533 302.315L244.126 307.978C244.048 307.25 243.969 306.603 243.812 305.875Z" fill="#FFC33D"/>
<path d="M244.207 307.978L253.614 302.315C253.771 303.043 253.849 303.771 254.006 304.499L244.599 310.162C244.442 309.353 244.285 308.706 244.207 307.978Z" fill="#FFC23D"/>
<path d="M244.6 310.081L254.007 304.418C254.163 305.146 254.32 305.875 254.477 306.603L245.07 312.266C244.913 311.537 244.756 310.809 244.6 310.081Z" fill="#FFC33D"/>
<path d="M245.07 312.266L254.477 306.603C254.634 307.331 254.869 308.059 255.026 308.787L245.619 314.45C245.462 313.722 245.305 312.994 245.07 312.266Z" fill="#FFC23D"/>
<path d="M245.695 314.45L255.102 308.787C255.259 309.515 255.494 310.243 255.729 310.971L246.322 316.634C246.087 315.906 245.852 315.178 245.695 314.45Z" fill="#FFC23D"/>
<path d="M246.244 316.634L255.651 310.971C255.886 311.699 256.122 312.427 256.278 313.075L246.871 318.737C246.714 318.009 246.479 317.281 246.244 316.634Z" fill="#FFC23D"/>
<path d="M246.949 318.737L256.356 313.074C256.591 313.803 256.827 314.45 257.062 315.178L247.655 320.841C247.42 320.113 247.184 319.465 246.949 318.737Z" fill="#FFC33D"/>
<path d="M247.656 320.841L257.063 315.178C257.298 315.825 257.534 316.553 257.769 317.2L248.362 322.863C248.127 322.216 247.891 321.488 247.656 320.841Z" fill="#FFC23D"/>
<path d="M248.363 322.863L257.77 317.2C258.005 317.847 258.319 318.495 258.554 319.223L249.147 324.886C248.912 324.158 248.598 323.51 248.363 322.863Z" fill="#FFC33D"/>
<path d="M249.146 324.886L258.554 319.223C258.789 319.87 259.102 320.517 259.337 321.164L249.93 326.827C249.695 326.18 249.46 325.533 249.146 324.886Z" fill="#FFC23D"/>
<path d="M250.008 326.827L259.415 321.164C259.728 321.812 259.964 322.459 260.277 323.187L250.87 328.85C250.557 328.122 250.243 327.474 250.008 326.827Z" fill="#FFCC5B"/>
<path d="M250.869 328.769L260.276 323.106C260.59 323.834 260.982 324.562 261.295 325.29L251.888 330.953C251.496 330.225 251.183 329.497 250.869 328.769Z" fill="#FFD068"/>
<path d="M251.887 330.953L261.294 325.29C261.686 326.099 262.078 326.908 262.548 327.798L253.141 333.461C252.671 332.652 252.279 331.843 251.887 330.953Z" fill="#FFD372"/>
<path d="M253.068 333.461L262.475 327.798C263.103 329.012 263.73 330.225 264.435 331.438L255.028 337.101C254.401 335.888 253.774 334.674 253.068 333.461Z" fill="#FFD57A"/>
<path d="M255.105 337.02L264.512 331.358C265.453 332.975 266.472 334.674 267.491 336.211L258.084 341.874C256.987 340.337 256.046 338.719 255.105 337.02Z" fill="#FFD881"/>
<path d="M258.004 341.955L267.411 336.292C268.195 337.587 269.057 338.8 269.919 340.014L260.512 345.677C259.729 344.463 258.866 343.169 258.004 341.955Z" fill="#FFD57A"/>
<path d="M260.592 345.677L269.999 340.014C270.548 340.823 271.175 341.632 271.802 342.441L262.395 348.103C261.768 347.295 261.141 346.486 260.592 345.677Z" fill="#FFD372"/>
<path d="M262.314 348.023L271.721 342.36C272.192 343.007 272.741 343.654 273.289 344.301L263.882 349.964C263.334 349.398 262.863 348.67 262.314 348.023Z" fill="#FFD068"/>
<path d="M263.885 350.045L273.292 344.382C273.762 345.029 274.311 345.596 274.86 346.243L265.453 351.906C264.904 351.259 264.355 350.611 263.885 350.045Z" fill="#FFCC5B"/>
<path d="M265.371 351.906L274.778 346.243C275.327 346.809 275.797 347.456 276.346 348.023L266.939 353.685C266.469 353.038 265.92 352.472 265.371 351.906Z" fill="#FFC23D"/>
<path d="M266.939 353.605L276.346 347.942C276.895 348.508 277.444 349.155 277.993 349.721L268.586 355.384C268.037 354.818 267.488 354.252 266.939 353.605Z" fill="#FFC33D"/>
<path d="M268.588 355.384L277.995 349.721C278.544 350.288 279.092 350.854 279.641 351.42L270.234 357.083C269.685 356.598 269.137 356.031 268.588 355.384Z" fill="#FFC23D"/>
<path d="M270.311 357.164L279.718 351.501C280.266 352.067 280.893 352.634 281.442 353.2L272.035 358.863C271.408 358.297 270.859 357.73 270.311 357.164Z" fill="#FFC33D"/>
<path d="M272.037 358.782L281.444 353.119C281.993 353.685 282.62 354.171 283.247 354.737L273.84 360.4C273.213 359.915 272.586 359.348 272.037 358.782Z" fill="#FFC23D"/>
<path d="M273.84 360.4L283.247 354.737C283.796 355.223 284.423 355.708 285.05 356.193L275.643 361.856C275.016 361.452 274.389 360.885 273.84 360.4Z" fill="#FFC23D"/>
<path d="M275.564 361.937L284.971 356.274C285.52 356.76 286.147 357.245 286.696 357.649L277.289 363.312C276.74 362.827 276.192 362.342 275.564 361.937Z" fill="#FFC23D"/>
<path d="M277.365 363.312L286.772 357.649C287.321 358.054 287.948 358.539 288.497 358.944L279.09 364.607C278.463 364.121 277.914 363.717 277.365 363.312Z" fill="#FFC33D"/>
<path d="M279.094 364.526L288.501 358.863C289.05 359.267 289.598 359.672 290.225 359.996L280.818 365.658C280.191 365.335 279.642 364.93 279.094 364.526Z" fill="#FFC23D"/>
<path d="M280.736 365.739L290.143 360.076C290.692 360.481 291.241 360.805 291.868 361.128L282.461 366.791C281.912 366.467 281.285 366.063 280.736 365.739Z" fill="#FFC33D"/>
<path d="M282.465 366.791L291.872 361.128C292.029 361.209 292.107 361.29 292.264 361.371L282.857 367.034C282.7 366.953 282.543 366.872 282.465 366.791Z" fill="#FFC23D"/>
<path d="M282.854 367.034L292.261 361.371C292.653 361.614 293.123 361.856 293.515 362.099L284.108 367.762C283.716 367.519 283.245 367.276 282.854 367.034Z" fill="#FFC23D"/>
<path d="M284.109 367.762L293.516 362.099C294.065 362.422 294.614 362.665 295.163 362.989L285.756 368.652C285.207 368.328 284.658 368.085 284.109 367.762Z" fill="#FFC33D"/>
<path d="M285.752 368.652L295.159 362.989C295.708 363.232 296.256 363.555 296.805 363.798L287.398 369.461C286.849 369.137 286.301 368.894 285.752 368.652Z" fill="#FFC23D"/>
<path d="M287.322 369.38L296.729 363.717C297.278 363.96 297.827 364.202 298.297 364.445L288.89 370.108C288.42 369.865 287.871 369.622 287.322 369.38Z" fill="#FFC33D"/>
<path d="M288.969 370.108L298.376 364.445C298.925 364.688 299.473 364.849 300.022 365.092L290.615 370.755C289.988 370.512 289.517 370.351 288.969 370.108Z" fill="#FFC23D"/>
<path d="M290.533 370.755L299.94 365.092C300.489 365.254 301.038 365.497 301.508 365.658L292.101 371.321C291.631 371.079 291.082 370.917 290.533 370.755Z" fill="#FFC23D"/>
<path d="M292.184 371.24L301.591 365.578C302.139 365.739 302.688 365.901 303.237 366.063L293.83 371.726C293.281 371.564 292.732 371.402 292.184 371.24Z" fill="#FFC23D"/>
<path d="M293.828 371.726L303.235 366.063C303.784 366.225 304.333 366.306 304.881 366.467L295.474 372.13C294.926 371.969 294.377 371.888 293.828 371.726Z" fill="#FFC23D"/>
<path d="M295.398 372.13L304.805 366.467C305.433 366.548 305.981 366.71 306.53 366.791L297.123 372.454C296.574 372.292 296.026 372.211 295.398 372.13Z" fill="#FFC23D"/>
<path d="M297.199 372.373L306.606 366.71C307.233 366.791 307.782 366.872 308.409 366.872L299.002 372.535C298.375 372.535 297.748 372.454 297.199 372.373Z" fill="#F9BE3C"/>
<path d="M298.924 372.616L308.331 366.953C308.958 367.034 309.585 367.034 310.212 367.034L300.805 372.697C300.178 372.616 299.551 372.616 298.924 372.616Z" fill="#F4BA3B"/>
<path d="M300.807 372.616L310.214 366.953C310.919 366.953 311.625 366.953 312.252 366.872L302.845 372.535C302.218 372.616 301.512 372.616 300.807 372.616Z" fill="#EFB73A"/>
<path d="M302.92 372.535L312.327 366.872C313.111 366.791 313.895 366.71 314.6 366.548L305.193 372.211C304.409 372.373 303.704 372.454 302.92 372.535Z" fill="#EAB238"/>
<path d="M305.193 372.211L314.6 366.548C315.541 366.386 316.482 366.063 317.422 365.739L308.015 371.402C307.075 371.726 306.134 371.969 305.193 372.211Z" fill="#E5AF37"/>
<path d="M308.018 371.402L317.425 365.739C318.522 365.335 319.62 364.849 320.639 364.202L311.232 369.865C310.213 370.512 309.115 370.998 308.018 371.402Z" fill="#E0AA36"/>
<path d="M254.713 269.551L264.12 263.888C265.139 263.241 266.236 262.756 267.334 262.351L257.927 268.014C256.829 268.419 255.732 268.904 254.713 269.551Z" fill="#E1C862"/>
<path d="M257.926 268.014L267.333 262.351C268.195 262.028 269.136 261.785 270.155 261.542L260.748 267.205C259.807 267.448 258.866 267.69 257.926 268.014Z" fill="#E6CE64"/>
<path d="M260.748 267.205L270.155 261.542C270.939 261.38 271.645 261.3 272.428 261.219L263.021 266.882C262.237 266.962 261.454 267.043 260.748 267.205Z" fill="#EBD267"/>
<path d="M263.021 266.882L272.429 261.219C273.134 261.138 273.761 261.138 274.467 261.138L265.06 266.801C264.433 266.801 263.727 266.801 263.021 266.882Z" fill="#F0D669"/>
<path d="M265.061 266.801L274.468 261.138C275.095 261.138 275.722 261.138 276.349 261.219L266.942 266.882C266.315 266.801 265.688 266.801 265.061 266.801Z" fill="#F5DC6B"/>
<path d="M266.939 266.801L276.346 261.138C276.895 261.219 277.522 261.219 278.15 261.3L268.742 266.962C268.115 266.962 267.567 266.882 266.939 266.801Z" fill="#FAE06D"/>
<path d="M268.744 267.043L278.151 261.38C278.7 261.461 279.327 261.542 279.876 261.704L270.469 267.367C269.92 267.205 269.293 267.124 268.744 267.043Z" fill="#FFE46F"/>
<path d="M270.471 267.286L279.878 261.623C280.426 261.704 280.975 261.866 281.524 262.028L272.117 267.69C271.568 267.529 271.019 267.448 270.471 267.286Z" fill="#FFE56F"/>
<path d="M272.117 267.691L281.524 262.028C282.073 262.189 282.622 262.351 283.17 262.513L273.763 268.176C273.215 268.014 272.666 267.852 272.117 267.691Z" fill="#FFE56F"/>
<path d="M273.762 268.176L283.169 262.513C283.717 262.675 284.266 262.837 284.737 263.079L275.33 268.742C274.859 268.499 274.31 268.338 273.762 268.176Z" fill="#FFE36F"/>
<path d="M275.41 268.661L284.817 262.998C285.366 263.16 285.915 263.403 286.463 263.646L277.056 269.309C276.429 269.066 275.881 268.904 275.41 268.661Z" fill="#FFE46F"/>
<path d="M276.977 269.309L286.384 263.646C286.932 263.888 287.481 264.131 287.951 264.374L278.544 270.037C278.074 269.794 277.525 269.551 276.977 269.309Z" fill="#FFE46F"/>
<path d="M278.545 270.037L287.952 264.374C288.501 264.616 289.049 264.859 289.598 265.183L280.191 270.846C279.642 270.522 279.094 270.279 278.545 270.037Z" fill="#FFE46F"/>
<path d="M280.189 270.846L289.596 265.183C290.145 265.425 290.694 265.749 291.243 266.072L281.836 271.735C281.287 271.412 280.738 271.088 280.189 270.846Z" fill="#FFE46F"/>
<path d="M281.838 271.655L291.245 265.992C291.637 266.234 292.107 266.477 292.499 266.72L283.092 272.383C282.7 272.14 282.23 271.897 281.838 271.655Z" fill="#FFE46F"/>
<path d="M250.713 262.351L260.12 256.688C261.296 255.96 262.55 255.394 263.804 254.909L254.397 260.571C253.065 261.057 251.81 261.704 250.713 262.351Z" fill="#E0AA36"/>
<path d="M254.396 260.652L263.804 254.989C264.823 254.585 265.92 254.342 267.018 254.1L257.611 259.762C256.435 259.924 255.416 260.248 254.396 260.652Z" fill="#E5AF37"/>
<path d="M257.533 259.682L266.94 254.019C267.803 253.857 268.665 253.695 269.606 253.614L260.199 259.277C259.258 259.439 258.396 259.52 257.533 259.682Z" fill="#EAB238"/>
<path d="M260.197 259.358L269.604 253.695C270.388 253.614 271.172 253.614 271.956 253.614L262.549 259.277C261.765 259.196 260.981 259.277 260.197 259.358Z" fill="#EFB73A"/>
<path d="M262.549 259.196L271.956 253.533C272.661 253.533 273.367 253.533 274.072 253.614L264.665 259.277C263.96 259.196 263.254 259.196 262.549 259.196Z" fill="#F4BA3B"/>
<path d="M264.666 259.277L274.073 253.614C274.779 253.695 275.406 253.695 276.111 253.857L266.704 259.52C265.999 259.439 265.372 259.358 264.666 259.277Z" fill="#F9BE3C"/>
<path d="M266.705 259.52L276.112 253.857C276.739 253.938 277.445 254.1 278.072 254.18L268.665 259.843C268.038 259.681 267.411 259.601 266.705 259.52Z" fill="#FFC23D"/>
<path d="M268.742 259.843L278.149 254.18C278.776 254.342 279.403 254.423 280.031 254.585L270.624 260.248C269.918 260.086 269.291 259.924 268.742 259.843Z" fill="#FFC23D"/>
<path d="M270.547 260.248L279.954 254.585C280.581 254.747 281.208 254.909 281.835 255.151L272.428 260.814C271.801 260.571 271.174 260.41 270.547 260.248Z" fill="#FFC23D"/>
<path d="M272.428 260.814L281.835 255.151C282.462 255.313 283.011 255.556 283.638 255.798L274.231 261.461C273.682 261.219 273.055 260.976 272.428 260.814Z" fill="#FFC23D"/>
<path d="M274.311 261.38L283.718 255.718C284.345 255.96 284.972 256.203 285.521 256.446L276.114 262.109C275.486 261.866 274.938 261.623 274.311 261.38Z" fill="#FFC23D"/>
<path d="M276.113 262.108L285.52 256.446C286.147 256.688 286.696 256.931 287.323 257.255L277.916 262.917C277.368 262.675 276.74 262.351 276.113 262.108Z" fill="#FFC33D"/>
<path d="M277.914 262.917L287.321 257.255C287.948 257.497 288.575 257.821 289.202 258.144L279.795 263.807C279.168 263.484 278.541 263.241 277.914 262.917Z" fill="#FFC23D"/>
<path d="M279.797 263.807L289.204 258.144C289.831 258.468 290.458 258.792 291.085 259.115L281.678 264.778C281.051 264.455 280.424 264.131 279.797 263.807Z" fill="#FFC33D"/>
<path d="M281.678 264.859L291.085 259.196C291.555 259.439 292.025 259.762 292.496 260.005L283.089 265.668C282.618 265.344 282.148 265.102 281.678 264.859Z" fill="#FFC23D"/>
<path d="M283.09 272.383L292.497 266.72C292.654 266.801 292.732 266.881 292.889 266.962L283.482 272.625C283.325 272.544 283.247 272.463 283.09 272.383Z" fill="#FFE46F"/>
<path d="M283.482 272.625L292.889 266.962C293.438 267.286 293.987 267.69 294.614 268.014L285.207 273.677C284.58 273.353 284.031 273.03 283.482 272.625Z" fill="#FFE46F"/>
<path d="M285.205 273.677L294.612 268.014C295.161 268.419 295.71 268.742 296.337 269.147L286.93 274.81C286.303 274.486 285.754 274.082 285.205 273.677Z" fill="#FFE46F"/>
<path d="M286.854 274.89L296.261 269.228C296.809 269.632 297.436 270.036 297.985 270.522L288.578 276.185C288.029 275.699 287.481 275.295 286.854 274.89Z" fill="#FFE46F"/>
<path d="M288.576 276.104L297.983 270.441C298.532 270.926 299.159 271.331 299.708 271.816L290.301 277.479C289.752 277.075 289.203 276.589 288.576 276.104Z" fill="#FFE46F"/>
<path d="M290.381 277.479L299.788 271.816C300.415 272.302 300.964 272.787 301.591 273.272L292.184 278.935C291.557 278.531 290.93 277.965 290.381 277.479Z" fill="#FFE36F"/>
<path d="M292.105 279.016L301.512 273.353C302.14 273.839 302.688 274.405 303.316 274.971L293.908 280.634C293.281 280.068 292.733 279.502 292.105 279.016Z" fill="#FFE46F"/>
<path d="M293.906 280.634L303.313 274.971C303.94 275.538 304.489 276.104 305.038 276.67L295.631 282.333C295.082 281.686 294.455 281.12 293.906 280.634Z" fill="#FFE46F"/>
<path d="M295.635 282.252L305.042 276.589C305.591 277.156 306.139 277.722 306.688 278.288L297.281 283.951C296.811 283.385 296.184 282.818 295.635 282.252Z" fill="#FFE46F"/>
<path d="M297.359 284.032L306.766 278.369C307.315 278.935 307.864 279.502 308.413 280.149L299.006 285.812C298.457 285.165 297.908 284.598 297.359 284.032Z" fill="#FFE46F"/>
<path d="M298.926 285.731L308.333 280.068C308.882 280.634 309.352 281.281 309.901 281.848L300.494 287.511C300.023 286.944 299.475 286.378 298.926 285.731Z" fill="#FFE46F"/>
<path d="M300.494 287.511L309.901 281.848C310.45 282.495 310.92 283.061 311.469 283.708L302.062 289.371C301.513 288.805 301.043 288.158 300.494 287.511Z" fill="#FFE987"/>
<path d="M302.061 289.371L311.468 283.708C312.016 284.355 312.487 285.003 313.035 285.65L303.628 291.313C303.08 290.666 302.531 290.018 302.061 289.371Z" fill="#FFEB92"/>
<path d="M303.551 291.313L312.958 285.65C313.585 286.459 314.134 287.268 314.761 288.077L305.354 293.74C304.805 292.931 304.178 292.122 303.551 291.313Z" fill="#FFEC99"/>
<path d="M305.354 293.74L314.761 288.077C315.623 289.29 316.485 290.504 317.269 291.798L307.862 297.461C307.078 296.248 306.216 294.953 305.354 293.74Z" fill="#FFEDA0"/>
<path d="M307.861 297.461L317.268 291.798C318.287 293.416 319.307 295.034 320.247 296.652L310.84 302.315C309.9 300.697 308.959 299.079 307.861 297.461Z" fill="#FFEEA6"/>
<path d="M310.84 302.315L320.247 296.652C320.952 297.866 321.58 299.079 322.207 300.292L312.8 305.955C312.173 304.742 311.545 303.528 310.84 302.315Z" fill="#FFEDA0"/>
<path d="M312.799 305.955L322.206 300.292C322.598 301.101 323.068 301.91 323.46 302.719L314.053 308.382C313.661 307.573 313.269 306.764 312.799 305.955Z" fill="#FFEC99"/>
<path d="M314.055 308.463L323.462 302.8C323.775 303.528 324.167 304.257 324.481 304.985L315.074 310.648C314.76 309.839 314.368 309.11 314.055 308.463Z" fill="#FFEB92"/>
<path d="M315.072 310.567L324.479 304.904C324.793 305.551 325.106 306.198 325.342 306.926L315.935 312.589C315.621 311.942 315.386 311.295 315.072 310.567Z" fill="#FFE987"/>
<path d="M315.936 312.589L325.343 306.926C325.656 307.573 325.891 308.221 326.126 308.868L316.719 314.531C316.484 313.883 316.249 313.236 315.936 312.589Z" fill="#FFE46F"/>
<path d="M316.799 314.531L326.206 308.868C326.441 309.515 326.755 310.162 326.99 310.89L317.583 316.553C317.269 315.906 317.034 315.259 316.799 314.531Z" fill="#FFE46F"/>
<path d="M317.504 316.553L326.911 310.89C327.146 311.537 327.381 312.265 327.616 312.913L318.209 318.576C318.053 317.928 317.817 317.2 317.504 316.553Z" fill="#FFE46F"/>
<path d="M318.287 318.576L327.694 312.913C327.929 313.641 328.164 314.288 328.4 315.016L318.993 320.679C318.757 319.951 318.522 319.304 318.287 318.576Z" fill="#FFE46F"/>
<path d="M318.996 320.679L328.403 315.016C328.638 315.744 328.873 316.472 329.03 317.119L319.623 322.782C319.466 322.054 319.231 321.407 318.996 320.679Z" fill="#FFE46F"/>
<path d="M319.621 322.782L329.028 317.119C329.263 317.847 329.42 318.576 329.655 319.304L320.248 324.966C320.091 324.238 319.856 323.51 319.621 322.782Z" fill="#FFE36F"/>
<path d="M320.248 324.967L329.655 319.304C329.812 320.032 330.047 320.76 330.204 321.488L320.797 327.151C320.64 326.423 320.483 325.695 320.248 324.967Z" fill="#FFE46F"/>
<path d="M320.795 327.151L330.202 321.488C330.359 322.216 330.516 322.944 330.672 323.672L321.265 329.335C321.187 328.607 320.952 327.879 320.795 327.151Z" fill="#FFE46F"/>
<path d="M321.268 329.335L330.675 323.672C330.831 324.4 330.988 325.128 331.067 325.856L321.66 331.519C321.581 330.791 321.424 330.063 321.268 329.335Z" fill="#FFE46F"/>
<path d="M321.736 331.438L331.143 325.775C331.3 326.504 331.379 327.151 331.457 327.879L322.05 333.542C321.972 332.895 321.815 332.166 321.736 331.438Z" fill="#FFE46F"/>
<path d="M322.051 333.542L331.458 327.879C331.536 328.607 331.693 329.254 331.771 329.982L322.364 335.645C322.286 334.917 322.208 334.27 322.051 333.542Z" fill="#FFE46F"/>
<path d="M322.365 335.645L331.772 329.982C331.851 330.629 331.929 331.357 332.007 332.005L322.6 337.668C322.522 336.939 322.444 336.292 322.365 335.645Z" fill="#FFE46F"/>
<path d="M322.6 337.668L332.007 332.005C332.085 332.652 332.085 333.38 332.163 334.027L322.756 339.69C322.678 338.962 322.678 338.315 322.6 337.668Z" fill="#FFE46F"/>
<path d="M322.756 339.609L332.163 333.946C332.241 334.593 332.241 335.241 332.241 335.969L322.834 341.632C322.834 340.984 322.756 340.337 322.756 339.609Z" fill="#FFE46F"/>
<path d="M322.836 341.632L332.243 335.969C332.243 336.616 332.243 337.182 332.243 337.829V337.91L322.836 343.573V343.492C322.836 342.845 322.836 342.279 322.836 341.632Z" fill="#FFE46F"/>
<path d="M322.834 343.573L332.241 337.91C332.241 338.557 332.241 339.286 332.163 339.933L322.756 345.596C322.834 344.948 322.834 344.301 322.834 343.573Z" fill="#FFE36F"/>
<path d="M322.834 345.596L332.241 339.933C332.241 340.58 332.163 341.227 332.163 341.874L322.756 347.537C322.756 346.89 322.756 346.243 322.834 345.596Z" fill="#FFE56F"/>
<path d="M322.679 347.537L332.086 341.874C332.007 342.521 331.929 343.169 331.85 343.816L322.443 349.479C322.6 348.832 322.6 348.184 322.679 347.537Z" fill="#FFE56F"/>
<path d="M322.521 349.479L331.928 343.816C331.849 344.463 331.771 345.11 331.614 345.757L322.207 351.42C322.285 350.854 322.442 350.207 322.521 349.479Z" fill="#FFE46F"/>
<path d="M322.206 351.501L331.613 345.838C331.535 346.485 331.378 347.214 331.221 347.861L321.814 353.524C321.971 352.795 322.05 352.148 322.206 351.501Z" fill="#FAE06D"/>
<path d="M321.816 353.524L331.223 347.861C331.067 348.589 330.91 349.317 330.675 349.964L321.268 355.627C321.503 354.899 321.66 354.171 321.816 353.524Z" fill="#F5DC6B"/>
<path d="M321.264 355.546L330.671 349.883C330.436 350.611 330.201 351.339 329.966 352.067L320.559 357.73C320.872 357.083 321.029 356.355 321.264 355.546Z" fill="#F0D669"/>
<path d="M320.562 357.73L329.969 352.067C329.655 352.876 329.342 353.685 329.028 354.413L319.621 360.076C320.013 359.348 320.327 358.539 320.562 357.73Z" fill="#EBD267"/>
<path d="M319.62 360.076L329.027 354.414C328.557 355.384 328.087 356.355 327.538 357.245L318.131 362.908C318.68 362.018 319.15 361.047 319.62 360.076Z" fill="#E6CE64"/>
<path d="M318.129 362.908L327.536 357.245C325.655 360.238 323.381 362.584 320.637 364.202L311.23 369.865C313.974 368.247 316.248 365.901 318.129 362.908Z" fill="#E1C862"/>
<path d="M283.088 272.383C305.116 285.488 322.911 317.362 322.832 343.411C322.754 369.541 304.802 380.058 282.852 366.953C260.824 353.847 243.029 321.973 243.108 295.924C243.108 269.794 261.059 259.277 283.088 272.383Z" fill="#FFEC98"/>
<path d="M283.09 265.668L292.497 260.005C292.654 260.086 292.81 260.167 292.967 260.248L283.56 265.911C283.403 265.83 283.247 265.749 283.09 265.668Z" fill="#FFC23D"/>
<path d="M283.561 265.911L292.968 260.248C293.595 260.652 294.222 261.057 294.927 261.461L285.52 267.124C284.893 266.72 284.188 266.315 283.561 265.911Z" fill="#FFC33D"/>
<path d="M285.518 267.124L294.925 261.461C295.552 261.866 296.179 262.351 296.884 262.756L287.477 268.419C286.772 268.014 286.145 267.61 285.518 267.124Z" fill="#FFC23D"/>
<path d="M287.4 268.5L296.807 262.837C297.435 263.322 298.14 263.807 298.767 264.293L289.36 269.956C288.733 269.389 288.106 268.904 287.4 268.5Z" fill="#FFC33D"/>
<path d="M289.438 269.956L298.845 264.293C299.55 264.778 300.177 265.345 300.883 265.83L291.476 271.493C290.77 270.927 290.065 270.441 289.438 269.956Z" fill="#FFC23D"/>
<path d="M291.398 271.493L300.805 265.83C301.511 266.396 302.138 266.962 302.844 267.529L293.437 273.192C292.731 272.625 292.104 272.059 291.398 271.493Z" fill="#FFC23D"/>
<path d="M293.438 273.192L302.845 267.529C303.55 268.095 304.177 268.742 304.883 269.389L295.476 275.052C294.77 274.405 294.143 273.758 293.438 273.192Z" fill="#FFC23D"/>
<path d="M295.475 275.052L304.882 269.389C305.587 270.037 306.214 270.684 306.92 271.331L297.513 276.994C296.807 276.266 296.102 275.619 295.475 275.052Z" fill="#FFC33D"/>
<path d="M297.436 276.913L306.843 271.25C307.47 271.897 308.097 272.544 308.802 273.192L299.395 278.855C298.768 278.207 298.141 277.56 297.436 276.913Z" fill="#FFC23D"/>
<path d="M299.396 278.935L308.804 273.273C309.431 273.92 310.058 274.567 310.685 275.295L301.278 280.958C300.651 280.23 300.024 279.583 299.396 278.935Z" fill="#FFC33D"/>
<path d="M301.277 280.958L310.684 275.295C311.311 275.942 311.86 276.67 312.487 277.317L303.08 282.98C302.453 282.252 301.826 281.605 301.277 280.958Z" fill="#FFC23D"/>
<path d="M303.004 282.98L312.411 277.317C313.038 278.045 313.587 278.693 314.136 279.421L304.729 285.084C304.18 284.356 303.631 283.627 303.004 282.98Z" fill="#FFCC5B"/>
<path d="M304.805 285.084L314.212 279.421C314.839 280.149 315.388 280.877 315.936 281.686L306.529 287.349C305.981 286.54 305.353 285.812 304.805 285.084Z" fill="#FFD068"/>
<path d="M306.529 287.349L315.936 281.686C316.642 282.576 317.269 283.466 317.975 284.436L308.567 290.099C307.94 289.129 307.235 288.239 306.529 287.349Z" fill="#FFD372"/>
<path d="M308.566 290.099L317.973 284.436C318.993 285.812 319.933 287.268 320.874 288.643L311.467 294.306C310.526 292.85 309.586 291.475 308.566 290.099Z" fill="#FFD57A"/>
<path d="M311.467 294.306L320.874 288.643C322.05 290.423 323.147 292.284 324.245 294.225L314.838 299.888C313.74 297.946 312.643 296.167 311.467 294.306Z" fill="#FFD881"/>
<path d="M314.838 299.888L324.245 294.225C325.029 295.6 325.734 296.976 326.518 298.351L317.111 304.014C316.327 302.639 315.622 301.263 314.838 299.888Z" fill="#FFD57A"/>
<path d="M317.111 304.014L326.518 298.351C326.989 299.322 327.459 300.212 327.929 301.182L318.522 306.845C318.052 305.875 317.582 304.904 317.111 304.014Z" fill="#FFD372"/>
<path d="M318.523 306.845L327.93 301.182C328.322 301.991 328.714 302.8 329.106 303.69L319.699 309.353C319.307 308.463 318.915 307.654 318.523 306.845Z" fill="#FFD068"/>
<path d="M319.621 309.272L329.028 303.609C329.342 304.337 329.734 305.146 330.047 305.875L320.64 311.537C320.327 310.809 320.013 310.081 319.621 309.272Z" fill="#FFCC5B"/>
<path d="M320.639 311.537L330.046 305.875C330.359 306.603 330.673 307.412 330.986 308.14L321.579 313.803C321.266 313.075 320.952 312.346 320.639 311.537Z" fill="#FFC23D"/>
<path d="M321.578 313.803L330.985 308.14C331.299 308.868 331.612 309.677 331.847 310.405L322.44 316.068C322.205 315.34 321.892 314.612 321.578 313.803Z" fill="#FFC33D"/>
<path d="M322.443 316.068L331.85 310.405C332.164 311.133 332.399 311.942 332.713 312.67L323.306 318.333C323.071 317.605 322.757 316.877 322.443 316.068Z" fill="#FFC23D"/>
<path d="M323.305 318.414L332.712 312.751C333.025 313.56 333.26 314.369 333.496 315.178L324.089 320.841C323.853 320.032 323.618 319.223 323.305 318.414Z" fill="#FFC33D"/>
<path d="M324.088 320.841L333.495 315.178C333.73 315.987 334.044 316.796 334.279 317.605L324.872 323.268C324.637 322.459 324.401 321.65 324.088 320.841Z" fill="#FFC23D"/>
<path d="M324.871 323.268L334.278 317.605C334.513 318.414 334.748 319.223 334.984 320.113L325.577 325.776C325.341 324.886 325.106 324.077 324.871 323.268Z" fill="#FFC23D"/>
<path d="M325.578 325.695L334.985 320.032C335.22 320.841 335.455 321.731 335.612 322.54L326.205 328.202C326.048 327.393 325.813 326.585 325.578 325.695Z" fill="#FFC23D"/>
<path d="M326.207 328.202L335.614 322.54C335.849 323.349 336.006 324.158 336.163 324.967L326.756 330.629C326.599 329.901 326.442 329.011 326.207 328.202Z" fill="#FFC33D"/>
<path d="M326.754 330.71L336.161 325.047C336.318 325.856 336.475 326.665 336.631 327.474L327.224 333.137C327.146 332.328 326.911 331.519 326.754 330.71Z" fill="#FFC23D"/>
<path d="M327.223 333.137L336.63 327.474C336.786 328.283 336.943 329.092 337.022 329.82L327.615 335.483C327.536 334.755 327.379 333.946 327.223 333.137Z" fill="#FFC33D"/>
<path d="M327.695 335.483L337.102 329.82C337.259 330.629 337.338 331.438 337.416 332.166L328.009 337.829C327.852 337.101 327.774 336.292 327.695 335.483Z" fill="#FFC23D"/>
<path d="M328.006 337.91L337.413 332.247C337.491 333.056 337.57 333.784 337.648 334.513L328.241 340.175C328.163 339.447 328.084 338.638 328.006 337.91Z" fill="#FFC33D"/>
<path d="M328.244 340.175L337.651 334.513C337.73 335.241 337.808 336.05 337.808 336.778L328.401 342.441C328.401 341.713 328.323 340.984 328.244 340.175Z" fill="#FFC23D"/>
<path d="M328.402 342.441L337.809 336.778C337.888 337.506 337.888 338.315 337.888 339.043L328.481 344.706C328.481 343.978 328.481 343.25 328.402 342.441Z" fill="#FFC33D"/>
<path d="M328.479 344.787L337.886 339.124C337.886 339.852 337.886 340.58 337.886 341.227C337.886 341.308 337.886 341.308 337.886 341.389L328.479 347.052C328.479 346.971 328.479 346.971 328.479 346.89C328.557 346.162 328.557 345.434 328.479 344.787Z" fill="#FFC23D"/>
<path d="M328.557 346.971L337.964 341.308C337.964 342.117 337.964 342.845 337.886 343.573L328.479 349.236C328.557 348.508 328.557 347.78 328.557 346.971Z" fill="#FFC23D"/>
<path d="M328.479 349.317L337.886 343.654C337.886 344.382 337.808 345.11 337.729 345.838L328.322 351.501C328.401 350.773 328.479 350.045 328.479 349.317Z" fill="#FFC23D"/>
<path d="M328.323 351.501L337.73 345.838C337.652 346.647 337.573 347.375 337.495 348.103L328.088 353.766C328.245 353.038 328.323 352.31 328.323 351.501Z" fill="#FFC23D"/>
<path d="M328.163 353.766L337.57 348.103C337.492 348.832 337.335 349.641 337.257 350.369L327.85 356.032C327.928 355.303 328.006 354.494 328.163 353.766Z" fill="#FFC23D"/>
<path d="M327.773 356.032L337.18 350.369C337.023 351.178 336.867 351.906 336.71 352.634L327.303 358.297C327.538 357.569 327.695 356.76 327.773 356.032Z" fill="#F9BE3C"/>
<path d="M327.381 358.297L336.788 352.634C336.631 353.443 336.396 354.252 336.161 355.061L326.754 360.724C326.989 359.915 327.146 359.106 327.381 358.297Z" fill="#F4BA3B"/>
<path d="M326.757 360.724L336.164 355.061C335.928 355.951 335.693 356.76 335.38 357.569L325.973 363.231C326.208 362.422 326.521 361.533 326.757 360.724Z" fill="#EFB73A"/>
<path d="M325.969 363.231L335.376 357.569C335.062 358.458 334.67 359.348 334.278 360.238L324.871 365.901C325.263 365.011 325.655 364.121 325.969 363.231Z" fill="#EAB238"/>
<path d="M324.871 365.901L334.278 360.238C333.729 361.371 333.181 362.423 332.554 363.474L323.146 369.137C323.774 368.085 324.322 367.034 324.871 365.901Z" fill="#E5AF37"/>
<path d="M323.15 369.056L332.557 363.393C330.44 366.791 327.775 369.461 324.639 371.321L315.232 376.984C318.368 375.204 321.033 372.535 323.15 369.056Z" fill="#E0AA36"/>
<path d="M283.09 265.668C308.253 280.634 328.557 317.038 328.479 346.89C328.4 376.741 307.94 388.795 282.776 373.748C257.612 358.782 237.23 322.378 237.309 292.526C237.466 262.675 257.926 250.702 283.09 265.668ZM282.854 367.034C304.883 380.139 322.756 369.622 322.834 343.492C322.913 317.362 305.118 285.569 283.09 272.464C261.062 259.358 243.11 269.875 243.031 296.005C243.031 322.054 260.826 353.847 282.854 367.034Z" fill="#E4AE37"/>
<path d="M302.458 326.437C302.904 328.742 303.127 331.269 303.127 333.946C303.127 336.548 302.904 338.778 302.458 340.636C301.938 342.421 301.418 343.982 300.749 345.171C300.08 346.361 299.262 347.327 298.445 347.996C297.628 348.665 296.81 349.186 295.993 349.483C294.209 350.152 292.203 350.375 289.973 350.003C287.67 349.557 285.44 348.74 283.062 347.402L270.875 340.413L271.024 296.106L269.166 294.991V289.192L283.137 297.295C285.515 298.634 287.818 300.418 290.122 302.722C292.351 305.027 294.358 307.48 296.141 310.231C296.884 311.495 297.702 312.907 298.519 314.468C299.337 316.104 300.154 317.888 300.749 319.895C301.418 321.902 302.012 324.058 302.458 326.437ZM296.513 339.521C297.553 337.663 298.073 334.838 298.073 330.972C298.073 327.181 297.553 323.687 296.513 320.564C295.547 317.516 294.284 314.84 292.723 312.535C291.237 310.156 289.528 308.224 287.818 306.662C286.184 305.027 284.623 303.912 283.211 303.094L276.003 298.931L275.854 337.514L283.062 341.677C284.474 342.495 286.035 343.015 287.744 343.461C289.453 343.833 291.088 343.759 292.649 343.238C294.135 342.718 295.473 341.454 296.513 339.521Z" fill="#F74D46"/>
<path d="M293.432 290.945C294.922 291.835 296.098 293.939 296.098 295.718C296.098 297.498 294.922 298.226 293.432 297.336C291.943 296.447 290.767 294.343 290.767 292.563C290.689 290.784 291.943 290.056 293.432 290.945Z" fill="white"/>
<path d="M279.634 281.281C280.81 281.929 281.751 283.628 281.672 285.003C281.594 286.378 280.732 286.944 279.556 286.216C278.458 285.488 277.518 283.87 277.518 282.495C277.518 281.12 278.458 280.553 279.634 281.281Z" fill="white"/>
</svg>
