<svg width="500" height="401" viewBox="0 0 500 401" fill="none" xmlns="http://www.w3.org/2000/svg">
<path d="M170.254 265.652L186.999 255.565L303.684 325.156L287.015 335.165L170.254 265.652Z" fill="#DAB193"/>
<path d="M300.959 349.552L317.704 339.465V339.544L300.959 349.552Z" fill="#B6947A"/>
<path d="M300.959 349.552L317.704 339.544C317.704 339.7 317.704 339.856 317.704 340.013L300.959 350.021C300.959 349.865 300.959 349.709 300.959 349.552Z" fill="#B19077"/>
<path d="M300.959 350.1L317.704 340.091C317.704 340.247 317.704 340.404 317.704 340.56L300.959 350.569C300.959 350.412 300.959 350.256 300.959 350.1Z" fill="#AC8B74"/>
<path d="M300.957 350.569L317.702 340.56C317.702 340.717 317.702 340.873 317.626 341.029L300.881 351.038C300.881 350.882 300.957 350.725 300.957 350.569Z" fill="#A78770"/>
<path d="M300.882 351.038L317.628 341.029C317.628 341.186 317.552 341.342 317.552 341.498L300.807 351.507C300.882 351.429 300.882 351.194 300.882 351.038Z" fill="#A2836D"/>
<path d="M300.806 351.585L317.551 341.577C317.551 341.733 317.476 341.889 317.476 342.124L300.73 352.133C300.73 351.898 300.806 351.742 300.806 351.585Z" fill="#9D7F69"/>
<path d="M300.73 352.054L317.475 342.046C317.399 342.202 317.399 342.437 317.323 342.593L300.578 352.602C300.654 352.445 300.654 352.211 300.73 352.054Z" fill="#987B66"/>
<path d="M300.579 352.602L317.324 342.593C317.249 342.75 317.249 342.984 317.173 343.14L300.428 353.149C300.504 352.993 300.503 352.758 300.579 352.602Z" fill="#937763"/>
<path d="M300.427 353.149L317.172 343.141C317.096 343.375 317.02 343.531 316.944 343.766L300.199 353.775C300.275 353.54 300.351 353.384 300.427 353.149Z" fill="#8E735F"/>
<path d="M300.199 353.775L316.944 343.766C316.793 344.001 316.717 344.235 316.565 344.47L299.82 354.478C299.896 354.244 300.048 354.009 300.199 353.775Z" fill="#896F5C"/>
<path d="M299.821 354.478L316.566 344.47C316.111 345.252 315.505 345.799 314.823 346.268L298.078 356.277C298.76 355.808 299.29 355.182 299.821 354.478Z" fill="#846B58"/>
<path d="M170.784 80.0232L187.454 70.0145L186.999 255.565L170.254 265.652L170.784 80.0232Z" fill="#C39E83"/>
<path d="M159.797 33.0294L176.542 23.0208C176.769 22.8644 177.072 22.708 177.375 22.6299L160.63 32.6385C160.327 32.7949 160.024 32.8731 159.797 33.0294Z" fill="#846B58"/>
<path d="M160.631 32.6385L177.376 22.6299C177.603 22.5517 177.831 22.4735 178.058 22.3953L161.313 32.4821C161.085 32.4821 160.858 32.5603 160.631 32.6385Z" fill="#896F5C"/>
<path d="M161.312 32.4821L178.058 22.4735C178.209 22.3953 178.436 22.3953 178.588 22.3171L161.919 32.404C161.691 32.404 161.54 32.404 161.312 32.4821Z" fill="#8E735F"/>
<path d="M161.918 32.404L178.587 22.3171C178.815 22.3171 178.966 22.3171 179.118 22.3171L162.448 32.3258C162.221 32.3258 162.07 32.3258 161.918 32.404Z" fill="#937763"/>
<path d="M162.447 32.3258L179.117 22.3171C179.268 22.3171 179.42 22.3171 179.571 22.3171L162.902 32.3258C162.75 32.3258 162.599 32.3258 162.447 32.3258Z" fill="#987B66"/>
<path d="M162.902 32.3258L179.647 22.3171C179.799 22.3171 179.951 22.3171 180.102 22.3953L163.357 32.404C163.205 32.404 163.054 32.404 162.902 32.3258Z" fill="#9D7F69"/>
<path d="M163.357 32.4039L180.103 22.3953C180.254 22.3953 180.406 22.4735 180.557 22.4735L163.812 32.4821C163.661 32.4821 163.509 32.4039 163.357 32.4039Z" fill="#A2836D"/>
<path d="M163.811 32.4822L180.48 22.4736C180.631 22.4736 180.783 22.5518 180.859 22.5518L164.189 32.5604C164.038 32.5604 163.886 32.4822 163.811 32.4822Z" fill="#A78770"/>
<path d="M164.191 32.5604L180.937 22.5517C181.088 22.5517 181.24 22.6299 181.391 22.7081L164.646 32.7167C164.494 32.6385 164.343 32.6385 164.191 32.5604Z" fill="#AC8B74"/>
<path d="M164.645 32.7167L181.39 22.7081C181.541 22.7863 181.693 22.7863 181.768 22.8645L165.023 32.8731C164.872 32.7949 164.72 32.7167 164.645 32.7167Z" fill="#B19077"/>
<path d="M165.025 32.8731L181.771 22.8645C181.846 22.8645 181.998 22.9427 182.149 22.9427L165.404 33.0295C165.253 32.9513 165.177 32.8731 165.025 32.8731Z" fill="#B6947A"/>
<path d="M165.404 33.0295L182.149 23.0209C182.301 23.0209 182.452 23.0991 182.528 23.1773L165.859 33.1859C165.707 33.1077 165.556 33.0295 165.404 33.0295Z" fill="#BB987E"/>
<path d="M165.857 33.1859L182.603 23.1773C182.754 23.2555 182.906 23.3337 182.981 23.4119L166.236 33.3423C166.085 33.2641 165.933 33.2641 165.857 33.1859Z" fill="#C09C81"/>
<path d="M166.24 33.3422L182.985 23.3336C183.137 23.4118 183.288 23.49 183.364 23.5682L166.619 33.5768C166.543 33.4986 166.392 33.4204 166.24 33.3422Z" fill="#C5A085"/>
<path d="M166.615 33.5768L183.36 23.5682C183.512 23.6464 183.588 23.6464 183.663 23.7246L166.994 33.8114C166.843 33.7332 166.767 33.655 166.615 33.5768Z" fill="#CAA488"/>
<path d="M166.996 33.8114L183.665 23.7246L219.883 45.3057L203.138 55.3143L166.996 33.8114Z" fill="#DAB193"/>
<path d="M203.139 55.3143L219.884 45.3057C219.884 45.462 219.884 45.6184 219.884 45.7748L203.139 55.7834C203.139 55.6271 203.139 55.4707 203.139 55.3143Z" fill="#B6947A"/>
<path d="M203.139 55.7834L219.884 45.7748C219.884 45.9312 219.884 46.0876 219.884 46.244L203.214 56.3308C203.214 56.0962 203.139 55.9398 203.139 55.7834Z" fill="#BB987E"/>
<path d="M203.213 56.3308L219.882 46.244C219.882 46.4003 219.882 46.5567 219.958 46.7131L203.213 56.7999C203.213 56.6435 203.213 56.4872 203.213 56.3308Z" fill="#C09C81"/>
<path d="M203.213 56.7999L219.958 46.7913C219.958 46.9477 219.958 47.1041 220.034 47.2605L203.289 57.2691C203.289 57.1127 203.213 56.9563 203.213 56.7999Z" fill="#C5A085"/>
<path d="M203.291 57.2691L220.036 47.2605C220.036 47.4169 220.112 47.5732 220.112 47.8078L203.367 57.8164C203.367 57.6601 203.291 57.5037 203.291 57.2691Z" fill="#CAA488"/>
<path d="M203.365 57.8165L220.11 47.8079C220.11 47.9642 220.186 48.1206 220.186 48.3552L203.441 58.3638C203.441 58.2074 203.365 57.9729 203.365 57.8165Z" fill="#CFA88B"/>
<path d="M203.441 58.3638L220.187 48.3552C220.187 48.5115 220.262 48.7461 220.262 48.9025L203.517 58.9111C203.517 58.6766 203.441 58.5202 203.441 58.3638Z" fill="#D5AC8F"/>
<path d="M203.518 58.9111L220.263 48.9025C220.338 49.0589 220.338 49.2935 220.414 49.4498L203.669 59.4585C203.593 59.2239 203.593 59.0675 203.518 58.9111Z" fill="#DAB092"/>
<path d="M203.668 59.4585L220.413 49.4499C220.489 49.6062 220.489 49.8408 220.565 49.9972L203.82 60.0058C203.744 59.7713 203.744 59.6149 203.668 59.4585Z" fill="#DFB496"/>
<path d="M203.818 60.0058L220.563 49.9972C220.563 50.1536 220.639 50.31 220.715 50.4663L203.97 60.5532C203.894 60.3186 203.894 60.1622 203.818 60.0058Z" fill="#E4B999"/>
<path d="M203.973 60.5532L220.718 50.4664C220.794 50.6228 220.794 50.8573 220.869 51.0137L204.124 61.1005C204.048 60.866 204.048 60.7096 203.973 60.5532Z" fill="#E9BD9C"/>
<path d="M204.125 61.1005L220.87 51.0919C220.946 51.2483 220.946 51.4047 221.022 51.5611L204.352 61.5697C204.277 61.4133 204.201 61.2569 204.125 61.1005Z" fill="#EEC1A0"/>
<path d="M204.352 61.5697L221.097 51.5611C221.172 51.7175 221.248 51.8739 221.248 52.1084L204.503 62.1171C204.427 61.9607 204.352 61.8043 204.352 61.5697Z" fill="#F3C5A3"/>
<path d="M204.504 62.117L221.249 52.1084C221.325 52.2648 221.325 52.4212 221.401 52.5776L204.731 62.5862C204.655 62.4298 204.58 62.2734 204.504 62.117Z" fill="#F8C9A7"/>
<path d="M204.729 62.5862L221.398 52.5775C221.474 52.7339 221.549 52.8903 221.625 53.0467L204.88 63.1335C204.804 62.9771 204.804 62.8207 204.729 62.5862Z" fill="#FDCDAA"/>
<path d="M204.881 63.1335L221.626 53.1249C221.702 53.2813 221.778 53.4376 221.853 53.594L205.108 63.6027C205.032 63.4463 204.957 63.2899 204.881 63.1335Z" fill="#FDD3B4"/>
<path d="M205.109 63.6026L221.854 53.594C221.93 53.7504 222.006 53.985 222.082 54.1413L205.412 64.15C205.337 63.9936 205.185 63.8372 205.109 63.6026Z" fill="#FDD5B8"/>
<path d="M205.41 64.15L222.155 54.1414C222.231 54.376 222.307 54.5324 222.458 54.767L205.713 64.7756C205.562 64.6192 205.486 64.3846 205.41 64.15Z" fill="#FDD7BC"/>
<path d="M205.715 64.7755L222.46 54.7669C222.611 55.0797 222.763 55.3924 222.915 55.7052L206.245 65.7138C206.018 65.4011 205.866 65.0883 205.715 64.7755Z" fill="#FDD9BE"/>
<path d="M206.244 65.7139L222.913 55.7052C223.141 56.0962 223.444 56.5653 223.671 56.9563L207.002 66.9649C206.699 66.574 206.471 66.183 206.244 65.7139Z" fill="#FEDAC1"/>
<path d="M207.004 66.965L223.673 56.9564C223.901 57.2691 224.128 57.5819 224.279 57.8947L207.61 67.9033C207.383 67.5905 207.155 67.2778 207.004 66.965Z" fill="#FDD9BE"/>
<path d="M207.611 67.9033L224.356 57.8947C224.508 58.1292 224.66 58.2856 224.811 58.5202L208.066 68.5288C207.914 68.2942 207.763 68.1379 207.611 67.9033Z" fill="#FDD7BC"/>
<path d="M208.066 68.5288L224.812 58.5202C224.887 58.6766 225.039 58.8329 225.19 58.9893L208.445 68.998C208.294 68.8416 208.218 68.6852 208.066 68.5288Z" fill="#FDD5B8"/>
<path d="M208.441 68.9979L225.187 58.9893C225.338 59.1457 225.414 59.3021 225.565 59.4584L208.82 69.4671C208.744 69.3107 208.593 69.1543 208.441 68.9979Z" fill="#FDD3B4"/>
<path d="M208.82 69.4671L225.565 59.4585C225.717 59.6149 225.793 59.7712 225.944 59.9276L209.199 69.9362C209.123 69.7799 208.972 69.6235 208.82 69.4671Z" fill="#FDCDAA"/>
<path d="M209.199 69.9362L225.944 59.9276C226.096 60.084 226.247 60.2404 226.323 60.3968L209.654 70.4054C209.502 70.249 209.351 70.0926 209.199 69.9362Z" fill="#F8C9A7"/>
<path d="M209.656 70.4054L226.401 60.3968C226.477 60.5532 226.629 60.6314 226.78 60.7878L210.111 70.7964C209.959 70.7182 209.808 70.5618 209.656 70.4054Z" fill="#F3C5A3"/>
<path d="M210.109 70.7964L226.854 60.7878C227.006 60.9441 227.158 61.1005 227.309 61.1787L210.488 71.2655C210.337 71.1091 210.185 70.9528 210.109 70.7964Z" fill="#EEC1A0"/>
<path d="M210.488 71.2655L227.233 61.2569C227.385 61.4133 227.536 61.4914 227.688 61.6478L210.943 71.6565C210.791 71.5001 210.64 71.4219 210.488 71.2655Z" fill="#E9BD9C"/>
<path d="M210.941 71.6565L227.687 61.6479C227.838 61.8042 227.99 61.8824 228.141 62.0388L211.396 72.0474C211.244 71.8911 211.093 71.8129 210.941 71.6565Z" fill="#E4B999"/>
<path d="M211.398 72.0474L228.144 62.0388C228.295 62.1952 228.447 62.2734 228.598 62.3516L211.853 72.3602C211.702 72.282 211.55 72.1256 211.398 72.0474Z" fill="#DFB496"/>
<path d="M211.852 72.3603L228.597 62.3516C228.748 62.4298 228.9 62.5862 228.976 62.6644L212.306 72.673C212.155 72.5948 212.003 72.5166 211.852 72.3603Z" fill="#DAB092"/>
<path d="M212.307 72.673L228.976 62.6644C229.128 62.7426 229.279 62.8989 229.431 62.9771L212.685 72.9858C212.534 72.9076 212.458 72.8294 212.307 72.673Z" fill="#D5AC8F"/>
<path d="M212.686 72.9857L229.431 62.9771C229.582 63.0553 229.734 63.1335 229.885 63.2117L213.14 73.2985C212.989 73.1421 212.837 73.0639 212.686 72.9857Z" fill="#CFA88B"/>
<path d="M213.141 73.2985L229.886 63.2899L229.962 63.3681L213.216 73.2985H213.141Z" fill="#CAA488"/>
<path d="M206.092 48.6679L222.837 38.6593C223.064 38.5029 223.367 38.3465 223.67 38.2683L206.925 48.2769C206.622 48.3551 206.395 48.5115 206.092 48.6679Z" fill="#8B2D2C"/>
<path d="M206.926 48.277L223.671 38.2684C223.898 38.1902 224.126 38.112 224.353 38.0338L207.683 48.0424C207.38 48.1206 207.153 48.1988 206.926 48.277Z" fill="#8F2E2E"/>
<path d="M207.682 48.0424L224.427 38.0338C224.578 38.0338 224.73 37.9556 224.957 37.9556L208.212 47.9642C208.06 47.9642 207.833 48.0424 207.682 48.0424Z" fill="#94302E"/>
<path d="M208.213 47.9642L224.958 37.9556C225.11 37.9556 225.337 37.9556 225.488 37.9556L208.743 47.9642C208.592 47.9642 208.44 47.9642 208.213 47.9642Z" fill="#983231"/>
<path d="M208.742 47.9642L225.487 37.9556C225.639 37.9556 225.79 37.9556 225.942 37.9556L209.273 47.9642C209.045 47.9642 208.894 47.9642 208.742 47.9642Z" fill="#9D3232"/>
<path d="M209.275 47.9642L225.945 37.9556C226.096 37.9556 226.248 37.9556 226.399 37.9556L209.654 48.0424C209.503 47.9642 209.351 47.9642 209.275 47.9642Z" fill="#A13433"/>
<path d="M209.652 48.0424L226.397 37.9556C226.549 37.9556 226.701 38.0338 226.852 38.0338L210.107 48.1206C209.955 48.0424 209.804 48.0424 209.652 48.0424Z" fill="#A63535"/>
<path d="M210.105 48.1207L226.851 38.112C227.002 38.112 227.154 38.1902 227.229 38.1902L210.56 48.1988C210.409 48.1207 210.257 48.1207 210.105 48.1207Z" fill="#AA3736"/>
<path d="M210.564 48.1988L227.31 38.1902C227.461 38.1902 227.613 38.2684 227.688 38.3466L210.943 48.277C210.792 48.277 210.716 48.1988 210.564 48.1988Z" fill="#AF3937"/>
<path d="M210.939 48.2769L227.685 38.2683C227.836 38.3465 227.988 38.3465 228.063 38.4247L211.394 48.4333C211.243 48.4333 211.091 48.3551 210.939 48.2769Z" fill="#B33A3A"/>
<path d="M211.395 48.4334L228.14 38.4247C228.215 38.5029 228.367 38.5029 228.518 38.5811L211.773 48.5898C211.622 48.5116 211.47 48.5116 211.395 48.4334Z" fill="#B83B3A"/>
<path d="M211.773 48.5898L228.519 38.5811C228.594 38.6593 228.746 38.6593 228.897 38.7375L212.152 48.7462C212.001 48.7462 211.925 48.668 211.773 48.5898Z" fill="#BC3D3C"/>
<path d="M212.152 48.7461L228.897 38.7375C229.049 38.8157 229.201 38.8939 229.276 38.9721L212.607 48.9807C212.455 48.9025 212.304 48.8243 212.152 48.7461Z" fill="#C03E3D"/>
<path d="M212.609 48.9807L229.354 38.972C229.43 39.0502 229.582 39.0502 229.733 39.1284L212.988 49.2152C212.837 49.1371 212.685 49.0589 212.609 48.9807Z" fill="#C5403F"/>
<path d="M212.986 49.2153L229.731 39.1285C229.807 39.2067 229.959 39.2849 230.035 39.2849L213.289 49.3717C213.214 49.2935 213.062 49.2153 212.986 49.2153Z" fill="#C94240"/>
<path d="M213.291 49.3717L230.036 39.3631L237.234 43.6637L220.565 53.6723L213.291 49.3717Z" fill="#D74644"/>
<path d="M213.215 73.2985L229.96 63.2899L261.935 82.3689L245.19 92.3775L213.215 73.2985Z" fill="#DAB193"/>
<path d="M220.568 53.6723L237.238 43.6637H237.313L220.568 53.7505V53.6723Z" fill="#7F6ED6"/>
<path d="M220.568 53.7505L237.313 43.7419C237.389 43.8982 237.465 44.0546 237.541 44.211L220.72 54.2196C220.72 54.0632 220.644 53.9069 220.568 53.7505Z" fill="#8171DB"/>
<path d="M220.721 54.2196L237.466 44.211C237.542 44.3674 237.617 44.5238 237.693 44.6802L220.948 54.6888C220.872 54.5324 220.796 54.376 220.721 54.2196Z" fill="#8473DF"/>
<path d="M220.947 54.6887L237.692 44.6801C237.768 44.8365 237.844 44.9929 237.92 45.1493L221.175 55.2361C221.099 55.0797 221.023 54.9233 220.947 54.6887Z" fill="#9384E3"/>
<path d="M221.174 55.2361L237.919 45.2275C237.995 45.3839 238.07 45.5403 238.146 45.7749L221.401 55.7835C221.325 55.5489 221.25 55.3925 221.174 55.2361Z" fill="#998BE4"/>
<path d="M221.402 55.7835L238.147 45.7749C238.223 46.0095 238.375 46.1659 238.451 46.4004L221.705 56.3309C221.63 56.1745 221.554 55.9399 221.402 55.7835Z" fill="#9E90E6"/>
<path d="M221.705 56.3308L238.45 46.3222C238.602 46.635 238.753 46.9477 238.905 47.1823L222.235 57.2691C222.084 56.9564 221.857 56.6436 221.705 56.3308Z" fill="#A295E7"/>
<path d="M222.236 57.2691L238.981 47.2605C239.285 47.7297 239.512 48.1988 239.815 48.668L223.07 58.5984C222.767 58.2074 222.464 57.7383 222.236 57.2691Z" fill="#A599E8"/>
<path d="M223.068 58.5984L239.813 48.5898C240.041 48.9026 240.192 49.2153 240.42 49.4499L223.675 59.5367C223.447 59.224 223.22 58.9112 223.068 58.5984Z" fill="#A295E7"/>
<path d="M223.674 59.5367L240.419 49.5281C240.57 49.6845 240.722 49.919 240.874 50.0754L224.053 60.0841C223.977 59.9277 223.825 59.6931 223.674 59.5367Z" fill="#9E90E6"/>
<path d="M224.055 60.084L240.8 50.0754C240.951 50.2318 241.027 50.3882 241.179 50.5446L224.509 60.5532C224.358 60.3968 224.206 60.2404 224.055 60.084Z" fill="#998BE4"/>
<path d="M224.508 60.5532L241.253 50.5446C241.404 50.701 241.48 50.8574 241.632 51.0137L224.887 61.0224C224.735 60.866 224.584 60.7096 224.508 60.5532Z" fill="#9384E3"/>
<path d="M224.885 61.0224L241.63 51.0137C241.781 51.1701 241.857 51.3265 242.009 51.4829L225.264 61.4915C225.112 61.3351 224.961 61.1787 224.885 61.0224Z" fill="#8473DF"/>
<path d="M225.268 61.4915L242.013 51.4829C242.164 51.6393 242.316 51.7956 242.392 51.952L225.646 61.9607C225.495 61.8043 225.419 61.6479 225.268 61.4915Z" fill="#8171DB"/>
<path d="M225.645 61.9606L242.39 51.952C242.541 52.1084 242.693 52.2648 242.844 52.4211L226.099 62.3516C225.948 62.2734 225.796 62.117 225.645 61.9606Z" fill="#7F6ED6"/>
<path d="M226.1 62.3516L242.845 52.343C242.996 52.4994 243.148 52.6558 243.299 52.734L226.554 62.8208C226.403 62.6644 226.251 62.508 226.1 62.3516Z" fill="#7C6CD2"/>
<path d="M226.555 62.8208L243.3 52.8122C243.451 52.9685 243.603 53.0467 243.754 53.2031L227.009 63.2117C226.858 63.0554 226.706 62.9772 226.555 62.8208Z" fill="#796ACD"/>
<path d="M227.012 63.2118L243.757 53.2031C243.833 53.2813 243.984 53.4377 244.136 53.5941L227.466 63.6027C227.315 63.4463 227.163 63.3681 227.012 63.2118Z" fill="#7768C9"/>
<path d="M227.463 63.6027L244.132 53.5941C244.284 53.7505 244.435 53.8287 244.587 53.9069L227.842 63.9155C227.69 63.8373 227.614 63.6809 227.463 63.6027Z" fill="#7465C4"/>
<path d="M227.842 63.9155L244.587 53.9069C244.738 53.9851 244.89 54.1414 245.042 54.2196L228.296 64.2283C228.145 64.1501 227.993 64.0719 227.842 63.9155Z" fill="#7263C0"/>
<path d="M228.297 64.2283L245.042 54.2197C245.194 54.2979 245.345 54.4542 245.497 54.5324L228.751 64.5411C228.6 64.4629 228.448 64.3847 228.297 64.2283Z" fill="#6F61BB"/>
<path d="M228.754 64.541L245.499 54.5324C245.651 54.6106 245.802 54.6888 245.954 54.767L229.209 64.8538C229.057 64.6974 228.905 64.6192 228.754 64.541Z" fill="#6C5EB7"/>
<path d="M229.207 64.8538L245.952 54.8452L246.028 54.9234C246.104 55.0016 246.255 55.0798 246.331 55.0798L229.586 65.0884C229.51 65.0102 229.359 64.932 229.283 64.8538C229.207 64.8538 229.207 64.8538 229.207 64.8538Z" fill="#6A5CB2"/>
<path d="M226.932 48.668L243.677 38.6594C243.45 38.8157 243.223 38.9721 243.071 39.2849L226.326 49.2935C226.478 48.9808 226.705 48.8244 226.932 48.668Z" fill="#8B2D2C"/>
<path d="M226.325 49.2935L243.07 39.2849C242.995 39.3631 242.995 39.4413 242.919 39.5195L226.174 49.5281C226.25 49.4499 226.325 49.3717 226.325 49.2935Z" fill="#8F2E2E"/>
<path d="M226.175 49.5282L242.92 39.5195C242.92 39.5977 242.845 39.6759 242.845 39.7541L226.1 49.6845C226.175 49.6063 226.175 49.6063 226.175 49.5282Z" fill="#94302E"/>
<path d="M226.1 49.6844L242.845 39.6758C242.845 39.754 242.769 39.8322 242.769 39.8322L226.1 49.919C226.1 49.8408 226.1 49.7626 226.1 49.6844Z" fill="#983231"/>
<path d="M226.097 49.9191L242.842 39.9104C242.842 39.9886 242.842 39.9886 242.767 40.0668L226.021 50.0754C226.021 49.9972 226.021 49.9191 226.097 49.9191Z" fill="#9D3232"/>
<path d="M226.021 50.0755L242.767 40.0668C242.767 40.145 242.767 40.145 242.767 40.2232L226.021 50.2318C226.021 50.1537 226.021 50.1537 226.021 50.0755Z" fill="#A13433"/>
<path d="M226.023 50.2318L242.768 40.2232C242.768 40.3014 242.768 40.3014 242.768 40.3796L225.947 50.3882C225.947 50.31 225.947 50.31 226.023 50.2318Z" fill="#A63535"/>
<path d="M225.947 50.3882L242.692 40.3796C242.692 40.4578 242.692 40.4578 242.692 40.536L225.947 50.5446C225.947 50.5446 225.947 50.4664 225.947 50.3882Z" fill="#AA3736"/>
<path d="M225.947 50.5446L242.692 40.536C242.692 40.6142 242.692 40.6142 242.692 40.6924L225.947 50.701C225.947 50.701 225.947 50.6228 225.947 50.5446Z" fill="#AF3937"/>
<path d="M225.947 50.701L242.692 40.6924C242.692 40.7706 242.692 40.7706 242.692 40.8488L225.947 50.9356C225.947 50.8574 225.947 50.7792 225.947 50.701Z" fill="#B33A3A"/>
<path d="M225.947 50.9356L242.692 40.9269C242.692 41.0051 242.692 41.0051 242.692 41.0833L225.947 51.0919C225.947 51.0138 225.947 50.9356 225.947 50.9356Z" fill="#B83B3A"/>
<path d="M225.947 51.0919L242.692 41.0833C242.692 41.1615 242.692 41.1615 242.692 41.2397L225.947 51.2483C225.947 51.1701 225.947 51.0919 225.947 51.0919Z" fill="#BC3D3C"/>
<path d="M225.947 51.2483L242.692 41.2397C242.692 41.3179 242.692 41.3179 242.692 41.3961L225.947 51.4047C225.947 51.3265 225.947 51.3265 225.947 51.2483Z" fill="#C03E3D"/>
<path d="M225.947 51.4047L242.692 41.3961C242.692 41.4743 242.692 41.4743 242.692 41.5525L225.947 51.5611C225.947 51.4829 225.947 51.4829 225.947 51.4047Z" fill="#C5403F"/>
<path d="M225.947 51.5611L242.692 41.5524C242.692 41.6306 242.692 41.6306 242.692 41.7088L226.023 51.7174C226.023 51.7174 226.023 51.6392 225.947 51.5611Z" fill="#C94240"/>
<path d="M226.021 51.7175L242.767 41.7089C242.767 41.7871 242.767 41.7871 242.767 41.8652L226.021 51.9521C226.021 51.8739 226.021 51.7957 226.021 51.7175Z" fill="#CE4241"/>
<path d="M226.021 51.9521L242.767 41.9435C242.767 42.0216 242.767 42.0998 242.767 42.0998L226.097 52.1085C226.021 52.0303 226.021 51.9521 226.021 51.9521Z" fill="#D24443"/>
<path d="M226.1 52.1084L242.845 42.0998C242.845 42.178 242.845 42.2562 242.92 42.2562L226.1 52.2648C226.1 52.1866 226.1 52.1866 226.1 52.1084Z" fill="#D74644"/>
<path d="M226.1 52.2648L242.845 42.2562C242.845 42.3344 242.845 42.4126 242.92 42.4126L226.175 52.4994C226.175 52.4212 226.1 52.343 226.1 52.2648Z" fill="#DB4746"/>
<path d="M226.174 52.4994L242.919 42.4908C242.919 42.569 242.919 42.6472 242.995 42.6472L226.174 52.6558C226.174 52.5776 226.174 52.4994 226.174 52.4994Z" fill="#E04948"/>
<path d="M226.174 52.6558L242.919 42.6472C242.919 42.7254 242.919 42.8036 242.995 42.8036L226.25 52.8122C226.25 52.734 226.25 52.734 226.174 52.6558Z" fill="#E44A49"/>
<path d="M226.25 52.8122L242.995 42.8036C242.995 42.8818 243.071 42.9599 243.071 42.9599L226.326 52.9686C226.326 52.9686 226.25 52.8904 226.25 52.8122Z" fill="#E94B4A"/>
<path d="M226.326 52.9686L243.071 42.9599C243.071 43.0381 243.147 43.0381 243.147 43.1163L226.402 53.2031C226.326 53.1249 226.326 53.0467 226.326 52.9686Z" fill="#ED4D4B"/>
<path d="M226.402 53.2031L243.147 43.1945C243.147 43.2727 243.223 43.2727 243.223 43.3509L226.478 53.3595C226.402 53.2813 226.402 53.2031 226.402 53.2031Z" fill="#F24E4D"/>
<path d="M226.477 53.3595L243.222 43.3509C243.222 43.4291 243.297 43.4291 243.297 43.5073L226.552 53.5159C226.477 53.4377 226.477 53.3595 226.477 53.3595Z" fill="#F6504E"/>
<path d="M226.553 53.5159L243.298 43.5073C243.298 43.5855 243.374 43.5855 243.374 43.6637L226.629 53.6723C226.553 53.5941 226.553 53.5941 226.553 53.5159Z" fill="#FA6160"/>
<path d="M226.627 53.6723L243.372 43.6637C243.372 43.7419 243.448 43.8201 243.448 43.8201L226.703 53.8287C226.627 53.8287 226.627 53.7505 226.627 53.6723Z" fill="#FB6967"/>
<path d="M226.703 53.8287L243.448 43.8201C243.448 43.8983 243.524 43.9765 243.524 44.0546L226.779 54.0633C226.779 53.9851 226.703 53.9069 226.703 53.8287Z" fill="#FD6E6C"/>
<path d="M226.781 54.0633L243.526 44.0546C243.602 44.1328 243.602 44.2892 243.678 44.3674L226.933 54.376C226.933 54.2978 226.857 54.1414 226.781 54.0633Z" fill="#FE7372"/>
<path d="M226.934 54.376L243.679 44.3674C243.754 44.5238 243.83 44.6801 243.906 44.7583L227.237 54.767C227.085 54.6888 227.009 54.5324 226.934 54.376Z" fill="#FF7676"/>
<path d="M227.236 54.767L243.981 44.7584C244.057 44.8366 244.133 44.9929 244.209 45.0711L227.388 55.0798C227.312 55.0016 227.312 54.9234 227.236 54.767Z" fill="#FE7372"/>
<path d="M227.389 55.0797L244.134 45.0711C244.21 45.1493 244.21 45.2275 244.285 45.3057L227.54 55.3143C227.54 55.2361 227.464 55.1579 227.389 55.0797Z" fill="#FD6E6C"/>
<path d="M227.537 55.3143L244.282 45.3057C244.358 45.3839 244.358 45.3839 244.434 45.4621L227.689 55.4707C227.689 55.3925 227.613 55.3925 227.537 55.3143Z" fill="#FB6967"/>
<path d="M227.689 55.4707L244.435 45.4621C244.51 45.5403 244.51 45.5403 244.586 45.6185L227.841 55.6271C227.765 55.5489 227.765 55.5489 227.689 55.4707Z" fill="#FA6160"/>
<path d="M227.842 55.6271L244.587 45.6185C244.663 45.6967 244.663 45.6967 244.738 45.7749L227.993 55.7835C227.918 55.7053 227.842 55.7053 227.842 55.6271Z" fill="#F6504E"/>
<path d="M227.992 55.7834L244.662 45.7748C244.737 45.853 244.737 45.853 244.813 45.9312L228.068 55.9398C228.068 55.8616 227.992 55.8616 227.992 55.7834Z" fill="#F24E4D"/>
<path d="M228.068 55.9399L244.813 45.9312C244.889 46.0094 244.889 46.0094 244.965 46.0876L228.22 56.0963C228.22 56.0181 228.144 56.0181 228.068 55.9399Z" fill="#ED4D4B"/>
<path d="M228.219 56.0963L244.964 46.0877C245.04 46.1659 245.04 46.1659 245.115 46.2441L228.37 56.2527C228.37 56.1745 228.295 56.0963 228.219 56.0963Z" fill="#E94B4A"/>
<path d="M228.371 56.2526L245.116 46.244C245.192 46.3222 245.192 46.3222 245.268 46.4004L228.523 56.3308C228.523 56.3308 228.447 56.2526 228.371 56.2526Z" fill="#E44A49"/>
<path d="M228.523 56.3309L245.269 46.3222C245.344 46.4004 245.344 46.4004 245.42 46.4786L228.675 56.4872C228.599 56.409 228.599 56.409 228.523 56.3309Z" fill="#E04948"/>
<path d="M228.676 56.4872L245.421 46.4786C245.497 46.5568 245.497 46.5568 245.572 46.5568L228.827 56.5654C228.752 56.5654 228.752 56.4872 228.676 56.4872Z" fill="#DB4746"/>
<path d="M228.828 56.5654L245.573 46.5568C245.649 46.5568 245.649 46.635 245.725 46.635L228.98 56.7218C228.904 56.6436 228.904 56.6436 228.828 56.5654Z" fill="#D74644"/>
<path d="M228.979 56.7218L245.724 46.7132C245.799 46.7132 245.799 46.7914 245.875 46.7914L229.13 56.8C229.054 56.8 229.054 56.7218 228.979 56.7218Z" fill="#D24443"/>
<path d="M229.131 56.8L245.876 46.7914C245.952 46.7914 245.952 46.8696 246.028 46.8696L229.282 56.8782C229.207 56.8782 229.131 56.8 229.131 56.8Z" fill="#CE4241"/>
<path d="M229.279 56.8782L245.949 46.8696H246.024L229.279 56.8782Z" fill="#C94240"/>
<path d="M229.277 56.8782L246.022 46.8695L246.098 46.9477L229.429 56.9563C229.353 56.9563 229.353 56.9564 229.277 56.8782Z" fill="#C94240"/>
<path d="M229.43 56.9563L246.175 46.9477C246.251 46.9477 246.251 47.0259 246.326 47.0259L229.505 57.0345L229.43 56.9563Z" fill="#C5403F"/>
<path d="M229.504 57.0346L246.249 47.026C246.325 47.026 246.325 47.1042 246.401 47.1042L229.655 57.1128C229.655 57.1128 229.58 57.0346 229.504 57.0346Z" fill="#C03E3D"/>
<path d="M229.656 57.1128L246.401 47.1041C246.477 47.1041 246.477 47.1823 246.553 47.1823L229.808 57.1909C229.732 57.1128 229.732 57.1128 229.656 57.1128Z" fill="#BC3D3C"/>
<path d="M229.807 57.1909L246.552 47.1823C246.628 47.1823 246.628 47.1823 246.703 47.2604L229.958 57.1909C229.882 57.1909 229.882 57.1909 229.807 57.1909Z" fill="#B83B3A"/>
<path d="M229.957 57.1909L246.702 47.1823C246.778 47.1823 246.778 47.1823 246.854 47.2604L230.109 57.2691C230.033 57.2691 229.957 57.2691 229.957 57.1909Z" fill="#B33A3A"/>
<path d="M230.111 57.2691L246.856 47.2605C246.932 47.2605 246.932 47.2605 247.008 47.3387L230.187 57.2691H230.111Z" fill="#AF3937"/>
<path d="M230.188 57.2691L246.933 47.2605C247.008 47.2605 247.008 47.2605 247.084 47.2605L230.339 57.3473C230.339 57.3473 230.263 57.3473 230.188 57.2691Z" fill="#AA3736"/>
<path d="M230.34 57.3473L247.085 47.3387C247.161 47.3387 247.161 47.3387 247.237 47.3387L230.491 57.3473C230.491 57.3473 230.416 57.3473 230.34 57.3473Z" fill="#A63535"/>
<path d="M230.49 57.3473L247.235 47.3387C247.311 47.3387 247.311 47.3387 247.387 47.3387L230.642 57.3473C230.566 57.3473 230.566 57.3473 230.49 57.3473Z" fill="#A13433"/>
<path d="M230.643 57.3473L247.388 47.3387C247.463 47.3387 247.463 47.3387 247.539 47.3387L230.794 57.3473C230.794 57.3473 230.718 57.3473 230.643 57.3473Z" fill="#9D3232"/>
<path d="M230.793 57.3473L247.538 47.3387C247.614 47.3387 247.69 47.3387 247.69 47.3387L231.02 57.3473C230.945 57.3473 230.869 57.3473 230.793 57.3473Z" fill="#983231"/>
<path d="M231.02 57.3473L247.765 47.3387C247.84 47.3387 247.916 47.3387 247.992 47.3387L231.171 57.3473C231.095 57.3473 231.02 57.3473 231.02 57.3473Z" fill="#94302E"/>
<path d="M231.172 57.3473L247.917 47.3387C247.993 47.3387 248.069 47.2605 248.144 47.2605L231.399 57.2691C231.323 57.2691 231.248 57.3473 231.172 57.3473Z" fill="#8F2E2E"/>
<path d="M231.398 57.2691L248.144 47.2605C248.219 47.2605 248.295 47.1823 248.447 47.1041L231.702 57.1128C231.626 57.1909 231.55 57.2691 231.398 57.2691Z" fill="#8B2D2C"/>
<path d="M245.191 92.3775L261.937 82.3689C262.012 82.4471 262.164 82.5253 262.24 82.5253L245.494 92.5339C245.419 92.5339 245.343 92.4557 245.191 92.3775Z" fill="#CAA488"/>
<path d="M245.57 92.5339L262.315 82.5253C262.467 82.6035 262.618 82.6817 262.694 82.7599L245.949 92.7685C245.798 92.6903 245.646 92.6121 245.57 92.5339Z" fill="#C5A085"/>
<path d="M245.947 92.7684L262.692 82.7598C262.844 82.838 262.995 82.9162 263.071 82.9944L246.326 93.003C246.175 92.9248 246.099 92.8466 245.947 92.7684Z" fill="#C09C81"/>
<path d="M246.328 93.003L263.073 82.9944C263.225 83.0726 263.376 83.1508 263.452 83.1508L246.707 93.1594C246.631 93.0812 246.48 93.003 246.328 93.003Z" fill="#BB987E"/>
<path d="M246.781 93.1595L263.526 83.1508C263.678 83.229 263.829 83.229 263.905 83.3072L247.16 93.3159C247.009 93.2377 246.857 93.2377 246.781 93.1595Z" fill="#B6947A"/>
<path d="M247.162 93.3158L263.907 83.3072C264.059 83.3854 264.21 83.3854 264.286 83.4636L247.541 93.4722C247.389 93.394 247.314 93.394 247.162 93.3158Z" fill="#B19077"/>
<path d="M247.541 93.4722L264.286 83.4636C264.438 83.5418 264.589 83.5418 264.665 83.6199L247.92 93.6286C247.844 93.5504 247.693 93.4722 247.541 93.4722Z" fill="#AC8B74"/>
<path d="M247.994 93.5504L264.739 83.5418C264.891 83.5418 265.042 83.62 265.118 83.62L248.373 93.6286C248.221 93.6286 248.146 93.6286 247.994 93.5504Z" fill="#A78770"/>
<path d="M248.375 93.6286L265.12 83.62C265.272 83.62 265.423 83.6982 265.575 83.6982L248.83 93.7068C248.678 93.7068 248.527 93.7068 248.375 93.6286Z" fill="#A2836D"/>
<path d="M248.828 93.7068L265.573 83.6982C265.725 83.6982 265.876 83.6982 266.028 83.7764L249.283 93.785C249.131 93.785 248.98 93.785 248.828 93.7068Z" fill="#9D7F69"/>
<path d="M249.283 93.785L266.028 83.7764C266.18 83.7764 266.331 83.7764 266.483 83.7764L249.738 93.785C249.586 93.785 249.435 93.785 249.283 93.785Z" fill="#987B66"/>
<path d="M249.738 93.785L266.483 83.7764C266.635 83.7764 266.862 83.7764 267.014 83.7764L250.269 93.785C250.117 93.785 249.966 93.785 249.738 93.785Z" fill="#937763"/>
<path d="M250.268 93.785L267.013 83.7764C267.24 83.7764 267.392 83.6982 267.619 83.6982L250.874 93.7068C250.646 93.7068 250.495 93.785 250.268 93.785Z" fill="#8E735F"/>
<path d="M250.873 93.7068L267.618 83.6981C267.845 83.6199 268.073 83.5418 268.3 83.4636L251.555 93.4722C251.328 93.5504 251.1 93.6286 250.873 93.7068Z" fill="#896F5C"/>
<path d="M251.555 93.4722L268.3 83.4636C268.603 83.3854 268.83 83.229 269.133 83.0726L252.388 93.0813C252.161 93.2376 251.858 93.394 251.555 93.4722Z" fill="#846B58"/>
<path d="M170.783 80.0232L187.453 70.0145L304.214 139.528L287.469 149.536L170.783 80.0232Z" fill="#DCDCDC"/>
<path d="M287.47 149.536L304.215 139.528L303.685 325.156L287.016 335.165L287.47 149.536Z" fill="#C5C5C5"/>
<path d="M255.35 86.4349L272.095 76.4262L255.35 86.4349Z" fill="#5F53A1"/>
<path d="M255.35 86.4349L272.095 76.4262C272.095 76.5826 272.095 76.739 272.095 76.8954L255.35 86.904C255.35 86.8258 255.35 86.5913 255.35 86.4349Z" fill="#5C519C"/>
<path d="M255.35 86.9822L272.095 76.9736C272.095 77.13 272.095 77.2864 272.095 77.4428L255.35 87.4514C255.35 87.295 255.35 87.1386 255.35 86.9822Z" fill="#5A4E98"/>
<path d="M255.349 87.4513L272.094 77.4427C272.094 77.5991 272.094 77.7555 272.019 77.9119L255.273 87.9205C255.273 87.7641 255.273 87.6077 255.349 87.4513Z" fill="#574C93"/>
<path d="M255.271 87.9205L272.016 77.9119C272.016 78.0683 271.94 78.2247 271.94 78.3811L255.195 88.3897C255.195 88.2333 255.271 88.0769 255.271 87.9205Z" fill="#544A8F"/>
<path d="M255.197 88.4679L271.942 78.4593C271.942 78.6156 271.866 78.772 271.866 78.9284L255.121 88.9371C255.121 88.7807 255.197 88.6243 255.197 88.4679Z" fill="#52478A"/>
<path d="M255.12 88.9371L271.865 78.9284C271.79 79.0848 271.79 79.3194 271.714 79.4758L254.969 89.4844C255.045 89.328 255.045 89.0935 255.12 88.9371Z" fill="#4F4586"/>
<path d="M254.968 89.4844L271.713 79.4757C271.637 79.6321 271.637 79.8667 271.562 80.0231L254.816 90.0317C254.816 89.7971 254.892 89.6407 254.968 89.4844Z" fill="#4D4381"/>
<path d="M254.815 90.0317L271.56 80.0231C271.485 80.2577 271.409 80.4141 271.333 80.6486L254.588 90.6573C254.664 90.4227 254.739 90.1881 254.815 90.0317Z" fill="#4A407D"/>
<path d="M254.514 90.5791L271.259 80.5704C271.107 80.805 271.031 81.0396 270.88 81.2742L254.135 91.2828C254.286 91.1264 254.438 90.8136 254.514 90.5791Z" fill="#473E78"/>
<path d="M254.135 91.2828L270.88 81.2741C270.426 82.0561 269.82 82.6034 269.138 83.0726L252.393 93.0812C253.075 92.6902 253.681 92.0647 254.135 91.2828Z" fill="#453C74"/>
<path d="M229.357 40.9269L246.103 30.9183L246.178 30.9965L229.433 41.0051L229.357 40.9269Z" fill="#C94240"/>
<path d="M229.432 41.0051L246.177 30.9965C246.328 31.0747 246.48 31.1528 246.631 31.231L229.886 41.2397C229.735 41.1615 229.583 41.0833 229.432 41.0051Z" fill="#CE4241"/>
<path d="M229.887 41.2396L246.632 31.231C246.783 31.3092 246.935 31.3874 247.086 31.5438L230.266 41.5524C230.114 41.4742 230.038 41.396 229.887 41.2396Z" fill="#D24443"/>
<path d="M230.268 41.5525L247.013 31.5438C247.164 31.622 247.316 31.7784 247.467 31.8566L230.722 41.8652C230.571 41.787 230.419 41.6306 230.268 41.5525Z" fill="#D74644"/>
<path d="M230.723 41.8652L247.468 31.8566C247.619 31.9348 247.771 32.0911 247.922 32.1693L231.177 42.2562C231.026 42.0998 230.874 42.0216 230.723 41.8652Z" fill="#DB4746"/>
<path d="M231.176 42.2562L247.921 32.2476C248.072 32.404 248.224 32.4822 248.376 32.6386L231.63 42.6472C231.479 42.4908 231.327 42.3344 231.176 42.2562Z" fill="#E04948"/>
<path d="M231.629 42.6471L248.374 32.6385C248.526 32.7949 248.677 32.8731 248.829 33.0295L232.084 43.0381C231.932 42.8817 231.78 42.7253 231.629 42.6471Z" fill="#E44A49"/>
<path d="M232.086 43.0381L248.831 33.0295C248.983 33.1859 249.134 33.3423 249.286 33.4205L232.541 43.4291C232.389 43.2727 232.237 43.1163 232.086 43.0381Z" fill="#E94B4A"/>
<path d="M232.541 43.4291L249.286 33.4205C249.438 33.5769 249.589 33.7332 249.741 33.8896L232.996 43.8983C232.844 43.7419 232.693 43.5855 232.541 43.4291Z" fill="#ED4D4B"/>
<path d="M232.918 43.8982L249.663 33.8896C249.815 34.046 249.966 34.2024 250.042 34.3587L233.297 44.3674C233.221 44.1328 233.07 44.0546 232.918 43.8982Z" fill="#F24E4D"/>
<path d="M233.371 44.2891L250.116 34.2805C250.268 34.4369 250.344 34.5933 250.495 34.7497L233.75 44.7583C233.598 44.6019 233.523 44.4455 233.371 44.2891Z" fill="#F6504E"/>
<path d="M233.752 44.7583L250.497 34.7497C250.649 34.9061 250.724 35.0625 250.876 35.2188L234.131 45.2275C233.979 45.0711 233.903 44.9147 233.752 44.7583Z" fill="#FA6160"/>
<path d="M234.131 45.2275L250.876 35.2188C251.028 35.3752 251.103 35.5316 251.255 35.688L234.51 45.7748C234.434 45.5402 234.282 45.3839 234.131 45.2275Z" fill="#FB6967"/>
<path d="M234.51 45.7748L251.255 35.7662C251.406 36.0008 251.558 36.1572 251.709 36.3917L234.964 46.4004C234.813 46.1658 234.661 45.9312 234.51 45.7748Z" fill="#FD6E6C"/>
<path d="M234.965 46.3222L251.71 36.3135C251.937 36.6263 252.165 36.9391 252.316 37.2518L235.571 47.2605C235.419 46.9477 235.192 46.6349 234.965 46.3222Z" fill="#FE7372"/>
<path d="M235.646 47.2605L252.392 37.2519C252.619 37.6429 252.922 38.0338 253.149 38.503L236.404 48.5116C236.101 48.1206 235.874 47.6515 235.646 47.2605Z" fill="#FF7676"/>
<path d="M236.404 48.5115L253.149 38.5029C253.301 38.8157 253.452 39.1284 253.68 39.4412L236.935 49.4498C236.707 49.1371 236.556 48.8243 236.404 48.5115Z" fill="#FE7372"/>
<path d="M236.859 49.4498L253.604 39.4412C253.68 39.6758 253.832 39.8322 253.908 40.0668L237.162 50.0754C237.087 49.8408 237.011 49.6062 236.859 49.4498Z" fill="#FD6E6C"/>
<path d="M237.16 50.0754L253.905 40.0668C253.981 40.2232 254.057 40.4577 254.133 40.6141L237.387 50.6227C237.387 50.3882 237.236 50.2318 237.16 50.0754Z" fill="#FB6967"/>
<path d="M237.465 50.6227L254.21 40.6141C254.286 40.7705 254.362 40.9269 254.437 41.0833L237.692 51.0919C237.616 50.9355 237.541 50.7791 237.465 50.6227Z" fill="#FA6160"/>
<path d="M237.691 51.0919L254.437 41.0833C254.512 41.2396 254.588 41.396 254.664 41.5524L237.919 51.561C237.767 51.4046 237.691 51.2483 237.691 51.0919Z" fill="#F6504E"/>
<path d="M237.846 51.6393L254.591 41.6306C254.667 41.787 254.742 41.9434 254.818 42.0998L238.073 52.1084C237.997 51.952 237.921 51.7957 237.846 51.6393Z" fill="#F24E4D"/>
<path d="M238.07 52.1084L254.815 42.0998C254.891 42.2562 254.967 42.4126 254.967 42.6471L238.222 52.6558C238.222 52.4212 238.146 52.2648 238.07 52.1084Z" fill="#ED4D4B"/>
<path d="M238.223 52.6558L254.968 42.6472C255.044 42.8035 255.119 43.0381 255.119 43.1945L238.374 53.2031C238.374 52.9686 238.298 52.8122 238.223 52.6558Z" fill="#E94B4A"/>
<path d="M238.451 53.1249L255.196 43.1163C255.272 43.2727 255.348 43.5072 255.348 43.6636L238.603 53.6722C238.527 53.5159 238.451 53.3595 238.451 53.1249Z" fill="#E44A49"/>
<path d="M238.602 53.6723L255.347 43.6637C255.422 43.8201 255.422 44.0546 255.498 44.211L238.753 54.2196C238.677 54.0633 238.677 53.9069 238.602 53.6723Z" fill="#E04948"/>
<path d="M238.752 54.2196L255.497 44.211C255.573 44.3674 255.573 44.6019 255.649 44.7583L238.903 54.7669C238.828 54.6106 238.828 54.4542 238.752 54.2196Z" fill="#DB4746"/>
<path d="M238.904 54.767L255.649 44.7583C255.725 44.9147 255.725 45.1493 255.801 45.3057L239.056 55.3143C238.98 55.1579 238.904 55.0015 238.904 54.767Z" fill="#D74644"/>
<path d="M238.979 55.3143L255.724 45.3057C255.799 45.4621 255.799 45.6967 255.799 45.8531L239.054 55.8617C239.054 55.7053 239.054 55.5489 238.979 55.3143Z" fill="#D24443"/>
<path d="M239.133 55.8616L255.878 45.853C255.878 46.0094 255.954 46.244 255.954 46.4004L239.209 56.409C239.209 56.2526 239.133 56.0962 239.133 55.8616Z" fill="#CE4241"/>
<path d="M239.207 56.409L255.952 46.4004C255.952 46.5567 256.028 46.7131 256.028 46.9477L239.283 56.9563C239.283 56.7999 239.207 56.5654 239.207 56.409Z" fill="#C94240"/>
<path d="M239.283 56.9563L256.028 46.9477C256.028 47.104 256.104 47.2604 256.104 47.495L239.359 57.5036C239.359 57.2691 239.283 57.1127 239.283 56.9563Z" fill="#C5403F"/>
<path d="M239.359 57.4255L256.104 47.4169C256.104 47.5733 256.104 47.7297 256.18 47.8861L239.435 57.8947C239.359 57.8165 239.359 57.6601 239.359 57.4255Z" fill="#C03E3D"/>
<path d="M239.359 57.9729L256.104 47.9642C256.104 48.1206 256.104 48.277 256.104 48.4334L239.359 58.442C239.359 58.2856 239.359 58.1292 239.359 57.9729Z" fill="#BC3D3C"/>
<path d="M239.436 58.442L256.181 48.4334C256.181 48.5898 256.181 48.7462 256.181 48.9025L239.436 58.9112C239.436 58.7548 239.436 58.5984 239.436 58.442Z" fill="#B83B3A"/>
<path d="M239.436 58.9893L256.181 48.9807C256.181 49.1371 256.181 49.2935 256.181 49.4499L239.436 59.4585C239.436 59.3021 239.436 59.1457 239.436 58.9893Z" fill="#B33A3A"/>
<path d="M239.359 59.4585L256.104 49.4499C256.104 49.6062 256.104 49.7626 256.104 49.919L239.359 59.9276C239.359 59.7713 239.359 59.6149 239.359 59.4585Z" fill="#AF3937"/>
<path d="M239.359 59.9276L256.104 49.919C256.104 50.0754 256.104 50.2318 256.028 50.3882L239.283 60.3968C239.359 60.3186 239.359 60.1622 239.359 59.9276Z" fill="#AA3736"/>
<path d="M239.283 60.475L256.028 50.4664C256.028 50.6228 255.952 50.7792 255.952 50.9356L239.207 60.9442C239.283 60.7878 239.283 60.6314 239.283 60.475Z" fill="#A63535"/>
<path d="M239.209 60.9442L255.954 50.9356C255.954 51.092 255.878 51.2483 255.878 51.4829L239.133 61.4916C239.209 61.3352 239.209 61.1006 239.209 60.9442Z" fill="#A13433"/>
<path d="M239.13 61.4915L255.875 51.4829C255.799 51.6393 255.799 51.8738 255.724 52.0302L238.979 62.0389C239.054 61.8043 239.13 61.6479 239.13 61.4915Z" fill="#9D3232"/>
<path d="M238.98 61.9607L255.725 51.952C255.649 52.1084 255.649 52.343 255.573 52.4994L238.828 62.508C238.904 62.3516 238.98 62.1952 238.98 61.9607Z" fill="#983231"/>
<path d="M238.829 62.508L255.574 52.4994C255.498 52.7339 255.422 52.8903 255.347 53.1249L238.602 63.1335C238.677 62.9771 238.753 62.7426 238.829 62.508Z" fill="#94302E"/>
<path d="M238.602 63.1335L255.347 53.1249C255.195 53.3595 255.044 53.5941 254.968 53.8286L238.223 63.8373C238.374 63.6027 238.45 63.3681 238.602 63.1335Z" fill="#8F2E2E"/>
<path d="M238.223 63.8373L254.968 53.8286C254.892 53.9068 254.816 53.985 254.741 54.0632C254.286 54.6888 253.756 55.2361 253.149 55.5489L236.404 65.5575C237.01 65.1665 237.541 64.6974 237.995 64.0718C238.071 63.9937 238.147 63.9155 238.223 63.8373Z" fill="#8B2D2C"/>
<path d="M229.356 40.9269C234.963 44.2892 239.434 52.343 239.434 58.9111C239.434 61.1005 238.903 62.8208 238.07 64.0718C236.327 66.574 233.069 67.0431 229.28 64.8538C225.568 62.6644 222.31 58.2856 220.567 53.6722C219.658 51.4047 219.203 49.0589 219.203 46.8695C219.203 40.3014 223.749 37.6428 229.356 40.9269ZM229.28 56.8781C231.175 57.9728 232.69 57.1127 232.69 54.9233C232.69 52.7339 231.175 49.9972 229.356 48.9025C227.462 47.8078 225.947 48.6679 225.947 50.9355C225.947 53.1249 227.462 55.7834 229.28 56.8781Z" fill="#F74D46"/>
<path d="M245.265 68.4506C250.796 71.7347 255.342 79.8667 255.342 86.4349C255.342 93.0031 250.796 95.6616 245.189 92.3775L213.214 73.2986C207.683 70.0145 203.137 61.8825 203.137 55.3143C203.137 48.7462 207.683 46.0094 213.29 49.3717L220.564 53.6723C222.306 58.2856 225.565 62.6644 229.277 64.8538C232.99 67.1214 236.324 66.6522 238.067 64.0719L245.265 68.4506Z" fill="#F74D46"/>
<path d="M291.561 108.016C297.168 111.3 301.638 119.354 301.638 126L300.957 349.552C300.957 356.199 296.41 358.857 290.803 355.495L166.314 281.29C160.707 277.928 156.236 269.874 156.236 263.306L156.842 39.754C156.842 33.1077 161.389 30.4491 166.996 33.8114L203.214 55.3925C203.214 61.9607 207.76 70.0927 213.291 73.3768L245.266 92.4557C250.797 95.7398 255.419 93.0812 255.419 86.5131L291.561 108.016ZM287.015 335.165L287.545 149.536L170.784 80.0231L170.254 265.652L287.015 335.165Z" fill="#FDCDAA"/>
<path d="M287.47 149.536L287.015 335.165L170.254 265.652L170.784 80.0231L287.47 149.536Z" fill="white"/>
<path d="M222.156 40.2232L238.901 30.2145C239.129 30.0582 239.432 29.9018 239.735 29.8236L222.99 39.8322C222.687 39.9104 222.384 40.0668 222.156 40.2232Z" fill="#8B2D2C"/>
<path d="M222.99 39.8323L239.735 29.8236C239.963 29.7454 240.19 29.6672 240.417 29.5891L223.672 39.5977C223.445 39.6759 223.218 39.7541 222.99 39.8323Z" fill="#8F2E2E"/>
<path d="M223.672 39.5977L240.417 29.5891C240.569 29.5109 240.796 29.5109 241.023 29.5109L224.278 39.5195C224.051 39.5195 223.899 39.5977 223.672 39.5977Z" fill="#94302E"/>
<path d="M224.277 39.5195L241.022 29.5109C241.174 29.5109 241.401 29.5109 241.553 29.5109L224.808 39.5195C224.58 39.5195 224.429 39.5195 224.277 39.5195Z" fill="#983231"/>
<path d="M224.807 39.5195L241.552 29.5109C241.703 29.5109 241.855 29.5109 242.006 29.5109L225.261 39.5195C225.11 39.5195 224.958 39.5195 224.807 39.5195Z" fill="#9D3232"/>
<path d="M225.262 39.5195L242.007 29.5109C242.158 29.5109 242.31 29.5109 242.461 29.5891L225.716 39.5977C225.565 39.5195 225.413 39.5195 225.262 39.5195Z" fill="#A13433"/>
<path d="M225.717 39.5977L242.462 29.5891C242.613 29.5891 242.765 29.6672 242.917 29.6672L226.171 39.6759C226.02 39.5977 225.868 39.5977 225.717 39.5977Z" fill="#A63535"/>
<path d="M226.17 39.6759L242.915 29.6673C243.067 29.6673 243.218 29.7455 243.294 29.7455L226.549 39.7541C226.397 39.6759 226.246 39.6759 226.17 39.6759Z" fill="#AA3736"/>
<path d="M226.551 39.7541L243.296 29.7455C243.447 29.7455 243.599 29.8236 243.675 29.9018L227.005 39.8323C226.854 39.8323 226.702 39.7541 226.551 39.7541Z" fill="#AF3937"/>
<path d="M227.004 39.8322L243.749 29.8236C243.901 29.9018 244.052 29.9018 244.128 29.98L227.383 39.9886C227.231 39.9104 227.08 39.9104 227.004 39.8322Z" fill="#B33A3A"/>
<path d="M227.385 39.9886L244.13 29.98C244.281 30.0582 244.433 30.0582 244.509 30.1364L227.764 40.145C227.688 40.0668 227.536 40.0668 227.385 39.9886Z" fill="#B83B3A"/>
<path d="M227.764 40.145L244.509 30.1364C244.66 30.2146 244.812 30.2146 244.888 30.2928L228.218 40.3014C228.067 40.3014 227.915 40.2232 227.764 40.145Z" fill="#BC3D3C"/>
<path d="M228.217 40.3014L244.962 30.2928C245.113 30.371 245.265 30.4492 245.341 30.5274L228.596 40.536C228.444 40.4578 228.293 40.3796 228.217 40.3014Z" fill="#C03E3D"/>
<path d="M228.6 40.5359L245.345 30.5273C245.496 30.6055 245.648 30.6837 245.724 30.7619L228.978 40.7705C228.903 40.6923 228.751 40.6141 228.6 40.5359Z" fill="#C5403F"/>
<path d="M228.975 40.7706L245.72 30.7619C245.795 30.8401 245.947 30.9183 246.023 30.9183L229.353 40.9269C229.202 40.8488 229.126 40.8488 228.975 40.7706Z" fill="#C94240"/>
<path d="M238.066 64.1501L254.736 54.0632L262.01 58.3638L245.265 68.4506L238.066 64.1501Z" fill="#D74644"/>
<path d="M245.27 68.4506L262.015 58.442L262.09 58.5202L245.345 68.4506C245.345 68.4506 245.345 68.4506 245.27 68.4506Z" fill="#C94240"/>
<path d="M245.344 68.4506L262.089 58.442C262.24 58.5202 262.392 58.5984 262.543 58.6766L245.798 68.6852C245.647 68.6852 245.495 68.607 245.344 68.4506Z" fill="#CE4241"/>
<path d="M245.799 68.7634L262.544 58.7547C262.695 58.8329 262.847 58.9111 262.999 59.0675L246.253 69.0761C246.102 68.9197 245.95 68.8416 245.799 68.7634Z" fill="#D24443"/>
<path d="M246.256 69.0762L263.001 59.0676C263.153 59.1458 263.304 59.3021 263.456 59.3803L246.71 69.389C246.559 69.2326 246.407 69.1544 246.256 69.0762Z" fill="#D74644"/>
<path d="M246.635 69.3889L263.38 59.3803C263.531 59.4585 263.683 59.6149 263.834 59.6931L247.089 69.7017C246.938 69.6235 246.786 69.4671 246.635 69.3889Z" fill="#DB4746"/>
<path d="M247.088 69.7017L263.833 59.6931C263.985 59.8495 264.136 59.9277 264.288 60.084L247.543 70.0927C247.391 69.9363 247.239 69.8581 247.088 69.7017Z" fill="#E04948"/>
<path d="M247.541 70.0927L264.286 60.084C264.438 60.2404 264.589 60.3186 264.741 60.475L247.996 70.4836C247.844 70.3272 247.693 70.249 247.541 70.0927Z" fill="#E44A49"/>
<path d="M247.998 70.4837L264.743 60.4751C264.895 60.6315 265.046 60.7878 265.198 60.866L248.453 70.8747C248.301 70.7965 248.15 70.6401 247.998 70.4837Z" fill="#E94B4A"/>
<path d="M248.453 70.9528L265.198 60.9442C265.35 61.1006 265.501 61.257 265.653 61.4134L248.908 71.422C248.756 71.1874 248.605 71.031 248.453 70.9528Z" fill="#ED4D4B"/>
<path d="M248.906 71.3437L265.651 61.3351C265.803 61.4915 265.954 61.6479 266.03 61.8042L249.285 71.8129C249.134 71.6565 248.982 71.5001 248.906 71.3437Z" fill="#F24E4D"/>
<path d="M249.283 71.8129L266.028 61.8043C266.18 61.9606 266.256 62.117 266.407 62.2734L249.662 72.282C249.511 72.1256 249.435 71.9693 249.283 71.8129Z" fill="#F6504E"/>
<path d="M249.664 72.2821L266.409 62.2734C266.561 62.4298 266.636 62.5862 266.788 62.7426L250.043 72.7512C249.967 72.5948 249.816 72.4385 249.664 72.2821Z" fill="#FA6160"/>
<path d="M250.043 72.7512L266.788 62.7426C266.94 62.899 267.015 63.0554 267.167 63.2117L250.422 73.2204C250.346 73.064 250.195 72.9076 250.043 72.7512Z" fill="#FB6967"/>
<path d="M250.422 73.2204L267.167 63.2117C267.319 63.4463 267.47 63.6027 267.622 63.8373L250.876 73.8459C250.725 73.6113 250.573 73.4549 250.422 73.2204Z" fill="#FD6E6C"/>
<path d="M250.877 73.8459L267.622 63.8373C267.849 64.1501 268.077 64.4628 268.228 64.7756L251.483 74.7842C251.332 74.4715 251.104 74.1587 250.877 73.8459Z" fill="#FE7372"/>
<path d="M251.559 74.7843L268.304 64.7756C268.531 65.1666 268.834 65.6358 269.061 66.0267L252.316 76.0353C252.089 75.5662 251.786 75.1752 251.559 74.7843Z" fill="#FF7676"/>
<path d="M252.316 76.0353L269.062 66.0266C269.213 66.3394 269.365 66.6522 269.592 66.9649L252.847 76.9736C252.619 76.6608 252.468 76.348 252.316 76.0353Z" fill="#FE7372"/>
<path d="M252.771 76.9736L269.517 66.965C269.592 67.1995 269.744 67.3559 269.82 67.5905L253.075 77.5991C252.999 77.3646 252.923 77.13 252.771 76.9736Z" fill="#FD6E6C"/>
<path d="M253.146 77.5991L269.892 67.5905C269.967 67.7469 270.043 67.9815 270.119 68.1379L253.374 78.1465C253.298 77.9119 253.222 77.7555 253.146 77.5991Z" fill="#FB6967"/>
<path d="M253.377 78.1465L270.122 68.1379C270.198 68.2943 270.274 68.4506 270.349 68.607L253.604 78.6157C253.528 78.4593 253.453 78.3029 253.377 78.1465Z" fill="#FA6160"/>
<path d="M253.604 78.6157L270.349 68.6071C270.424 68.7634 270.5 68.9198 270.576 69.0762L253.831 79.0848C253.755 78.9285 253.679 78.7721 253.604 78.6157Z" fill="#F6504E"/>
<path d="M253.832 79.163L270.577 69.1544C270.577 69.2326 270.653 69.4672 270.729 69.6235L253.984 79.6322C253.984 79.4758 253.908 79.3194 253.832 79.163Z" fill="#F24E4D"/>
<path d="M253.982 79.6322L270.728 69.6235C270.803 69.7799 270.879 69.9363 270.879 70.1709L254.21 80.1795C254.134 79.9449 254.058 79.7885 253.982 79.6322Z" fill="#ED4D4B"/>
<path d="M254.209 80.1795L270.954 70.1709C271.03 70.3273 271.106 70.5618 271.106 70.7182L254.361 80.7268C254.285 80.4923 254.285 80.3359 254.209 80.1795Z" fill="#E94B4A"/>
<path d="M254.363 80.6486L271.108 70.64C271.184 70.7964 271.26 71.031 271.26 71.1874L254.515 81.196C254.515 81.0396 254.439 80.8832 254.363 80.6486Z" fill="#E44A49"/>
<path d="M254.514 81.196L271.259 71.1874C271.335 71.3438 271.335 71.5783 271.41 71.7347L254.665 81.7434C254.665 81.587 254.589 81.4306 254.514 81.196Z" fill="#E04948"/>
<path d="M254.664 81.7433L271.409 71.7347C271.485 71.8911 271.485 72.1257 271.561 72.2821L254.816 82.2907C254.816 82.1343 254.74 81.9779 254.664 81.7433Z" fill="#DB4746"/>
<path d="M254.816 82.2907L271.562 72.282C271.637 72.4384 271.637 72.673 271.713 72.8294L254.968 82.838C254.892 82.6816 254.892 82.5253 254.816 82.2907Z" fill="#D74644"/>
<path d="M254.969 82.8381L271.714 72.8294C271.79 72.9858 271.79 73.2204 271.79 73.3768L255.045 83.3854C255.045 83.229 254.969 83.0726 254.969 82.8381Z" fill="#D24443"/>
<path d="M255.045 83.3854L271.79 73.3768C271.79 73.5332 271.866 73.6895 271.866 73.9241L255.121 83.9327C255.121 83.7764 255.121 83.62 255.045 83.3854Z" fill="#CE4241"/>
<path d="M255.195 83.9327L271.94 73.9241C271.94 74.0805 272.016 74.2369 272.016 74.4715L255.271 84.4801C255.195 84.3237 255.195 84.0891 255.195 83.9327Z" fill="#C94240"/>
<path d="M255.195 84.4801L271.94 74.4714C271.94 74.6278 272.016 74.7842 272.016 74.9406L255.271 84.9492C255.271 84.7928 255.271 84.6364 255.195 84.4801Z" fill="#C5403F"/>
<path d="M255.271 84.9492L272.017 74.9406C272.017 75.097 272.017 75.2534 272.092 75.4098L255.347 85.4184C255.347 85.262 255.271 85.1056 255.271 84.9492Z" fill="#C03E3D"/>
<path d="M255.348 85.4966L272.093 75.488C272.093 75.6444 272.093 75.8007 272.093 75.9571L255.348 85.9658C255.348 85.8094 255.348 85.653 255.348 85.4966Z" fill="#BC3D3C"/>
<path d="M255.348 85.9657L272.093 75.9571C272.093 76.1135 272.093 76.2699 272.093 76.4263L255.348 86.4349C255.348 86.2785 255.348 86.1221 255.348 85.9657Z" fill="#B83B3A"/>
<path d="M301.565 126L318.31 115.913L317.704 339.466L300.959 349.552L301.565 126Z" fill="#C39E83"/>
<path d="M255.342 86.4349L272.087 76.4262L308.229 97.9291L291.56 108.016L255.342 86.4349Z" fill="#DAB193"/>
<path d="M291.561 108.016L308.306 98.0074L308.381 98.0856L291.636 108.094C291.636 108.016 291.561 108.016 291.561 108.016Z" fill="#CAA488"/>
<path d="M291.635 108.016L308.38 98.0074C308.531 98.0856 308.683 98.1638 308.834 98.242L292.089 108.329C291.938 108.251 291.786 108.172 291.635 108.016Z" fill="#CFA88B"/>
<path d="M292.09 108.329L308.835 98.3202C308.986 98.3984 309.138 98.4765 309.29 98.6329L292.544 108.642C292.317 108.485 292.241 108.407 292.09 108.329Z" fill="#D5AC8F"/>
<path d="M292.471 108.642L309.216 98.6329C309.367 98.7111 309.519 98.8675 309.67 98.9457L292.925 108.954C292.774 108.798 292.622 108.72 292.471 108.642Z" fill="#DAB092"/>
<path d="M292.926 108.954L309.671 98.9457C309.822 99.0239 309.974 99.1803 310.125 99.2585L293.38 109.267C293.229 109.189 293.077 109.033 292.926 108.954Z" fill="#DFB496"/>
<path d="M293.379 109.267L310.124 99.2585C310.276 99.4149 310.427 99.4931 310.579 99.6494L293.834 109.658C293.682 109.502 293.53 109.423 293.379 109.267Z" fill="#E4B999"/>
<path d="M293.832 109.658L310.577 99.6494C310.729 99.8058 310.88 99.884 311.032 100.04L294.287 110.049C294.135 109.971 293.984 109.814 293.832 109.658Z" fill="#E9BD9C"/>
<path d="M294.289 110.049L311.034 100.04C311.186 100.197 311.337 100.353 311.489 100.431L294.744 110.44C294.592 110.362 294.441 110.205 294.289 110.049Z" fill="#EEC1A0"/>
<path d="M294.744 110.518L311.489 100.51C311.641 100.666 311.792 100.822 311.944 100.979L295.199 110.987C294.971 110.753 294.896 110.675 294.744 110.518Z" fill="#F3C5A3"/>
<path d="M295.121 110.909L311.866 100.9C312.018 101.057 312.169 101.213 312.245 101.37L295.5 111.378C295.424 111.222 295.273 111.065 295.121 110.909Z" fill="#F8C9A7"/>
<path d="M295.574 111.378L312.319 101.37C312.471 101.526 312.547 101.682 312.698 101.839L295.953 111.847C295.802 111.691 295.726 111.535 295.574 111.378Z" fill="#FDCDAA"/>
<path d="M295.955 111.847L312.7 101.839C312.852 101.995 312.927 102.152 313.079 102.308L296.334 112.317C296.182 112.16 296.107 112.004 295.955 111.847Z" fill="#FDD3B4"/>
<path d="M296.334 112.317L313.079 102.308C313.231 102.464 313.306 102.621 313.458 102.777L296.713 112.786C296.637 112.629 296.486 112.473 296.334 112.317Z" fill="#FDD5B8"/>
<path d="M296.713 112.786L313.458 102.777C313.61 103.012 313.761 103.168 313.913 103.403L297.168 113.411C297.016 113.177 296.864 113.02 296.713 112.786Z" fill="#FDD7BC"/>
<path d="M297.168 113.411L313.913 103.403C314.14 103.715 314.368 104.028 314.519 104.341L297.774 114.35C297.623 114.037 297.395 113.724 297.168 113.411Z" fill="#FDD9BE"/>
<path d="M297.85 114.35L314.595 104.341C314.822 104.732 315.125 105.123 315.352 105.592L298.607 115.601C298.304 115.132 298.077 114.741 297.85 114.35Z" fill="#FEDAC1"/>
<path d="M298.531 115.601L315.276 105.592C315.428 105.905 315.579 106.218 315.807 106.53L299.062 116.539C298.91 116.148 298.759 115.835 298.531 115.601Z" fill="#FDD9BE"/>
<path d="M299.062 116.461L315.808 106.452C315.883 106.687 316.035 106.843 316.111 107.078L299.366 117.086C299.29 116.93 299.138 116.695 299.062 116.461Z" fill="#FDD7BC"/>
<path d="M299.363 117.086L316.108 107.078C316.184 107.234 316.26 107.469 316.336 107.625L299.591 117.634C299.515 117.477 299.439 117.321 299.363 117.086Z" fill="#FDD5B8"/>
<path d="M299.594 117.634L316.339 107.625C316.415 107.781 316.49 107.938 316.566 108.094L299.821 118.103C299.745 118.025 299.67 117.79 299.594 117.634Z" fill="#FDD3B4"/>
<path d="M299.82 118.181L316.565 108.172C316.641 108.329 316.717 108.485 316.793 108.642L300.048 118.65C299.972 118.494 299.896 118.337 299.82 118.181Z" fill="#FDCDAA"/>
<path d="M300.049 118.65L316.794 108.642C316.87 108.798 316.945 108.954 317.021 109.111L300.276 119.119C300.2 118.963 300.125 118.807 300.049 118.65Z" fill="#F8C9A7"/>
<path d="M300.273 119.198L317.019 109.189C317.094 109.345 317.17 109.502 317.17 109.736L300.425 119.745C300.349 119.51 300.349 119.354 300.273 119.198Z" fill="#F3C5A3"/>
<path d="M300.426 119.667L317.171 109.658C317.247 109.814 317.322 110.049 317.322 110.205L300.577 120.214C300.577 120.058 300.502 119.823 300.426 119.667Z" fill="#EEC1A0"/>
<path d="M300.654 120.214L317.399 110.205C317.475 110.362 317.551 110.596 317.551 110.753L300.806 120.761C300.73 120.527 300.654 120.37 300.654 120.214Z" fill="#E9BD9C"/>
<path d="M300.805 120.761L317.55 110.753C317.626 110.909 317.626 111.144 317.701 111.3L300.956 121.309C300.88 121.074 300.805 120.918 300.805 120.761Z" fill="#E4B999"/>
<path d="M300.955 121.309L317.7 111.3C317.776 111.456 317.776 111.691 317.852 111.847L301.107 121.856C301.031 121.621 300.955 121.465 300.955 121.309Z" fill="#DFB496"/>
<path d="M301.107 121.856L317.853 111.847C317.928 112.004 317.928 112.238 318.004 112.395L301.259 122.403C301.183 122.169 301.107 122.012 301.107 121.856Z" fill="#DAB092"/>
<path d="M301.182 122.403L317.927 112.395C318.003 112.551 318.003 112.786 318.003 112.942L301.257 122.951C301.257 122.716 301.257 122.56 301.182 122.403Z" fill="#D5AC8F"/>
<path d="M301.336 122.951L318.081 112.942C318.081 113.099 318.157 113.255 318.157 113.489L301.412 123.498C301.412 123.264 301.336 123.107 301.336 122.951Z" fill="#CFA88B"/>
<path d="M301.41 123.42L318.155 113.411C318.155 113.568 318.231 113.724 318.231 113.959L301.486 123.967C301.486 123.811 301.41 123.654 301.41 123.42Z" fill="#CAA488"/>
<path d="M301.486 123.967L318.231 113.959C318.231 114.115 318.307 114.271 318.307 114.506L301.562 124.515C301.486 124.28 301.486 124.124 301.486 123.967Z" fill="#C5A085"/>
<path d="M301.562 124.515L318.308 114.506C318.308 114.662 318.308 114.819 318.383 114.975L301.638 124.984C301.563 124.827 301.562 124.671 301.562 124.515Z" fill="#C09C81"/>
<path d="M301.562 124.984L318.308 114.975C318.308 115.132 318.308 115.288 318.308 115.444L301.562 125.453C301.562 125.297 301.562 125.14 301.562 124.984Z" fill="#BB987E"/>
<path d="M301.562 125.531L318.308 115.522C318.308 115.679 318.308 115.835 318.308 115.992L301.562 126C301.562 125.844 301.562 125.687 301.562 125.531Z" fill="#B6947A"/>
<path d="M269.964 161.891C271.783 162.985 273.298 165.722 273.298 167.911C273.298 170.101 271.783 170.961 269.889 169.866L187.451 120.683C185.633 119.588 184.117 116.852 184.117 114.662C184.117 112.473 185.633 111.613 187.527 112.708L269.964 161.891Z" fill="#F74D46"/>
<path d="M272.162 265.183C273.98 266.277 275.496 269.014 275.496 271.204C275.496 273.393 273.98 274.253 272.086 273.158L189.724 223.975C187.906 222.881 186.391 220.144 186.391 217.955C186.391 215.765 187.906 214.827 189.8 215.922L272.162 265.183Z" fill="#F74D46"/>
<path d="M271.48 230.778C273.298 231.873 274.814 234.609 274.814 236.799C274.814 238.988 273.298 239.848 271.404 238.754L188.967 189.571C187.148 188.476 185.633 185.739 185.633 183.55C185.633 181.36 187.148 180.5 189.042 181.595L271.48 230.778Z" fill="#F74D46"/>
<path d="M270.723 196.295C272.541 197.39 274.057 200.127 274.057 202.316C274.057 204.505 272.541 205.366 270.647 204.271L188.21 155.166C186.315 154.071 184.8 151.335 184.876 149.145C184.876 146.956 186.391 146.096 188.285 147.19L270.723 196.295Z" fill="#F74D46"/>
<path d="M272.921 299.587C274.74 300.682 276.255 303.419 276.255 305.608C276.255 307.798 274.74 308.658 272.846 307.563L190.408 258.458C188.59 257.363 187.074 254.627 187.074 252.437C187.074 250.248 188.59 249.31 190.484 250.404L272.921 299.587Z" fill="#F74D46"/>
<g opacity="0.3">
<path d="M356.877 381.463C324.599 384.356 289.593 379.665 278.682 370.907C267.771 362.15 285.123 352.688 317.401 349.795C349.679 346.902 384.684 351.594 395.595 360.351C406.43 369.031 389.079 378.492 356.877 381.463Z" fill="#A06944"/>
</g>
<path d="M255.42 273.323L264.512 267.85C261.86 269.414 259.587 271.681 257.844 274.574L248.752 280.048C250.495 277.155 252.768 274.887 255.42 273.323Z" fill="#E0AA36"/>
<path d="M248.752 280.048L257.844 274.574C257.314 275.434 256.859 276.373 256.405 277.311L247.312 282.784C247.691 281.846 248.222 280.908 248.752 280.048Z" fill="#E5AF37"/>
<path d="M247.31 282.784L256.402 277.311C256.099 278.015 255.796 278.797 255.493 279.579L246.4 285.052C246.628 284.27 246.931 283.488 247.31 282.784Z" fill="#EAB238"/>
<path d="M246.326 285.052L255.419 279.579C255.192 280.282 254.964 280.986 254.737 281.69L245.645 287.163C245.872 286.381 246.099 285.678 246.326 285.052Z" fill="#EFB73A"/>
<path d="M245.722 287.163L254.814 281.69C254.663 282.315 254.435 283.019 254.284 283.723L245.191 289.196C245.343 288.492 245.494 287.789 245.722 287.163Z" fill="#F4BA3B"/>
<path d="M245.187 289.196L254.28 283.723C254.128 284.348 253.977 284.974 253.901 285.678L244.809 291.151C244.884 290.447 245.036 289.822 245.187 289.196Z" fill="#F9BE3C"/>
<path d="M244.811 291.073L253.903 285.599C253.827 286.225 253.676 286.85 253.6 287.476L244.508 292.949C244.584 292.402 244.659 291.698 244.811 291.073Z" fill="#FFC23D"/>
<path d="M244.509 293.028L253.601 287.554C253.525 288.18 253.449 288.805 253.374 289.509L244.281 294.982C244.357 294.279 244.433 293.653 244.509 293.028Z" fill="#FFC23D"/>
<path d="M244.357 294.904L253.45 289.431C253.374 290.056 253.374 290.682 253.374 291.307L244.281 296.781C244.206 296.155 244.281 295.53 244.357 294.904Z" fill="#FFC23D"/>
<path d="M244.205 296.781L253.297 291.307C253.297 291.933 253.221 292.558 253.221 293.262L244.129 298.736C244.205 298.11 244.205 297.406 244.205 296.781Z" fill="#FFC23D"/>
<path d="M244.203 298.736L253.296 293.262V293.34C253.296 293.966 253.296 294.513 253.296 295.139L244.203 300.612C244.203 299.987 244.203 299.439 244.203 298.814V298.736Z" fill="#FFC23D"/>
<path d="M244.203 300.612L253.296 295.139C253.296 295.764 253.371 296.39 253.371 297.094L244.279 302.567C244.203 301.942 244.203 301.238 244.203 300.612Z" fill="#FFC33D"/>
<path d="M244.281 302.567L253.374 297.094C253.449 297.719 253.449 298.345 253.525 299.048L244.433 304.522C244.357 303.818 244.357 303.193 244.281 302.567Z" fill="#FFC23D"/>
<path d="M244.432 304.522L253.524 299.048C253.6 299.674 253.676 300.378 253.751 301.003L244.659 306.477C244.583 305.773 244.507 305.147 244.432 304.522Z" fill="#FFC33D"/>
<path d="M244.658 306.399L253.751 300.925C253.826 301.551 253.902 302.254 254.054 302.958L244.961 308.432C244.81 307.728 244.734 307.102 244.658 306.399Z" fill="#FFC23D"/>
<path d="M244.885 308.432L253.977 302.958C254.053 303.662 254.204 304.287 254.28 304.991L245.188 310.465C245.112 309.761 245.036 309.135 244.885 308.432Z" fill="#FFC33D"/>
<path d="M245.266 310.465L254.358 304.991C254.51 305.695 254.585 306.399 254.737 307.102L245.644 312.576C245.493 311.794 245.341 311.168 245.266 310.465Z" fill="#FFC23D"/>
<path d="M245.645 312.498L254.737 307.024C254.888 307.728 255.04 308.432 255.192 309.135L246.099 314.609C245.948 313.905 245.796 313.201 245.645 312.498Z" fill="#FFC33D"/>
<path d="M246.1 314.609L255.192 309.135C255.344 309.839 255.571 310.543 255.722 311.246L246.63 316.72C246.478 316.016 246.327 315.312 246.1 314.609Z" fill="#FFC23D"/>
<path d="M246.705 316.72L255.797 311.246C255.949 311.95 256.176 312.654 256.404 313.358L247.311 318.831C247.084 318.127 246.857 317.424 246.705 316.72Z" fill="#FFC23D"/>
<path d="M247.234 318.831L256.327 313.358C256.554 314.061 256.781 314.765 256.933 315.391L247.841 320.864C247.689 320.16 247.462 319.457 247.234 318.831Z" fill="#FFC23D"/>
<path d="M247.916 320.864L257.008 315.391C257.236 316.094 257.463 316.72 257.69 317.424L248.598 322.897C248.371 322.193 248.143 321.568 247.916 320.864Z" fill="#FFC33D"/>
<path d="M248.602 322.897L257.694 317.424C257.921 318.049 258.149 318.753 258.376 319.378L249.283 324.852C249.056 324.226 248.829 323.523 248.602 322.897Z" fill="#FFC23D"/>
<path d="M249.281 324.852L258.374 319.378C258.601 320.004 258.904 320.63 259.131 321.333L250.039 326.807C249.812 326.103 249.509 325.477 249.281 324.852Z" fill="#FFC33D"/>
<path d="M250.039 326.807L259.131 321.333C259.359 321.959 259.662 322.584 259.889 323.21L250.797 328.683C250.569 328.058 250.342 327.432 250.039 326.807Z" fill="#FFC23D"/>
<path d="M250.873 328.683L259.965 323.21C260.268 323.835 260.496 324.461 260.799 325.165L251.707 330.638C251.403 329.934 251.1 329.309 250.873 328.683Z" fill="#FFCC5B"/>
<path d="M251.705 330.56L260.797 325.086C261.101 325.79 261.479 326.494 261.782 327.198L252.69 332.671C252.311 331.967 252.008 331.264 251.705 330.56Z" fill="#FFD068"/>
<path d="M252.691 332.671L261.784 327.198C262.163 327.98 262.541 328.762 262.996 329.622L253.904 335.095C253.449 334.313 253.07 333.531 252.691 332.671Z" fill="#FFD372"/>
<path d="M253.828 335.095L262.92 329.622C263.527 330.795 264.133 331.967 264.815 333.14L255.722 338.614C255.116 337.441 254.51 336.268 253.828 335.095Z" fill="#FFD57A"/>
<path d="M255.799 338.536L264.891 333.062C265.8 334.626 266.785 336.268 267.77 337.754L258.678 343.227C257.617 341.741 256.708 340.178 255.799 338.536Z" fill="#FFD881"/>
<path d="M258.602 343.305L267.694 337.832C268.452 339.083 269.285 340.256 270.119 341.429L261.026 346.902C260.268 345.729 259.435 344.478 258.602 343.305Z" fill="#FFD57A"/>
<path d="M261.102 346.902L270.194 341.429C270.724 342.211 271.33 342.993 271.937 343.774L262.844 349.248C262.238 348.466 261.632 347.684 261.102 346.902Z" fill="#FFD372"/>
<path d="M262.77 349.17L271.862 343.696C272.317 344.322 272.847 344.947 273.377 345.573L264.285 351.046C263.755 350.499 263.3 349.795 262.77 349.17Z" fill="#FFD068"/>
<path d="M264.283 351.125L273.376 345.651C273.83 346.277 274.361 346.824 274.891 347.449L265.799 352.923C265.268 352.297 264.738 351.672 264.283 351.125Z" fill="#FFCC5B"/>
<path d="M265.723 352.923L274.815 347.449C275.345 347.997 275.8 348.622 276.33 349.17L267.238 354.643C266.783 354.018 266.253 353.47 265.723 352.923Z" fill="#FFC23D"/>
<path d="M267.238 354.565L276.331 349.092C276.861 349.639 277.391 350.264 277.922 350.812L268.829 356.285C268.299 355.738 267.769 355.191 267.238 354.565Z" fill="#FFC33D"/>
<path d="M268.83 356.285L277.922 350.812C278.453 351.359 278.983 351.906 279.514 352.454L270.421 357.927C269.891 357.458 269.36 356.911 268.83 356.285Z" fill="#FFC23D"/>
<path d="M270.496 358.005L279.588 352.532C280.119 353.079 280.725 353.627 281.255 354.174L272.163 359.648C271.557 359.1 271.026 358.553 270.496 358.005Z" fill="#FFC33D"/>
<path d="M272.164 359.569L281.256 354.096C281.787 354.643 282.393 355.112 282.999 355.66L273.907 361.133C273.301 360.664 272.694 360.117 272.164 359.569Z" fill="#FFC23D"/>
<path d="M273.906 361.133L282.999 355.66C283.529 356.129 284.135 356.598 284.741 357.067L275.649 362.541C275.043 362.15 274.437 361.602 273.906 361.133Z" fill="#FFC23D"/>
<path d="M275.574 362.619L284.667 357.145C285.197 357.615 285.803 358.084 286.334 358.475L277.241 363.948C276.711 363.479 276.18 363.01 275.574 362.619Z" fill="#FFC23D"/>
<path d="M277.318 363.948L286.411 358.475C286.941 358.866 287.547 359.335 288.078 359.726L278.985 365.199C278.379 364.73 277.849 364.339 277.318 363.948Z" fill="#FFC33D"/>
<path d="M278.984 365.121L288.077 359.647C288.607 360.038 289.138 360.429 289.744 360.742L280.651 366.216C280.045 365.903 279.515 365.512 278.984 365.121Z" fill="#FFC23D"/>
<path d="M280.576 366.294L289.669 360.82C290.199 361.211 290.729 361.524 291.335 361.837L282.243 367.31C281.713 366.998 281.107 366.607 280.576 366.294Z" fill="#FFC33D"/>
<path d="M282.242 367.31L291.335 361.837C291.486 361.915 291.562 361.993 291.713 362.071L282.621 367.545C282.47 367.467 282.318 367.389 282.242 367.31Z" fill="#FFC23D"/>
<path d="M282.623 367.545L291.715 362.072C292.094 362.306 292.549 362.541 292.928 362.775L283.835 368.249C283.457 368.014 283.002 367.78 282.623 367.545Z" fill="#FFC23D"/>
<path d="M283.836 368.249L292.928 362.775C293.459 363.088 293.989 363.323 294.519 363.635L285.427 369.109C284.897 368.796 284.366 368.562 283.836 368.249Z" fill="#FFC33D"/>
<path d="M285.426 369.109L294.518 363.635C295.049 363.87 295.579 364.183 296.109 364.417L287.017 369.891C286.487 369.578 285.956 369.343 285.426 369.109Z" fill="#FFC23D"/>
<path d="M286.941 369.813L296.034 364.339C296.564 364.574 297.095 364.808 297.549 365.043L288.457 370.516C288.002 370.282 287.472 370.047 286.941 369.813Z" fill="#FFC33D"/>
<path d="M288.533 370.516L297.626 365.043C298.156 365.277 298.686 365.434 299.217 365.668L290.124 371.142C289.518 370.907 289.064 370.751 288.533 370.516Z" fill="#FFC23D"/>
<path d="M290.047 371.142L299.139 365.668C299.67 365.825 300.2 366.059 300.655 366.216L291.562 371.689C291.108 371.455 290.577 371.298 290.047 371.142Z" fill="#FFC23D"/>
<path d="M291.641 371.611L300.733 366.138C301.263 366.294 301.794 366.45 302.324 366.607L293.232 372.08C292.701 371.924 292.171 371.767 291.641 371.611Z" fill="#FFC23D"/>
<path d="M293.232 372.08L302.325 366.607C302.855 366.763 303.386 366.841 303.916 366.998L294.824 372.471C294.293 372.315 293.763 372.237 293.232 372.08Z" fill="#FFC23D"/>
<path d="M294.748 372.471L303.84 366.998C304.447 367.076 304.977 367.232 305.507 367.31L296.415 372.784C295.885 372.628 295.354 372.549 294.748 372.471Z" fill="#FFC23D"/>
<path d="M296.49 372.706L305.583 367.232C306.189 367.31 306.719 367.389 307.325 367.389L298.233 372.862C297.627 372.862 297.021 372.784 296.49 372.706Z" fill="#F9BE3C"/>
<path d="M298.156 372.94L307.249 367.467C307.855 367.545 308.461 367.545 309.067 367.545L299.975 373.018C299.369 372.94 298.762 372.94 298.156 372.94Z" fill="#F4BA3B"/>
<path d="M299.975 372.94L309.067 367.467C309.749 367.467 310.431 367.467 311.037 367.389L301.945 372.862C301.338 372.94 300.657 372.94 299.975 372.94Z" fill="#EFB73A"/>
<path d="M302.02 372.862L311.112 367.389C311.87 367.31 312.627 367.232 313.309 367.076L304.217 372.549C303.459 372.706 302.777 372.784 302.02 372.862Z" fill="#EAB238"/>
<path d="M304.217 372.549L313.309 367.076C314.218 366.919 315.128 366.607 316.037 366.294L306.944 371.767C306.035 372.08 305.126 372.315 304.217 372.549Z" fill="#E5AF37"/>
<path d="M306.945 371.767L316.038 366.294C317.098 365.903 318.159 365.434 319.144 364.808L310.052 370.282C309.067 370.907 308.006 371.376 306.945 371.767Z" fill="#E0AA36"/>
<path d="M255.42 273.323L264.512 267.85C265.497 267.224 266.558 266.755 267.619 266.364L258.526 271.837C257.466 272.228 256.405 272.698 255.42 273.323Z" fill="#E1C862"/>
<path d="M258.525 271.837L267.618 266.364C268.451 266.051 269.36 265.817 270.345 265.582L261.253 271.056C260.344 271.29 259.435 271.525 258.525 271.837Z" fill="#E6CE64"/>
<path d="M261.254 271.056L270.346 265.582C271.104 265.426 271.786 265.348 272.544 265.269L263.451 270.743C262.694 270.821 261.936 270.899 261.254 271.056Z" fill="#EBD267"/>
<path d="M263.453 270.743L272.545 265.269C273.227 265.191 273.834 265.191 274.515 265.191L265.423 270.665C264.817 270.665 264.135 270.665 263.453 270.743Z" fill="#F0D669"/>
<path d="M265.422 270.665L274.514 265.191C275.12 265.191 275.727 265.191 276.333 265.269L267.24 270.743C266.634 270.665 266.028 270.665 265.422 270.665Z" fill="#F5DC6B"/>
<path d="M267.24 270.665L276.333 265.191C276.863 265.269 277.469 265.269 278.075 265.347L268.983 270.821C268.377 270.821 267.846 270.743 267.24 270.665Z" fill="#FAE06D"/>
<path d="M268.982 270.899L278.075 265.426C278.605 265.504 279.211 265.582 279.742 265.738L270.649 271.212C270.119 271.056 269.513 270.977 268.982 270.899Z" fill="#FFE46F"/>
<path d="M270.65 271.134L279.743 265.66C280.273 265.738 280.804 265.895 281.334 266.051L272.242 271.525C271.711 271.368 271.181 271.29 270.65 271.134Z" fill="#FFE56F"/>
<path d="M272.24 271.525L281.333 266.051C281.863 266.208 282.393 266.364 282.924 266.52L273.831 271.994C273.301 271.838 272.771 271.681 272.24 271.525Z" fill="#FFE56F"/>
<path d="M273.832 271.994L282.924 266.52C283.455 266.677 283.985 266.833 284.44 267.068L275.347 272.541C274.893 272.307 274.362 272.15 273.832 271.994Z" fill="#FFE36F"/>
<path d="M275.422 272.463L284.514 266.99C285.045 267.146 285.575 267.381 286.105 267.615L277.013 273.089C276.407 272.854 275.876 272.698 275.422 272.463Z" fill="#FFE46F"/>
<path d="M276.938 273.089L286.03 267.615C286.56 267.85 287.091 268.084 287.545 268.319L278.453 273.792C277.998 273.558 277.468 273.323 276.938 273.089Z" fill="#FFE46F"/>
<path d="M278.453 273.792L287.546 268.319C288.076 268.553 288.606 268.788 289.137 269.101L280.044 274.574C279.514 274.261 278.984 274.027 278.453 273.792Z" fill="#FFE46F"/>
<path d="M280.045 274.574L289.137 269.101C289.668 269.335 290.198 269.648 290.728 269.961L281.636 275.434C281.106 275.122 280.575 274.809 280.045 274.574Z" fill="#FFE46F"/>
<path d="M281.637 275.356L290.729 269.883C291.108 270.117 291.563 270.352 291.941 270.586L282.849 276.06C282.47 275.825 282.016 275.591 281.637 275.356Z" fill="#FFE46F"/>
<path d="M251.555 266.364L260.647 260.891C261.784 260.187 262.996 259.64 264.208 259.17L255.116 264.644C253.828 265.113 252.615 265.739 251.555 266.364Z" fill="#E0AA36"/>
<path d="M255.115 264.722L264.208 259.249C265.193 258.858 266.253 258.623 267.314 258.388L258.222 263.862C257.085 264.018 256.1 264.331 255.115 264.722Z" fill="#E5AF37"/>
<path d="M258.146 263.784L267.239 258.31C268.072 258.154 268.906 257.997 269.815 257.919L260.723 263.393C259.813 263.549 258.98 263.627 258.146 263.784Z" fill="#EAB238"/>
<path d="M260.723 263.471L269.815 257.997C270.573 257.919 271.33 257.919 272.088 257.919L262.996 263.393C262.238 263.315 261.48 263.393 260.723 263.471Z" fill="#EFB73A"/>
<path d="M262.994 263.315L272.087 257.841C272.768 257.841 273.45 257.841 274.132 257.919L265.04 263.393C264.358 263.315 263.676 263.315 262.994 263.315Z" fill="#F4BA3B"/>
<path d="M265.041 263.393L274.133 257.919C274.815 257.997 275.421 257.997 276.103 258.154L267.011 263.627C266.329 263.549 265.723 263.471 265.041 263.393Z" fill="#F9BE3C"/>
<path d="M267.012 263.627L276.104 258.154C276.71 258.232 277.392 258.388 277.998 258.467L268.906 263.94C268.3 263.784 267.694 263.705 267.012 263.627Z" fill="#FFC23D"/>
<path d="M268.982 263.94L278.075 258.467C278.681 258.623 279.287 258.701 279.893 258.858L270.801 264.331C270.119 264.175 269.513 264.018 268.982 263.94Z" fill="#FFC23D"/>
<path d="M270.723 264.331L279.815 258.858C280.421 259.014 281.027 259.17 281.634 259.405L272.541 264.878C271.935 264.644 271.329 264.487 270.723 264.331Z" fill="#FFC23D"/>
<path d="M272.545 264.878L281.637 259.405C282.243 259.561 282.774 259.796 283.38 260.03L274.288 265.504C273.757 265.269 273.151 265.035 272.545 264.878Z" fill="#FFC23D"/>
<path d="M274.361 265.426L283.454 259.952C284.06 260.187 284.666 260.421 285.196 260.656L276.104 266.13C275.498 265.895 274.967 265.66 274.361 265.426Z" fill="#FFC23D"/>
<path d="M276.105 266.129L285.198 260.656C285.804 260.891 286.334 261.125 286.941 261.438L277.848 266.911C277.318 266.677 276.712 266.364 276.105 266.129Z" fill="#FFC33D"/>
<path d="M277.846 266.911L286.938 261.438C287.544 261.672 288.15 261.985 288.757 262.298L279.664 267.771C279.058 267.459 278.452 267.224 277.846 266.911Z" fill="#FFC23D"/>
<path d="M279.666 267.772L288.758 262.298C289.365 262.611 289.971 262.924 290.577 263.236L281.484 268.71C280.878 268.397 280.272 268.084 279.666 267.772Z" fill="#FFC33D"/>
<path d="M281.484 268.788L290.577 263.315C291.031 263.549 291.486 263.862 291.941 264.096L282.848 269.57C282.394 269.257 281.939 269.023 281.484 268.788Z" fill="#FFC23D"/>
<path d="M282.846 276.06L291.938 270.586C292.09 270.665 292.165 270.743 292.317 270.821L283.225 276.294C283.073 276.216 282.997 276.138 282.846 276.06Z" fill="#FFE46F"/>
<path d="M283.225 276.294L292.317 270.821C292.847 271.134 293.378 271.525 293.984 271.837L284.892 277.311C284.285 276.998 283.755 276.685 283.225 276.294Z" fill="#FFE46F"/>
<path d="M284.891 277.311L293.983 271.837C294.513 272.228 295.044 272.541 295.65 272.932L286.558 278.406C285.951 278.093 285.421 277.702 284.891 277.311Z" fill="#FFE46F"/>
<path d="M286.482 278.484L295.575 273.01C296.105 273.401 296.711 273.792 297.242 274.261L288.149 279.735C287.619 279.266 287.089 278.875 286.482 278.484Z" fill="#FFE46F"/>
<path d="M288.148 279.657L297.241 274.183C297.771 274.652 298.377 275.043 298.908 275.512L289.815 280.986C289.285 280.595 288.755 280.126 288.148 279.657Z" fill="#FFE46F"/>
<path d="M289.893 280.986L298.985 275.512C299.591 275.982 300.121 276.451 300.728 276.92L291.635 282.393C291.029 282.002 290.423 281.455 289.893 280.986Z" fill="#FFE36F"/>
<path d="M291.559 282.472L300.651 276.998C301.257 277.467 301.788 278.015 302.394 278.562L293.301 284.035C292.695 283.488 292.165 282.941 291.559 282.472Z" fill="#FFE46F"/>
<path d="M293.301 284.035L302.393 278.562C302.999 279.109 303.53 279.657 304.06 280.204L294.968 285.678C294.437 285.052 293.831 284.505 293.301 284.035Z" fill="#FFE46F"/>
<path d="M294.971 285.599L304.063 280.126C304.593 280.673 305.124 281.221 305.654 281.768L296.562 287.241C296.107 286.694 295.501 286.147 294.971 285.599Z" fill="#FFE46F"/>
<path d="M296.637 287.32L305.729 281.846C306.259 282.393 306.79 282.941 307.32 283.566L298.228 289.04C297.697 288.414 297.167 287.867 296.637 287.32Z" fill="#FFE46F"/>
<path d="M298.15 288.962L307.243 283.488C307.773 284.035 308.228 284.661 308.758 285.208L299.666 290.682C299.211 290.134 298.681 289.587 298.15 288.962Z" fill="#FFE46F"/>
<path d="M299.666 290.682L308.758 285.208C309.289 285.834 309.743 286.381 310.274 287.007L301.181 292.48C300.651 291.933 300.196 291.307 299.666 290.682Z" fill="#FFE987"/>
<path d="M301.182 292.48L310.274 287.007C310.804 287.632 311.259 288.258 311.789 288.883L302.697 294.357C302.167 293.731 301.636 293.106 301.182 292.48Z" fill="#FFEB92"/>
<path d="M302.623 294.357L311.715 288.883C312.322 289.665 312.852 290.447 313.458 291.229L304.366 296.703C303.835 295.921 303.229 295.139 302.623 294.357Z" fill="#FFEC99"/>
<path d="M304.363 296.703L313.456 291.229C314.289 292.402 315.123 293.575 315.88 294.826L306.788 300.3C306.03 299.127 305.197 297.876 304.363 296.703Z" fill="#FFEDA0"/>
<path d="M306.791 300.299L315.883 294.826C316.868 296.39 317.853 297.954 318.763 299.518L309.67 304.991C308.761 303.427 307.852 301.863 306.791 300.299Z" fill="#FFEEA6"/>
<path d="M309.668 304.991L318.76 299.518C319.442 300.69 320.048 301.863 320.655 303.036L311.562 308.51C310.956 307.337 310.35 306.164 309.668 304.991Z" fill="#FFEDA0"/>
<path d="M311.562 308.51L320.655 303.036C321.034 303.818 321.488 304.6 321.867 305.382L312.775 310.855C312.396 310.074 312.017 309.292 311.562 308.51Z" fill="#FFEC99"/>
<path d="M312.775 310.934L321.868 305.46C322.171 306.164 322.55 306.868 322.853 307.571L313.76 313.045C313.457 312.263 313.078 311.559 312.775 310.934Z" fill="#FFEB92"/>
<path d="M313.758 312.967L322.85 307.493C323.153 308.119 323.456 308.744 323.684 309.448L314.591 314.921C314.288 314.296 314.061 313.67 313.758 312.967Z" fill="#FFE987"/>
<path d="M314.594 314.921L323.686 309.448C323.989 310.074 324.217 310.699 324.444 311.325L315.351 316.798C315.124 316.173 314.897 315.547 314.594 314.921Z" fill="#FFE46F"/>
<path d="M315.426 316.798L324.518 311.325C324.745 311.95 325.049 312.576 325.276 313.279L316.183 318.753C315.88 318.127 315.653 317.502 315.426 316.798Z" fill="#FFE46F"/>
<path d="M316.109 318.753L325.202 313.279C325.429 313.905 325.656 314.609 325.884 315.234L316.791 320.708C316.64 320.082 316.412 319.378 316.109 318.753Z" fill="#FFE46F"/>
<path d="M316.865 320.708L325.958 315.234C326.185 315.938 326.412 316.563 326.64 317.267L317.547 322.741C317.32 322.037 317.093 321.411 316.865 320.708Z" fill="#FFE46F"/>
<path d="M317.551 322.741L326.643 317.267C326.87 317.971 327.098 318.675 327.249 319.3L318.157 324.774C318.005 324.07 317.778 323.444 317.551 322.741Z" fill="#FFE46F"/>
<path d="M318.156 324.774L327.249 319.3C327.476 320.004 327.627 320.708 327.855 321.411L318.762 326.885C318.611 326.181 318.384 325.477 318.156 324.774Z" fill="#FFE36F"/>
<path d="M318.76 326.885L327.852 321.411C328.004 322.115 328.231 322.819 328.383 323.523L319.29 328.996C319.139 328.292 318.987 327.589 318.76 326.885Z" fill="#FFE46F"/>
<path d="M319.293 328.996L328.385 323.523C328.537 324.226 328.688 324.93 328.84 325.634L319.748 331.107C319.672 330.404 319.445 329.7 319.293 328.996Z" fill="#FFE46F"/>
<path d="M319.746 331.107L328.838 325.634C328.99 326.338 329.142 327.041 329.217 327.745L320.125 333.218C320.049 332.515 319.898 331.811 319.746 331.107Z" fill="#FFE46F"/>
<path d="M320.201 333.14L329.294 327.667C329.445 328.371 329.521 328.996 329.597 329.7L320.504 335.173C320.428 334.548 320.277 333.844 320.201 333.14Z" fill="#FFE46F"/>
<path d="M320.502 335.173L329.594 329.7C329.67 330.404 329.822 331.029 329.897 331.733L320.805 337.206C320.729 336.503 320.653 335.877 320.502 335.173Z" fill="#FFE46F"/>
<path d="M320.807 337.206L329.899 331.733C329.975 332.358 330.051 333.062 330.126 333.688L321.034 339.161C320.958 338.457 320.882 337.832 320.807 337.206Z" fill="#FFE46F"/>
<path d="M321.033 339.161L330.126 333.688C330.201 334.313 330.201 335.017 330.277 335.642L321.185 341.116C321.109 340.412 321.109 339.787 321.033 339.161Z" fill="#FFE46F"/>
<path d="M321.188 341.038L330.28 335.564C330.356 336.19 330.356 336.815 330.356 337.519L321.263 342.993C321.263 342.367 321.188 341.741 321.188 341.038Z" fill="#FFE46F"/>
<path d="M321.262 342.993L330.354 337.519C330.354 338.145 330.354 338.692 330.354 339.317V339.396L321.262 344.869V344.791C321.262 344.165 321.262 343.618 321.262 342.993Z" fill="#FFE46F"/>
<path d="M321.263 344.869L330.356 339.396C330.356 340.021 330.356 340.725 330.28 341.351L321.188 346.824C321.263 346.198 321.263 345.573 321.263 344.869Z" fill="#FFE36F"/>
<path d="M321.263 346.824L330.356 341.351C330.356 341.976 330.28 342.602 330.28 343.227L321.188 348.701C321.188 348.075 321.188 347.45 321.263 346.824Z" fill="#FFE56F"/>
<path d="M321.108 348.701L330.201 343.227C330.125 343.853 330.049 344.478 329.973 345.104L320.881 350.577C321.032 349.952 321.032 349.326 321.108 348.701Z" fill="#FFE56F"/>
<path d="M320.957 350.577L330.05 345.104C329.974 345.729 329.898 346.355 329.747 346.98L320.654 352.454C320.73 351.906 320.882 351.281 320.957 350.577Z" fill="#FFE46F"/>
<path d="M320.654 352.532L329.747 347.059C329.671 347.684 329.519 348.388 329.368 349.013L320.275 354.487C320.427 353.783 320.503 353.158 320.654 352.532Z" fill="#FAE06D"/>
<path d="M320.276 354.487L329.369 349.013C329.217 349.717 329.066 350.421 328.838 351.046L319.746 356.52C319.973 355.816 320.125 355.112 320.276 354.487Z" fill="#F5DC6B"/>
<path d="M319.746 356.442L328.839 350.968C328.611 351.672 328.384 352.376 328.157 353.079L319.064 358.553C319.368 357.927 319.519 357.224 319.746 356.442Z" fill="#F0D669"/>
<path d="M319.065 358.553L328.158 353.079C327.855 353.861 327.552 354.643 327.249 355.347L318.156 360.82C318.535 360.117 318.838 359.335 319.065 358.553Z" fill="#EBD267"/>
<path d="M318.154 360.82L327.247 355.347C326.792 356.285 326.338 357.224 325.807 358.084L316.715 363.557C317.245 362.697 317.7 361.759 318.154 360.82Z" fill="#E6CE64"/>
<path d="M316.713 363.557L325.805 358.084C323.987 360.977 321.789 363.244 319.137 364.808L310.045 370.282C312.697 368.718 314.894 366.45 316.713 363.557Z" fill="#E1C862"/>
<path d="M282.848 276.06C304.139 288.727 321.339 319.535 321.263 344.713C321.187 369.969 303.836 380.134 282.621 367.467C261.329 354.8 244.13 323.992 244.205 298.814C244.205 273.558 261.557 263.393 282.848 276.06Z" fill="#FFEC98"/>
<path d="M282.846 269.57L291.938 264.096C292.09 264.175 292.241 264.253 292.393 264.331L283.3 269.805C283.149 269.726 282.997 269.648 282.846 269.57Z" fill="#FFC23D"/>
<path d="M283.301 269.805L292.393 264.331C292.999 264.722 293.605 265.113 294.287 265.504L285.195 270.977C284.589 270.586 283.907 270.195 283.301 269.805Z" fill="#FFC33D"/>
<path d="M285.195 270.977L294.288 265.504C294.894 265.895 295.5 266.364 296.182 266.755L287.09 272.228C286.408 271.838 285.801 271.447 285.195 270.977Z" fill="#FFC23D"/>
<path d="M287.012 272.307L296.104 266.833C296.71 267.302 297.392 267.772 297.998 268.241L288.906 273.714C288.3 273.167 287.694 272.698 287.012 272.307Z" fill="#FFC33D"/>
<path d="M288.982 273.714L298.075 268.241C298.757 268.71 299.363 269.257 300.045 269.726L290.952 275.2C290.271 274.652 289.589 274.183 288.982 273.714Z" fill="#FFC23D"/>
<path d="M290.879 275.2L299.971 269.726C300.653 270.274 301.259 270.821 301.941 271.368L292.849 276.842C292.167 276.294 291.561 275.747 290.879 275.2Z" fill="#FFC23D"/>
<path d="M292.848 276.842L301.94 271.368C302.622 271.916 303.228 272.541 303.91 273.167L294.818 278.64C294.136 278.015 293.53 277.389 292.848 276.842Z" fill="#FFC23D"/>
<path d="M294.816 278.64L303.909 273.167C304.591 273.792 305.197 274.418 305.879 275.043L296.786 280.517C296.104 279.813 295.423 279.188 294.816 278.64Z" fill="#FFC33D"/>
<path d="M296.713 280.439L305.805 274.965C306.411 275.591 307.018 276.216 307.699 276.842L298.607 282.315C298.001 281.69 297.395 281.064 296.713 280.439Z" fill="#FFC23D"/>
<path d="M298.607 282.393L307.7 276.92C308.306 277.546 308.912 278.171 309.518 278.875L300.426 284.348C299.82 283.645 299.214 283.019 298.607 282.393Z" fill="#FFC33D"/>
<path d="M300.424 284.348L309.516 278.875C310.122 279.5 310.653 280.204 311.259 280.83L302.167 286.303C301.56 285.599 300.954 284.974 300.424 284.348Z" fill="#FFC23D"/>
<path d="M302.094 286.303L311.186 280.83C311.792 281.533 312.323 282.159 312.853 282.863L303.761 288.336C303.23 287.632 302.7 286.929 302.094 286.303Z" fill="#FFCC5B"/>
<path d="M303.836 288.336L312.928 282.863C313.534 283.566 314.065 284.27 314.595 285.052L305.503 290.525C304.972 289.744 304.366 289.04 303.836 288.336Z" fill="#FFD068"/>
<path d="M305.5 290.525L314.592 285.052C315.274 285.912 315.88 286.772 316.562 287.711L307.47 293.184C306.864 292.246 306.182 291.386 305.5 290.525Z" fill="#FFD372"/>
<path d="M307.471 293.184L316.563 287.711C317.548 289.04 318.457 290.447 319.367 291.777L310.274 297.25C309.365 295.843 308.456 294.513 307.471 293.184Z" fill="#FFD57A"/>
<path d="M310.271 297.25L319.364 291.777C320.5 293.497 321.561 295.295 322.622 297.172L313.53 302.645C312.469 300.769 311.408 299.048 310.271 297.25Z" fill="#FFD881"/>
<path d="M313.531 302.645L322.624 297.172C323.381 298.501 324.063 299.83 324.821 301.16L315.729 306.633C314.971 305.304 314.289 303.975 313.531 302.645Z" fill="#FFD57A"/>
<path d="M315.73 306.633L324.823 301.16C325.277 302.098 325.732 302.958 326.187 303.896L317.094 309.37C316.64 308.432 316.185 307.493 315.73 306.633Z" fill="#FFD372"/>
<path d="M317.094 309.37L326.186 303.896C326.565 304.678 326.944 305.46 327.323 306.32L318.23 311.794C317.851 310.934 317.473 310.152 317.094 309.37Z" fill="#FFD068"/>
<path d="M318.156 311.716L327.249 306.242C327.552 306.946 327.931 307.728 328.234 308.432L319.141 313.905C318.838 313.201 318.535 312.498 318.156 311.716Z" fill="#FFCC5B"/>
<path d="M319.139 313.905L328.231 308.432C328.534 309.135 328.837 309.917 329.14 310.621L320.048 316.094C319.745 315.391 319.442 314.687 319.139 313.905Z" fill="#FFC23D"/>
<path d="M320.047 316.094L329.139 310.621C329.442 311.325 329.745 312.107 329.973 312.81L320.88 318.284C320.653 317.58 320.35 316.876 320.047 316.094Z" fill="#FFC33D"/>
<path d="M320.881 318.284L329.973 312.81C330.276 313.514 330.504 314.296 330.807 315L321.714 320.473C321.487 319.769 321.184 319.066 320.881 318.284Z" fill="#FFC23D"/>
<path d="M321.717 320.551L330.809 315.078C331.112 315.86 331.34 316.642 331.567 317.424L322.474 322.897C322.247 322.115 322.02 321.333 321.717 320.551Z" fill="#FFC33D"/>
<path d="M322.473 322.897L331.565 317.424C331.792 318.206 332.095 318.988 332.323 319.769L323.23 325.243C323.003 324.461 322.776 323.679 322.473 322.897Z" fill="#FFC23D"/>
<path d="M323.232 325.243L332.325 319.769C332.552 320.551 332.779 321.333 333.007 322.193L323.914 327.667C323.687 326.807 323.46 326.025 323.232 325.243Z" fill="#FFC23D"/>
<path d="M323.912 327.589L333.004 322.115C333.232 322.897 333.459 323.757 333.611 324.539L324.518 330.013C324.367 329.231 324.139 328.449 323.912 327.589Z" fill="#FFC23D"/>
<path d="M324.52 330.013L333.612 324.539C333.839 325.321 333.991 326.103 334.142 326.885L325.05 332.358C324.898 331.655 324.747 330.795 324.52 330.013Z" fill="#FFC33D"/>
<path d="M325.049 332.437L334.141 326.963C334.293 327.745 334.444 328.527 334.596 329.309L325.503 334.782C325.428 334 325.2 333.219 325.049 332.437Z" fill="#FFC23D"/>
<path d="M325.502 334.782L334.594 329.309C334.746 330.091 334.897 330.873 334.973 331.576L325.881 337.05C325.805 336.346 325.653 335.564 325.502 334.782Z" fill="#FFC33D"/>
<path d="M325.959 337.05L335.051 331.576C335.203 332.358 335.279 333.14 335.354 333.844L326.262 339.318C326.111 338.614 326.035 337.832 325.959 337.05Z" fill="#FFC23D"/>
<path d="M326.264 339.396L335.356 333.922C335.432 334.704 335.508 335.408 335.583 336.112L326.491 341.585C326.415 340.881 326.339 340.099 326.264 339.396Z" fill="#FFC33D"/>
<path d="M326.49 341.585L335.583 336.112C335.658 336.815 335.734 337.597 335.734 338.301L326.642 343.775C326.642 343.071 326.566 342.367 326.49 341.585Z" fill="#FFC23D"/>
<path d="M326.641 343.775L335.733 338.301C335.809 339.005 335.809 339.787 335.809 340.49L326.716 345.964C326.716 345.26 326.716 344.556 326.641 343.775Z" fill="#FFC33D"/>
<path d="M326.717 346.042L335.809 340.569C335.809 341.272 335.809 341.976 335.809 342.602C335.809 342.68 335.809 342.68 335.809 342.758L326.717 348.231C326.717 348.153 326.717 348.153 326.717 348.075C326.793 347.371 326.793 346.668 326.717 346.042Z" fill="#FFC23D"/>
<path d="M326.793 348.153L335.885 342.68C335.885 343.462 335.885 344.165 335.809 344.869L326.717 350.343C326.793 349.639 326.793 348.935 326.793 348.153Z" fill="#FFC23D"/>
<path d="M326.716 350.421L335.808 344.947C335.808 345.651 335.733 346.355 335.657 347.059L326.564 352.532C326.64 351.828 326.716 351.125 326.716 350.421Z" fill="#FFC23D"/>
<path d="M326.565 352.532L335.658 347.059C335.582 347.84 335.506 348.544 335.43 349.248L326.338 354.721C326.489 354.018 326.565 353.314 326.565 352.532Z" fill="#FFC23D"/>
<path d="M326.41 354.721L335.503 349.248C335.427 349.952 335.276 350.734 335.2 351.437L326.107 356.911C326.183 356.207 326.259 355.425 326.41 354.721Z" fill="#FFC23D"/>
<path d="M326.035 356.911L335.127 351.437C334.976 352.219 334.824 352.923 334.672 353.627L325.58 359.1C325.807 358.396 325.959 357.615 326.035 356.911Z" fill="#F9BE3C"/>
<path d="M325.655 359.1L334.747 353.627C334.596 354.409 334.369 355.191 334.141 355.973L325.049 361.446C325.276 360.664 325.428 359.882 325.655 359.1Z" fill="#F4BA3B"/>
<path d="M325.049 361.446L334.141 355.972C333.914 356.833 333.686 357.615 333.383 358.396L324.291 363.87C324.518 363.088 324.821 362.228 325.049 361.446Z" fill="#EFB73A"/>
<path d="M324.293 363.87L333.386 358.396C333.082 359.257 332.704 360.117 332.325 360.977L323.232 366.45C323.611 365.59 323.99 364.73 324.293 363.87Z" fill="#EAB238"/>
<path d="M323.229 366.45L332.322 360.977C331.791 362.072 331.261 363.088 330.655 364.105L321.562 369.578C322.169 368.562 322.699 367.545 323.229 366.45Z" fill="#E5AF37"/>
<path d="M321.565 369.5L330.657 364.026C328.611 367.31 326.035 369.891 323.004 371.689L313.912 377.163C316.943 375.442 319.519 372.862 321.565 369.5Z" fill="#E0AA36"/>
<path d="M282.847 269.57C307.169 284.035 326.794 319.222 326.718 348.075C326.642 376.928 306.866 388.579 282.544 374.035C258.222 359.569 238.522 324.383 238.598 295.53C238.749 266.677 258.525 255.104 282.847 269.57ZM282.62 367.545C303.911 380.212 321.187 370.047 321.263 344.791C321.338 319.535 304.139 288.805 282.847 276.138C261.556 263.471 244.205 273.636 244.129 298.892C244.129 324.07 261.329 354.8 282.62 367.545Z" fill="#E4AE37"/>
<path d="M299.278 312.796L299.144 357.845L294.588 355.23L294.722 315.343L294.454 315.142L285.407 336.862L281.387 334.583L272.541 302.539L272.206 302.338L272.072 342.292L267.583 339.611L267.717 299.724L266.443 298.987V293.825L275.557 299.121L283.397 327.343L291.371 308.238L299.278 312.796Z" fill="#F74D46"/>
<path d="M287.318 299.987C288.757 300.847 289.894 302.88 289.894 304.6C289.894 306.32 288.757 307.024 287.318 306.164C285.878 305.304 284.742 303.271 284.742 301.551C284.666 299.83 285.878 299.127 287.318 299.987Z" fill="white"/>
<path d="M279.516 284.661C280.653 285.287 281.562 286.929 281.486 288.258C281.411 289.587 280.577 290.135 279.441 289.431C278.38 288.727 277.471 287.163 277.471 285.834C277.471 284.505 278.38 283.957 279.516 284.661Z" fill="white"/>
</svg>
